G04 EAGLE Gerber RS-274X export*
G75*
%MOMM*%
%FSLAX34Y34*%
%LPD*%
%INTop Copper*%
%IPPOS*%
%AMOC8*
5,1,8,0,0,1.08239X$1,22.5*%
G01*
%ADD10R,2.000000X1.500000*%
%ADD11P,1.732040X8X112.500000*%
%ADD12R,2.100000X1.500000*%
%ADD13C,1.524000*%
%ADD14R,1.500000X1.500000*%
%ADD15R,1.803000X1.600000*%
%ADD16C,1.790700*%
%ADD17P,2.336880X8X22.500000*%
%ADD18R,1.000000X1.400000*%
%ADD19C,1.408000*%
%ADD20R,1.676400X1.676400*%
%ADD21C,1.676400*%
%ADD22R,1.508000X1.508000*%
%ADD23R,1.650000X1.650000*%
%ADD24C,1.650000*%
%ADD25R,2.000000X1.600000*%
%ADD26C,0.203200*%
%ADD27C,0.756400*%

G36*
X152490Y62754D02*
X152490Y62754D01*
X152581Y62761D01*
X152611Y62773D01*
X152643Y62779D01*
X152723Y62821D01*
X152807Y62857D01*
X152839Y62883D01*
X152860Y62894D01*
X152882Y62917D01*
X152938Y62962D01*
X228915Y138939D01*
X254000Y138939D01*
X254090Y138954D01*
X254181Y138961D01*
X254211Y138973D01*
X254243Y138979D01*
X254323Y139021D01*
X254407Y139057D01*
X254439Y139083D01*
X254460Y139094D01*
X254482Y139117D01*
X254538Y139162D01*
X305338Y189962D01*
X305391Y190036D01*
X305451Y190105D01*
X305463Y190135D01*
X305482Y190161D01*
X305509Y190248D01*
X305543Y190333D01*
X305547Y190374D01*
X305554Y190397D01*
X305553Y190429D01*
X305561Y190500D01*
X305561Y329885D01*
X343215Y367539D01*
X368300Y367539D01*
X368390Y367554D01*
X368481Y367561D01*
X368511Y367573D01*
X368543Y367579D01*
X368623Y367621D01*
X368707Y367657D01*
X368739Y367683D01*
X368760Y367694D01*
X368782Y367717D01*
X368838Y367762D01*
X381538Y380462D01*
X381591Y380536D01*
X381651Y380605D01*
X381663Y380635D01*
X381682Y380661D01*
X381709Y380748D01*
X381743Y380833D01*
X381747Y380874D01*
X381754Y380897D01*
X381753Y380929D01*
X381761Y381000D01*
X381761Y406400D01*
X381747Y406490D01*
X381739Y406581D01*
X381727Y406611D01*
X381722Y406643D01*
X381679Y406723D01*
X381643Y406807D01*
X381617Y406839D01*
X381606Y406860D01*
X381583Y406882D01*
X381538Y406938D01*
X368838Y419638D01*
X368764Y419691D01*
X368695Y419751D01*
X368665Y419763D01*
X368639Y419782D01*
X368552Y419809D01*
X368467Y419843D01*
X368426Y419847D01*
X368403Y419854D01*
X368371Y419853D01*
X368300Y419861D01*
X355600Y419861D01*
X355510Y419847D01*
X355419Y419839D01*
X355389Y419827D01*
X355357Y419822D01*
X355277Y419779D01*
X355193Y419743D01*
X355161Y419717D01*
X355140Y419706D01*
X355121Y419686D01*
X355119Y419685D01*
X355113Y419680D01*
X355062Y419638D01*
X342362Y406938D01*
X342309Y406864D01*
X342249Y406795D01*
X342237Y406765D01*
X342218Y406739D01*
X342191Y406652D01*
X342157Y406567D01*
X342153Y406526D01*
X342146Y406503D01*
X342147Y406471D01*
X342139Y406400D01*
X342139Y394015D01*
X291562Y343438D01*
X291509Y343364D01*
X291449Y343295D01*
X291437Y343265D01*
X291418Y343239D01*
X291391Y343152D01*
X291357Y343067D01*
X291353Y343026D01*
X291346Y343003D01*
X291347Y342971D01*
X291339Y342900D01*
X291339Y203515D01*
X266385Y178561D01*
X228600Y178561D01*
X228510Y178547D01*
X228419Y178539D01*
X228389Y178527D01*
X228357Y178522D01*
X228277Y178479D01*
X228193Y178443D01*
X228161Y178417D01*
X228140Y178406D01*
X228118Y178383D01*
X228062Y178338D01*
X215362Y165638D01*
X215309Y165564D01*
X215249Y165495D01*
X215237Y165465D01*
X215218Y165439D01*
X215191Y165352D01*
X215157Y165267D01*
X215153Y165226D01*
X215146Y165203D01*
X215147Y165171D01*
X215139Y165100D01*
X215139Y152715D01*
X152400Y89977D01*
X140238Y102138D01*
X140164Y102191D01*
X140095Y102251D01*
X140065Y102263D01*
X140039Y102282D01*
X139952Y102309D01*
X139867Y102343D01*
X139826Y102347D01*
X139803Y102354D01*
X139771Y102353D01*
X139700Y102361D01*
X88900Y102361D01*
X88810Y102347D01*
X88719Y102339D01*
X88689Y102327D01*
X88657Y102322D01*
X88577Y102279D01*
X88493Y102243D01*
X88461Y102217D01*
X88440Y102206D01*
X88418Y102183D01*
X88362Y102138D01*
X75662Y89438D01*
X75609Y89364D01*
X75549Y89295D01*
X75537Y89265D01*
X75518Y89239D01*
X75491Y89152D01*
X75457Y89067D01*
X75453Y89026D01*
X75446Y89003D01*
X75447Y88971D01*
X75439Y88900D01*
X75439Y76200D01*
X75454Y76110D01*
X75461Y76019D01*
X75473Y75989D01*
X75479Y75957D01*
X75521Y75877D01*
X75557Y75793D01*
X75583Y75761D01*
X75594Y75740D01*
X75617Y75718D01*
X75662Y75662D01*
X88362Y62962D01*
X88436Y62909D01*
X88505Y62849D01*
X88535Y62837D01*
X88561Y62818D01*
X88648Y62791D01*
X88733Y62757D01*
X88774Y62753D01*
X88797Y62746D01*
X88829Y62747D01*
X88900Y62739D01*
X152400Y62739D01*
X152490Y62754D01*
G37*
G36*
X127090Y113554D02*
X127090Y113554D01*
X127181Y113561D01*
X127211Y113573D01*
X127243Y113579D01*
X127323Y113621D01*
X127407Y113657D01*
X127439Y113683D01*
X127460Y113694D01*
X127482Y113717D01*
X127538Y113762D01*
X140238Y126462D01*
X140291Y126536D01*
X140351Y126605D01*
X140363Y126635D01*
X140382Y126661D01*
X140409Y126748D01*
X140443Y126833D01*
X140447Y126874D01*
X140454Y126897D01*
X140453Y126929D01*
X140461Y127000D01*
X140461Y138939D01*
X177800Y138939D01*
X177890Y138954D01*
X177981Y138961D01*
X178011Y138973D01*
X178043Y138979D01*
X178123Y139021D01*
X178207Y139057D01*
X178239Y139083D01*
X178260Y139094D01*
X178282Y139117D01*
X178338Y139162D01*
X203738Y164562D01*
X203791Y164636D01*
X203851Y164705D01*
X203863Y164735D01*
X203882Y164761D01*
X203909Y164848D01*
X203943Y164933D01*
X203947Y164974D01*
X203954Y164997D01*
X203953Y165029D01*
X203961Y165100D01*
X203961Y177485D01*
X216215Y189739D01*
X254000Y189739D01*
X254090Y189754D01*
X254181Y189761D01*
X254211Y189773D01*
X254243Y189779D01*
X254323Y189821D01*
X254407Y189857D01*
X254439Y189883D01*
X254460Y189894D01*
X254482Y189917D01*
X254538Y189962D01*
X267238Y202662D01*
X267291Y202736D01*
X267351Y202805D01*
X267363Y202835D01*
X267382Y202861D01*
X267409Y202948D01*
X267443Y203033D01*
X267447Y203074D01*
X267454Y203097D01*
X267453Y203129D01*
X267461Y203200D01*
X267461Y215900D01*
X267447Y215990D01*
X267439Y216081D01*
X267427Y216111D01*
X267422Y216143D01*
X267379Y216223D01*
X267343Y216307D01*
X267317Y216339D01*
X267306Y216360D01*
X267283Y216382D01*
X267238Y216438D01*
X254538Y229138D01*
X254464Y229191D01*
X254395Y229251D01*
X254365Y229263D01*
X254339Y229282D01*
X254252Y229309D01*
X254167Y229343D01*
X254126Y229347D01*
X254103Y229354D01*
X254071Y229353D01*
X254000Y229361D01*
X228600Y229361D01*
X228510Y229347D01*
X228419Y229339D01*
X228389Y229327D01*
X228357Y229322D01*
X228277Y229279D01*
X228193Y229243D01*
X228161Y229217D01*
X228140Y229206D01*
X228118Y229183D01*
X228062Y229138D01*
X189962Y191038D01*
X189909Y190964D01*
X189849Y190895D01*
X189837Y190865D01*
X189818Y190839D01*
X189791Y190752D01*
X189757Y190667D01*
X189753Y190626D01*
X189746Y190603D01*
X189747Y190571D01*
X189739Y190500D01*
X189739Y178115D01*
X164785Y153161D01*
X115061Y153161D01*
X115061Y202885D01*
X127538Y215362D01*
X127591Y215436D01*
X127651Y215505D01*
X127663Y215535D01*
X127682Y215561D01*
X127709Y215648D01*
X127743Y215733D01*
X127747Y215774D01*
X127754Y215797D01*
X127753Y215829D01*
X127761Y215900D01*
X127761Y228600D01*
X127747Y228690D01*
X127739Y228781D01*
X127727Y228811D01*
X127722Y228843D01*
X127679Y228923D01*
X127643Y229007D01*
X127617Y229039D01*
X127606Y229060D01*
X127583Y229082D01*
X127538Y229138D01*
X114838Y241838D01*
X114764Y241891D01*
X114695Y241951D01*
X114665Y241963D01*
X114639Y241982D01*
X114552Y242009D01*
X114467Y242043D01*
X114426Y242047D01*
X114403Y242054D01*
X114371Y242053D01*
X114300Y242061D01*
X88900Y242061D01*
X88810Y242047D01*
X88719Y242039D01*
X88689Y242027D01*
X88657Y242022D01*
X88577Y241979D01*
X88493Y241943D01*
X88461Y241917D01*
X88440Y241906D01*
X88418Y241883D01*
X88362Y241838D01*
X75662Y229138D01*
X75609Y229064D01*
X75549Y228995D01*
X75537Y228965D01*
X75518Y228939D01*
X75491Y228852D01*
X75457Y228767D01*
X75453Y228726D01*
X75446Y228703D01*
X75447Y228671D01*
X75439Y228600D01*
X75439Y215900D01*
X75454Y215810D01*
X75461Y215719D01*
X75473Y215689D01*
X75479Y215657D01*
X75521Y215577D01*
X75557Y215493D01*
X75583Y215461D01*
X75594Y215440D01*
X75617Y215418D01*
X75662Y215362D01*
X88139Y202885D01*
X88139Y152715D01*
X75662Y140238D01*
X75609Y140164D01*
X75549Y140095D01*
X75537Y140065D01*
X75518Y140039D01*
X75491Y139952D01*
X75457Y139867D01*
X75453Y139826D01*
X75446Y139803D01*
X75447Y139771D01*
X75439Y139700D01*
X75439Y127000D01*
X75454Y126910D01*
X75461Y126819D01*
X75473Y126789D01*
X75479Y126757D01*
X75521Y126677D01*
X75557Y126593D01*
X75583Y126561D01*
X75594Y126540D01*
X75617Y126518D01*
X75662Y126462D01*
X88362Y113762D01*
X88436Y113709D01*
X88505Y113649D01*
X88535Y113637D01*
X88561Y113618D01*
X88648Y113591D01*
X88733Y113557D01*
X88774Y113553D01*
X88797Y113546D01*
X88829Y113547D01*
X88900Y113539D01*
X127000Y113539D01*
X127090Y113554D01*
G37*
G36*
X241390Y316754D02*
X241390Y316754D01*
X241481Y316761D01*
X241511Y316773D01*
X241543Y316779D01*
X241623Y316821D01*
X241707Y316857D01*
X241739Y316883D01*
X241760Y316894D01*
X241782Y316917D01*
X241838Y316962D01*
X254538Y329662D01*
X254591Y329736D01*
X254651Y329805D01*
X254663Y329835D01*
X254682Y329861D01*
X254709Y329948D01*
X254743Y330033D01*
X254747Y330074D01*
X254754Y330097D01*
X254753Y330129D01*
X254761Y330200D01*
X254761Y342900D01*
X254747Y342990D01*
X254739Y343081D01*
X254727Y343111D01*
X254722Y343143D01*
X254679Y343223D01*
X254643Y343307D01*
X254617Y343339D01*
X254606Y343360D01*
X254583Y343382D01*
X254538Y343438D01*
X241838Y356138D01*
X241764Y356191D01*
X241695Y356251D01*
X241665Y356263D01*
X241639Y356282D01*
X241552Y356309D01*
X241467Y356343D01*
X241426Y356347D01*
X241403Y356354D01*
X241371Y356353D01*
X241300Y356361D01*
X216215Y356361D01*
X114838Y457738D01*
X114764Y457791D01*
X114695Y457851D01*
X114665Y457863D01*
X114639Y457882D01*
X114552Y457909D01*
X114467Y457943D01*
X114426Y457947D01*
X114403Y457954D01*
X114371Y457953D01*
X114300Y457961D01*
X88900Y457961D01*
X88810Y457947D01*
X88719Y457939D01*
X88689Y457927D01*
X88657Y457922D01*
X88577Y457879D01*
X88493Y457843D01*
X88461Y457817D01*
X88440Y457806D01*
X88418Y457783D01*
X88362Y457738D01*
X75662Y445038D01*
X75609Y444964D01*
X75549Y444895D01*
X75537Y444865D01*
X75518Y444839D01*
X75491Y444752D01*
X75457Y444667D01*
X75453Y444626D01*
X75446Y444603D01*
X75447Y444571D01*
X75439Y444500D01*
X75439Y431800D01*
X75454Y431710D01*
X75461Y431619D01*
X75473Y431589D01*
X75479Y431557D01*
X75521Y431477D01*
X75557Y431393D01*
X75583Y431361D01*
X75594Y431340D01*
X75617Y431318D01*
X75662Y431262D01*
X88362Y418562D01*
X88436Y418509D01*
X88505Y418449D01*
X88535Y418437D01*
X88561Y418418D01*
X88648Y418391D01*
X88733Y418357D01*
X88774Y418353D01*
X88797Y418346D01*
X88829Y418347D01*
X88900Y418339D01*
X113985Y418339D01*
X215362Y316962D01*
X215436Y316909D01*
X215505Y316849D01*
X215535Y316837D01*
X215561Y316818D01*
X215648Y316791D01*
X215733Y316757D01*
X215774Y316753D01*
X215797Y316746D01*
X215829Y316747D01*
X215900Y316739D01*
X241300Y316739D01*
X241390Y316754D01*
G37*
G36*
X114390Y265954D02*
X114390Y265954D01*
X114481Y265961D01*
X114511Y265973D01*
X114543Y265979D01*
X114623Y266021D01*
X114707Y266057D01*
X114739Y266083D01*
X114760Y266094D01*
X114782Y266117D01*
X114838Y266162D01*
X127538Y278862D01*
X127591Y278936D01*
X127651Y279005D01*
X127663Y279035D01*
X127682Y279061D01*
X127709Y279148D01*
X127743Y279233D01*
X127747Y279274D01*
X127754Y279297D01*
X127753Y279329D01*
X127761Y279400D01*
X127761Y292100D01*
X127747Y292190D01*
X127739Y292281D01*
X127727Y292311D01*
X127722Y292343D01*
X127679Y292423D01*
X127643Y292507D01*
X127617Y292539D01*
X127606Y292560D01*
X127583Y292582D01*
X127538Y292638D01*
X115061Y305115D01*
X115061Y367985D01*
X127538Y380462D01*
X127591Y380536D01*
X127651Y380605D01*
X127663Y380635D01*
X127682Y380661D01*
X127709Y380748D01*
X127743Y380833D01*
X127747Y380874D01*
X127754Y380897D01*
X127753Y380929D01*
X127761Y381000D01*
X127761Y393700D01*
X127747Y393790D01*
X127739Y393881D01*
X127727Y393911D01*
X127722Y393943D01*
X127679Y394023D01*
X127643Y394107D01*
X127617Y394139D01*
X127606Y394160D01*
X127583Y394182D01*
X127538Y394238D01*
X114838Y406938D01*
X114764Y406991D01*
X114695Y407051D01*
X114665Y407063D01*
X114639Y407082D01*
X114552Y407109D01*
X114467Y407143D01*
X114426Y407147D01*
X114403Y407154D01*
X114371Y407153D01*
X114300Y407161D01*
X88900Y407161D01*
X88810Y407147D01*
X88719Y407139D01*
X88689Y407127D01*
X88657Y407122D01*
X88577Y407079D01*
X88493Y407043D01*
X88461Y407017D01*
X88440Y407006D01*
X88418Y406983D01*
X88362Y406938D01*
X75662Y394238D01*
X75609Y394164D01*
X75549Y394095D01*
X75537Y394065D01*
X75518Y394039D01*
X75491Y393952D01*
X75457Y393867D01*
X75453Y393826D01*
X75446Y393803D01*
X75447Y393771D01*
X75439Y393700D01*
X75439Y381000D01*
X75454Y380910D01*
X75461Y380819D01*
X75473Y380789D01*
X75479Y380757D01*
X75521Y380677D01*
X75557Y380593D01*
X75583Y380561D01*
X75594Y380540D01*
X75617Y380518D01*
X75662Y380462D01*
X88139Y367985D01*
X88139Y305115D01*
X75662Y292638D01*
X75609Y292564D01*
X75549Y292495D01*
X75537Y292465D01*
X75518Y292439D01*
X75491Y292352D01*
X75457Y292267D01*
X75453Y292226D01*
X75446Y292203D01*
X75447Y292171D01*
X75439Y292100D01*
X75439Y279400D01*
X75454Y279310D01*
X75461Y279219D01*
X75473Y279189D01*
X75479Y279157D01*
X75521Y279077D01*
X75557Y278993D01*
X75583Y278961D01*
X75594Y278940D01*
X75617Y278918D01*
X75662Y278862D01*
X88362Y266162D01*
X88436Y266109D01*
X88505Y266049D01*
X88535Y266037D01*
X88561Y266018D01*
X88648Y265991D01*
X88733Y265957D01*
X88774Y265953D01*
X88797Y265946D01*
X88829Y265947D01*
X88900Y265939D01*
X114300Y265939D01*
X114390Y265954D01*
G37*
G36*
X673187Y56147D02*
X673187Y56147D01*
X673274Y56150D01*
X673327Y56167D01*
X673382Y56175D01*
X673461Y56210D01*
X673545Y56237D01*
X673584Y56265D01*
X673641Y56291D01*
X673754Y56387D01*
X673818Y56432D01*
X680168Y62782D01*
X680220Y62852D01*
X680280Y62916D01*
X680306Y62965D01*
X680339Y63009D01*
X680370Y63091D01*
X680410Y63169D01*
X680418Y63217D01*
X680440Y63275D01*
X680452Y63423D01*
X680465Y63500D01*
X680465Y120230D01*
X686221Y125985D01*
X695960Y125985D01*
X696018Y125993D01*
X696076Y125991D01*
X696158Y126013D01*
X696242Y126025D01*
X696295Y126049D01*
X696351Y126063D01*
X696424Y126106D01*
X696501Y126141D01*
X696546Y126179D01*
X696596Y126209D01*
X696654Y126270D01*
X696718Y126325D01*
X696750Y126373D01*
X696790Y126416D01*
X696829Y126491D01*
X696876Y126561D01*
X696893Y126617D01*
X696920Y126669D01*
X696931Y126737D01*
X696961Y126832D01*
X696964Y126932D01*
X696975Y127000D01*
X696975Y146050D01*
X696967Y146108D01*
X696969Y146166D01*
X696947Y146248D01*
X696935Y146332D01*
X696912Y146385D01*
X696897Y146441D01*
X696854Y146514D01*
X696819Y146591D01*
X696781Y146636D01*
X696752Y146686D01*
X696690Y146744D01*
X696636Y146808D01*
X696587Y146840D01*
X696544Y146880D01*
X696469Y146919D01*
X696399Y146966D01*
X696343Y146983D01*
X696291Y147010D01*
X696223Y147021D01*
X696128Y147051D01*
X696028Y147054D01*
X695960Y147065D01*
X679450Y147065D01*
X679363Y147053D01*
X679276Y147050D01*
X679223Y147033D01*
X679169Y147025D01*
X679089Y146990D01*
X679005Y146963D01*
X678966Y146935D01*
X678909Y146909D01*
X678796Y146813D01*
X678732Y146768D01*
X653332Y121368D01*
X653280Y121298D01*
X653220Y121234D01*
X653194Y121185D01*
X653161Y121141D01*
X653130Y121059D01*
X653090Y120981D01*
X653082Y120934D01*
X653060Y120875D01*
X653048Y120727D01*
X653035Y120650D01*
X653035Y63500D01*
X653047Y63413D01*
X653050Y63326D01*
X653067Y63273D01*
X653075Y63219D01*
X653110Y63139D01*
X653137Y63055D01*
X653165Y63016D01*
X653191Y62959D01*
X653287Y62846D01*
X653332Y62782D01*
X659682Y56432D01*
X659752Y56380D01*
X659816Y56320D01*
X659865Y56294D01*
X659909Y56261D01*
X659991Y56230D01*
X660069Y56190D01*
X660117Y56182D01*
X660175Y56160D01*
X660323Y56148D01*
X660400Y56135D01*
X673100Y56135D01*
X673187Y56147D01*
G37*
%LPC*%
G36*
X103123Y432923D02*
X103123Y432923D01*
X103123Y442191D01*
X110184Y442191D01*
X110831Y442018D01*
X111410Y441683D01*
X111883Y441210D01*
X112218Y440631D01*
X112391Y439984D01*
X112391Y432923D01*
X103123Y432923D01*
G37*
%LPD*%
%LPC*%
G36*
X103123Y280523D02*
X103123Y280523D01*
X103123Y289791D01*
X110184Y289791D01*
X110831Y289618D01*
X111410Y289283D01*
X111883Y288810D01*
X112218Y288231D01*
X112391Y287584D01*
X112391Y280523D01*
X103123Y280523D01*
G37*
%LPD*%
%LPC*%
G36*
X105470Y87555D02*
X105470Y87555D01*
X105470Y96823D01*
X112531Y96823D01*
X113178Y96650D01*
X113757Y96315D01*
X114230Y95842D01*
X114565Y95263D01*
X114738Y94617D01*
X114738Y87555D01*
X105470Y87555D01*
G37*
%LPD*%
%LPC*%
G36*
X90809Y432923D02*
X90809Y432923D01*
X90809Y439984D01*
X90982Y440631D01*
X91317Y441210D01*
X91790Y441683D01*
X92369Y442018D01*
X93016Y442191D01*
X100077Y442191D01*
X100077Y432923D01*
X90809Y432923D01*
G37*
%LPD*%
%LPC*%
G36*
X103123Y420609D02*
X103123Y420609D01*
X103123Y429877D01*
X112391Y429877D01*
X112391Y422816D01*
X112218Y422169D01*
X111883Y421590D01*
X111410Y421117D01*
X110831Y420782D01*
X110184Y420609D01*
X103123Y420609D01*
G37*
%LPD*%
%LPC*%
G36*
X90809Y280523D02*
X90809Y280523D01*
X90809Y287584D01*
X90982Y288231D01*
X91317Y288810D01*
X91790Y289283D01*
X92369Y289618D01*
X93016Y289791D01*
X100077Y289791D01*
X100077Y280523D01*
X90809Y280523D01*
G37*
%LPD*%
%LPC*%
G36*
X103123Y268209D02*
X103123Y268209D01*
X103123Y277477D01*
X112391Y277477D01*
X112391Y270416D01*
X112218Y269769D01*
X111883Y269190D01*
X111410Y268717D01*
X110831Y268382D01*
X110184Y268209D01*
X103123Y268209D01*
G37*
%LPD*%
%LPC*%
G36*
X93156Y87555D02*
X93156Y87555D01*
X93156Y94617D01*
X93329Y95263D01*
X93664Y95842D01*
X94137Y96315D01*
X94716Y96650D01*
X95362Y96823D01*
X102424Y96823D01*
X102424Y87555D01*
X93156Y87555D01*
G37*
%LPD*%
%LPC*%
G36*
X105470Y75241D02*
X105470Y75241D01*
X105470Y84509D01*
X114738Y84509D01*
X114738Y77448D01*
X114565Y76801D01*
X114230Y76222D01*
X113757Y75749D01*
X113178Y75415D01*
X112531Y75241D01*
X105470Y75241D01*
G37*
%LPD*%
%LPC*%
G36*
X93016Y420609D02*
X93016Y420609D01*
X92369Y420782D01*
X91790Y421117D01*
X91317Y421590D01*
X90982Y422169D01*
X90809Y422816D01*
X90809Y429877D01*
X100077Y429877D01*
X100077Y420609D01*
X93016Y420609D01*
G37*
%LPD*%
%LPC*%
G36*
X95362Y75241D02*
X95362Y75241D01*
X94716Y75415D01*
X94137Y75749D01*
X93664Y76222D01*
X93329Y76801D01*
X93156Y77448D01*
X93156Y84509D01*
X102424Y84509D01*
X102424Y75241D01*
X95362Y75241D01*
G37*
%LPD*%
%LPC*%
G36*
X93016Y268209D02*
X93016Y268209D01*
X92369Y268382D01*
X91790Y268717D01*
X91317Y269190D01*
X90982Y269769D01*
X90809Y270416D01*
X90809Y277477D01*
X100077Y277477D01*
X100077Y268209D01*
X93016Y268209D01*
G37*
%LPD*%
%LPC*%
G36*
X242724Y160022D02*
X242724Y160022D01*
X242724Y168579D01*
X249075Y168579D01*
X249722Y168406D01*
X250301Y168072D01*
X250774Y167599D01*
X251109Y167019D01*
X251282Y166373D01*
X251282Y160022D01*
X242724Y160022D01*
G37*
%LPD*%
%LPC*%
G36*
X242724Y210024D02*
X242724Y210024D01*
X242724Y218582D01*
X249075Y218582D01*
X249722Y218409D01*
X250301Y218074D01*
X250774Y217601D01*
X251109Y217022D01*
X251282Y216375D01*
X251282Y210024D01*
X242724Y210024D01*
G37*
%LPD*%
%LPC*%
G36*
X231120Y160022D02*
X231120Y160022D01*
X231120Y166373D01*
X231293Y167019D01*
X231628Y167599D01*
X232101Y168072D01*
X232680Y168406D01*
X233326Y168579D01*
X239678Y168579D01*
X239678Y160022D01*
X231120Y160022D01*
G37*
%LPD*%
%LPC*%
G36*
X231120Y210024D02*
X231120Y210024D01*
X231120Y216375D01*
X231293Y217022D01*
X231628Y217601D01*
X232101Y218074D01*
X232680Y218409D01*
X233326Y218582D01*
X239678Y218582D01*
X239678Y210024D01*
X231120Y210024D01*
G37*
%LPD*%
%LPC*%
G36*
X242724Y148418D02*
X242724Y148418D01*
X242724Y156975D01*
X251282Y156975D01*
X251282Y150624D01*
X251109Y149978D01*
X250774Y149398D01*
X250301Y148925D01*
X249722Y148591D01*
X249075Y148418D01*
X242724Y148418D01*
G37*
%LPD*%
%LPC*%
G36*
X242724Y198420D02*
X242724Y198420D01*
X242724Y206978D01*
X251282Y206978D01*
X251282Y200626D01*
X251109Y199980D01*
X250774Y199401D01*
X250301Y198928D01*
X249722Y198593D01*
X249075Y198420D01*
X242724Y198420D01*
G37*
%LPD*%
%LPC*%
G36*
X233326Y148418D02*
X233326Y148418D01*
X232680Y148591D01*
X232101Y148925D01*
X231628Y149398D01*
X231293Y149978D01*
X231120Y150624D01*
X231120Y156975D01*
X239678Y156975D01*
X239678Y148418D01*
X233326Y148418D01*
G37*
%LPD*%
%LPC*%
G36*
X233326Y198420D02*
X233326Y198420D01*
X232680Y198593D01*
X232101Y198928D01*
X231628Y199401D01*
X231293Y199980D01*
X231120Y200626D01*
X231120Y206978D01*
X239678Y206978D01*
X239678Y198420D01*
X233326Y198420D01*
G37*
%LPD*%
%LPC*%
G36*
X103123Y230523D02*
X103123Y230523D01*
X103123Y239684D01*
X104127Y239525D01*
X105742Y239000D01*
X107255Y238229D01*
X108630Y237231D01*
X109831Y236030D01*
X110829Y234655D01*
X111600Y233142D01*
X112125Y231527D01*
X112284Y230523D01*
X103123Y230523D01*
G37*
%LPD*%
%LPC*%
G36*
X105470Y137555D02*
X105470Y137555D01*
X105470Y146716D01*
X106474Y146557D01*
X108089Y146032D01*
X109602Y145261D01*
X110977Y144263D01*
X112178Y143062D01*
X113176Y141688D01*
X113947Y140174D01*
X114472Y138559D01*
X114631Y137555D01*
X105470Y137555D01*
G37*
%LPD*%
%LPC*%
G36*
X103123Y382923D02*
X103123Y382923D01*
X103123Y392084D01*
X104127Y391925D01*
X105742Y391400D01*
X107255Y390629D01*
X108630Y389631D01*
X109831Y388430D01*
X110829Y387055D01*
X111600Y385542D01*
X112125Y383927D01*
X112284Y382923D01*
X103123Y382923D01*
G37*
%LPD*%
%LPC*%
G36*
X90916Y230523D02*
X90916Y230523D01*
X91075Y231527D01*
X91600Y233142D01*
X92371Y234655D01*
X93369Y236030D01*
X94570Y237231D01*
X95945Y238229D01*
X97458Y239000D01*
X99073Y239525D01*
X100077Y239684D01*
X100077Y230523D01*
X90916Y230523D01*
G37*
%LPD*%
%LPC*%
G36*
X103123Y227477D02*
X103123Y227477D01*
X112284Y227477D01*
X112125Y226473D01*
X111600Y224858D01*
X110829Y223345D01*
X109831Y221970D01*
X108630Y220769D01*
X107255Y219771D01*
X105742Y219000D01*
X104127Y218475D01*
X103123Y218316D01*
X103123Y227477D01*
G37*
%LPD*%
%LPC*%
G36*
X103123Y379877D02*
X103123Y379877D01*
X112284Y379877D01*
X112125Y378873D01*
X111600Y377258D01*
X110829Y375745D01*
X109831Y374370D01*
X108630Y373169D01*
X107255Y372171D01*
X105742Y371400D01*
X104127Y370875D01*
X103123Y370716D01*
X103123Y379877D01*
G37*
%LPD*%
%LPC*%
G36*
X90916Y382923D02*
X90916Y382923D01*
X91075Y383927D01*
X91600Y385542D01*
X92371Y387055D01*
X93369Y388430D01*
X94570Y389631D01*
X95945Y390629D01*
X97458Y391400D01*
X99073Y391925D01*
X100077Y392084D01*
X100077Y382923D01*
X90916Y382923D01*
G37*
%LPD*%
%LPC*%
G36*
X93263Y137555D02*
X93263Y137555D01*
X93422Y138559D01*
X93947Y140174D01*
X94718Y141688D01*
X95716Y143062D01*
X96917Y144263D01*
X98291Y145261D01*
X99805Y146032D01*
X101420Y146557D01*
X102424Y146716D01*
X102424Y137555D01*
X93263Y137555D01*
G37*
%LPD*%
%LPC*%
G36*
X105470Y134509D02*
X105470Y134509D01*
X114631Y134509D01*
X114472Y133505D01*
X113947Y131890D01*
X113176Y130377D01*
X112178Y129002D01*
X110977Y127802D01*
X109602Y126803D01*
X108089Y126032D01*
X106474Y125507D01*
X105470Y125348D01*
X105470Y134509D01*
G37*
%LPD*%
%LPC*%
G36*
X99073Y370875D02*
X99073Y370875D01*
X97458Y371400D01*
X95945Y372171D01*
X94570Y373169D01*
X93369Y374370D01*
X92371Y375745D01*
X91600Y377258D01*
X91075Y378873D01*
X90916Y379877D01*
X100077Y379877D01*
X100077Y370716D01*
X99073Y370875D01*
G37*
%LPD*%
%LPC*%
G36*
X99073Y218475D02*
X99073Y218475D01*
X97458Y219000D01*
X95945Y219771D01*
X94570Y220769D01*
X93369Y221970D01*
X92371Y223345D01*
X91600Y224858D01*
X91075Y226473D01*
X90916Y227477D01*
X100077Y227477D01*
X100077Y218316D01*
X99073Y218475D01*
G37*
%LPD*%
%LPC*%
G36*
X101420Y125507D02*
X101420Y125507D01*
X99805Y126032D01*
X98291Y126803D01*
X96917Y127802D01*
X95716Y129002D01*
X94718Y130377D01*
X93947Y131890D01*
X93422Y133505D01*
X93263Y134509D01*
X102424Y134509D01*
X102424Y125348D01*
X101420Y125507D01*
G37*
%LPD*%
%LPC*%
G36*
X367523Y396423D02*
X367523Y396423D01*
X367523Y404359D01*
X368243Y404245D01*
X369678Y403779D01*
X371021Y403094D01*
X372242Y402208D01*
X373308Y401142D01*
X374194Y399921D01*
X374879Y398578D01*
X375345Y397143D01*
X375459Y396423D01*
X367523Y396423D01*
G37*
%LPD*%
%LPC*%
G36*
X227523Y336423D02*
X227523Y336423D01*
X227523Y344359D01*
X228243Y344245D01*
X229678Y343779D01*
X231021Y343094D01*
X232242Y342208D01*
X233308Y341142D01*
X234194Y339921D01*
X234879Y338578D01*
X235345Y337143D01*
X235459Y336423D01*
X227523Y336423D01*
G37*
%LPD*%
%LPC*%
G36*
X356541Y396423D02*
X356541Y396423D01*
X356655Y397143D01*
X357121Y398578D01*
X357806Y399921D01*
X358692Y401142D01*
X359758Y402208D01*
X360979Y403094D01*
X362322Y403779D01*
X363757Y404245D01*
X364477Y404359D01*
X364477Y396423D01*
X356541Y396423D01*
G37*
%LPD*%
%LPC*%
G36*
X227523Y333377D02*
X227523Y333377D01*
X235459Y333377D01*
X235345Y332657D01*
X234879Y331222D01*
X234194Y329879D01*
X233308Y328658D01*
X232242Y327592D01*
X231021Y326706D01*
X229678Y326021D01*
X228243Y325555D01*
X227523Y325441D01*
X227523Y333377D01*
G37*
%LPD*%
%LPC*%
G36*
X216541Y336423D02*
X216541Y336423D01*
X216655Y337143D01*
X217121Y338578D01*
X217806Y339921D01*
X218692Y341142D01*
X219758Y342208D01*
X220979Y343094D01*
X222322Y343779D01*
X223757Y344245D01*
X224477Y344359D01*
X224477Y336423D01*
X216541Y336423D01*
G37*
%LPD*%
%LPC*%
G36*
X367523Y393377D02*
X367523Y393377D01*
X375459Y393377D01*
X375345Y392657D01*
X374879Y391222D01*
X374194Y389879D01*
X373308Y388658D01*
X372242Y387592D01*
X371021Y386706D01*
X369678Y386021D01*
X368243Y385555D01*
X367523Y385441D01*
X367523Y393377D01*
G37*
%LPD*%
%LPC*%
G36*
X223757Y325555D02*
X223757Y325555D01*
X222322Y326021D01*
X220979Y326706D01*
X219758Y327592D01*
X218692Y328658D01*
X217806Y329879D01*
X217121Y331222D01*
X216655Y332657D01*
X216541Y333377D01*
X224477Y333377D01*
X224477Y325441D01*
X223757Y325555D01*
G37*
%LPD*%
%LPC*%
G36*
X363757Y385555D02*
X363757Y385555D01*
X362322Y386021D01*
X360979Y386706D01*
X359758Y387592D01*
X358692Y388658D01*
X357806Y389879D01*
X357121Y391222D01*
X356655Y392657D01*
X356541Y393377D01*
X364477Y393377D01*
X364477Y385441D01*
X363757Y385555D01*
G37*
%LPD*%
%LPC*%
G36*
X101599Y431399D02*
X101599Y431399D01*
X101599Y431401D01*
X101601Y431401D01*
X101601Y431399D01*
X101599Y431399D01*
G37*
%LPD*%
%LPC*%
G36*
X365999Y394899D02*
X365999Y394899D01*
X365999Y394901D01*
X366001Y394901D01*
X366001Y394899D01*
X365999Y394899D01*
G37*
%LPD*%
%LPC*%
G36*
X101599Y228999D02*
X101599Y228999D01*
X101599Y229001D01*
X101601Y229001D01*
X101601Y228999D01*
X101599Y228999D01*
G37*
%LPD*%
%LPC*%
G36*
X225999Y334899D02*
X225999Y334899D01*
X225999Y334901D01*
X226001Y334901D01*
X226001Y334899D01*
X225999Y334899D01*
G37*
%LPD*%
%LPC*%
G36*
X241200Y208500D02*
X241200Y208500D01*
X241200Y208502D01*
X241202Y208502D01*
X241202Y208500D01*
X241200Y208500D01*
G37*
%LPD*%
%LPC*%
G36*
X101599Y278999D02*
X101599Y278999D01*
X101599Y279001D01*
X101601Y279001D01*
X101601Y278999D01*
X101599Y278999D01*
G37*
%LPD*%
%LPC*%
G36*
X241200Y158498D02*
X241200Y158498D01*
X241200Y158499D01*
X241202Y158499D01*
X241202Y158498D01*
X241200Y158498D01*
G37*
%LPD*%
%LPC*%
G36*
X101599Y381399D02*
X101599Y381399D01*
X101599Y381401D01*
X101601Y381401D01*
X101601Y381399D01*
X101599Y381399D01*
G37*
%LPD*%
%LPC*%
G36*
X103946Y136031D02*
X103946Y136031D01*
X103946Y136033D01*
X103948Y136033D01*
X103948Y136031D01*
X103946Y136031D01*
G37*
%LPD*%
%LPC*%
G36*
X103946Y86031D02*
X103946Y86031D01*
X103946Y86033D01*
X103948Y86033D01*
X103948Y86031D01*
X103946Y86031D01*
G37*
%LPD*%
D10*
X698500Y73900D03*
X698500Y103900D03*
X685800Y162800D03*
X685800Y192800D03*
X977900Y154700D03*
X977900Y124700D03*
X774700Y451880D03*
X774700Y421880D03*
D11*
X635000Y76200D03*
X635000Y127000D03*
D12*
X421640Y413800D03*
X421640Y449800D03*
D13*
X850900Y439420D02*
X850900Y424180D01*
X876300Y424180D02*
X876300Y439420D01*
X901700Y439420D02*
X901700Y424180D01*
X927100Y424180D02*
X927100Y439420D01*
X952500Y439420D02*
X952500Y424180D01*
X977900Y424180D02*
X977900Y439420D01*
X1003300Y439420D02*
X1003300Y424180D01*
X1028700Y424180D02*
X1028700Y439420D01*
D14*
X1054100Y248640D03*
X1054100Y213640D03*
X1054100Y274600D03*
X1054100Y309600D03*
X800100Y71400D03*
X800100Y106400D03*
D15*
X1054100Y158500D03*
X1054100Y186940D03*
X457200Y417580D03*
X457200Y446020D03*
X482600Y341380D03*
X482600Y369820D03*
X1054100Y364740D03*
X1054100Y336300D03*
X800100Y268220D03*
X800100Y239780D03*
X800100Y331720D03*
X800100Y303280D03*
X736600Y163580D03*
X736600Y192020D03*
X800100Y395220D03*
X800100Y366780D03*
X927100Y153920D03*
X927100Y125480D03*
X508000Y446020D03*
X508000Y417580D03*
D16*
X977392Y200470D02*
X977392Y182563D01*
X977392Y307531D02*
X977392Y325438D01*
X927608Y200470D02*
X927608Y182563D01*
X927608Y307531D02*
X927608Y325438D01*
D13*
X565404Y339598D02*
X565404Y354838D01*
X610616Y354838D02*
X610616Y339598D01*
X565404Y404622D02*
X565404Y419862D01*
X610616Y419862D02*
X610616Y404622D01*
D17*
X653288Y266700D03*
X718312Y266700D03*
D18*
X838200Y265000D03*
X847700Y243000D03*
X828700Y243000D03*
X838200Y328500D03*
X847700Y306500D03*
X828700Y306500D03*
X838200Y392000D03*
X847700Y370000D03*
X828700Y370000D03*
X431800Y344600D03*
X422300Y366600D03*
X441300Y366600D03*
D19*
X226000Y454900D03*
X346000Y334900D03*
X366000Y394900D03*
X226000Y334900D03*
X346000Y454900D03*
D20*
X660400Y450850D03*
D21*
X660400Y425450D03*
X660400Y400050D03*
X660400Y374650D03*
X736600Y374650D03*
X736600Y400050D03*
X736600Y425450D03*
X736600Y450850D03*
D22*
X241201Y158499D03*
X241201Y208501D03*
X535198Y260497D03*
X535198Y106502D03*
D23*
X103947Y86032D03*
D24*
X103947Y136032D03*
D23*
X101600Y431400D03*
D24*
X101600Y381400D03*
D23*
X101600Y279000D03*
D24*
X101600Y229000D03*
D25*
X749300Y74900D03*
X749300Y102900D03*
D26*
X927100Y107950D02*
X927100Y125480D01*
D27*
X927100Y107950D03*
X977900Y107950D03*
D26*
X977900Y124700D01*
X801650Y107950D02*
X800100Y106400D01*
X801650Y107950D02*
X831850Y107950D01*
D27*
X831850Y107950D03*
D26*
X715250Y103900D02*
X698500Y103900D01*
X715250Y103900D02*
X717550Y101600D01*
D27*
X717550Y101600D03*
D26*
X683500Y190500D02*
X685800Y192800D01*
X683500Y190500D02*
X635000Y190500D01*
D27*
X635000Y190500D03*
D26*
X847700Y370000D02*
X863600Y354100D01*
X863600Y349250D01*
D27*
X863600Y349250D03*
X863600Y304800D03*
D26*
X849400Y304800D01*
X847700Y306500D01*
X847700Y243000D02*
X849400Y241300D01*
X863600Y241300D01*
D27*
X863600Y241300D03*
D26*
X774700Y421880D02*
X808764Y455944D01*
X914400Y455944D01*
X927100Y443244D01*
X927100Y431800D01*
D27*
X457200Y393700D03*
D26*
X457200Y417580D01*
D27*
X425450Y393700D03*
D26*
X421640Y397510D01*
X421640Y413800D01*
X660400Y374650D02*
X660400Y347980D01*
D27*
X660400Y347980D03*
D26*
X1028700Y431800D02*
X1060450Y431800D01*
D27*
X1060450Y431800D03*
D26*
X1013700Y154700D02*
X977900Y154700D01*
X1013700Y154700D02*
X1028700Y139700D01*
D27*
X1028700Y139700D03*
D26*
X698500Y73900D02*
X698500Y50800D01*
D27*
X698500Y50800D03*
X749300Y50800D03*
D26*
X749300Y74900D01*
X685800Y133350D02*
X666750Y114300D01*
X666750Y63500D01*
D27*
X666750Y63500D03*
X660400Y76200D03*
X673100Y76200D03*
D26*
X784860Y462040D02*
X1042910Y462040D01*
X784860Y462040D02*
X774700Y451880D01*
X1042910Y462040D02*
X1073150Y431800D01*
D27*
X1073150Y431800D03*
D26*
X431800Y344600D02*
X431800Y323850D01*
D27*
X431800Y323850D03*
X482600Y323850D03*
D26*
X482600Y341380D01*
X737630Y451880D02*
X774700Y451880D01*
X737630Y451880D02*
X736600Y450850D01*
X977392Y155208D02*
X977900Y154700D01*
X977392Y155208D02*
X977392Y191516D01*
X685800Y162800D02*
X685800Y133350D01*
X685800Y162800D02*
X735820Y162800D01*
X736600Y163580D01*
X1054100Y158500D02*
X1069725Y142875D01*
X1076325Y142875D01*
D27*
X1076325Y142875D03*
D26*
X1054100Y364740D02*
X1054100Y378460D01*
X1068070Y392430D01*
D27*
X1068070Y392430D03*
D26*
X1054100Y213640D02*
X1054100Y186940D01*
X867985Y265000D02*
X838200Y265000D01*
X867985Y265000D02*
X899178Y233807D01*
X1039267Y233807D02*
X1054100Y248640D01*
X1039267Y233807D02*
X899178Y233807D01*
X1054100Y309600D02*
X1054100Y336300D01*
X841580Y325120D02*
X838200Y328500D01*
X841580Y325120D02*
X868680Y325120D01*
X919200Y274600D02*
X1054100Y274600D01*
X919200Y274600D02*
X868680Y325120D01*
X825480Y239780D02*
X800100Y239780D01*
X825480Y239780D02*
X828700Y243000D01*
X825480Y303280D02*
X800100Y303280D01*
X825480Y303280D02*
X828700Y306500D01*
X736600Y322580D02*
X736600Y374650D01*
X790960Y268220D02*
X800100Y268220D01*
X790960Y268220D02*
X736600Y322580D01*
D27*
X701040Y454660D03*
D26*
X701040Y472440D01*
X716280Y487680D01*
D27*
X716280Y487680D03*
D26*
X736600Y400050D02*
X762000Y374650D01*
X762000Y350520D01*
X780800Y331720D01*
X800100Y331720D01*
D27*
X711200Y454660D03*
D26*
X711200Y471142D01*
X734060Y494002D01*
D27*
X734060Y494002D03*
D26*
X718312Y210308D02*
X736600Y192020D01*
X718312Y210308D02*
X718312Y266700D01*
X824660Y392000D02*
X838200Y392000D01*
X824660Y392000D02*
X822960Y393700D01*
D27*
X822960Y393700D03*
D26*
X825480Y366780D02*
X800100Y366780D01*
X825480Y366780D02*
X828700Y370000D01*
X766830Y395220D02*
X736600Y425450D01*
X766830Y395220D02*
X800100Y395220D01*
D27*
X721360Y454660D03*
X749300Y500324D03*
D26*
X740382Y491406D02*
X740382Y491383D01*
X740382Y491406D02*
X749300Y500324D01*
X721360Y472361D02*
X721360Y454660D01*
X721360Y472361D02*
X740382Y491383D01*
X927100Y191008D02*
X927100Y153920D01*
X927100Y191008D02*
X927608Y191516D01*
D27*
X919480Y368300D03*
D26*
X901700Y386080D01*
X901700Y431800D01*
D27*
X690880Y454660D03*
D26*
X690880Y472440D01*
X698500Y480060D01*
D27*
X698500Y480060D03*
D26*
X460780Y386080D02*
X441300Y366600D01*
X476500Y386080D02*
X508000Y417580D01*
X476500Y386080D02*
X460780Y386080D01*
X422300Y366600D02*
X409600Y366600D01*
X377900Y334900D01*
X346000Y334900D01*
X425420Y446020D02*
X457200Y446020D01*
X425420Y446020D02*
X421640Y449800D01*
X421640Y449580D01*
X396240Y424180D01*
X396240Y392660D01*
X422300Y366600D01*
X508000Y446020D02*
X608080Y446020D01*
X609600Y444500D01*
D27*
X609600Y444500D03*
X678180Y457200D03*
D26*
X680720Y459740D01*
X680720Y472440D01*
D27*
X680720Y472440D03*
D26*
X496320Y383540D02*
X482600Y369820D01*
X581914Y383540D02*
X610616Y412242D01*
X581914Y383540D02*
X496320Y383540D01*
X610616Y412242D02*
X649224Y450850D01*
X660400Y450850D01*
X749300Y102900D02*
X763240Y102900D01*
X794740Y71400D02*
X800100Y71400D01*
X794740Y71400D02*
X763240Y102900D01*
M02*
