M48
;GenerationSoftware,Autodesk,EAGLE,9.6.2*%
;CreationDate,2021-01-26T07:53:38Z*%
FMAT,2
ICI,OFF
METRIC,TZ,000.000
T11C0.350
T10C0.813
T9C0.900
T8C0.914
T7C1.000
T6C1.016
T5C1.100
T4C1.118
T3C1.194
T2C1.803
T1C3.300
%
G90
M71
T1
X3810Y3810
X107950Y3810
X107950Y48260
X3810Y48260
T2
X99746Y25400
X90754Y25400
T3
X97739Y19152
X97739Y31648
X92761Y19152
X92761Y31648
T4
X73660Y42545
X73660Y40005
X73660Y37465
X66040Y37465
X66040Y40005
X66040Y42545
X66040Y45085
X73660Y45085
T5
X10395Y13603
X10160Y43140
X10160Y38140
X10160Y27900
X10160Y22900
X10395Y8603
T6
X97790Y43180
X95250Y43180
X92710Y43180
X90170Y43180
X87630Y43180
X85090Y43180
X56540Y34722
X100330Y43180
X61062Y34722
X56540Y41224
X61062Y41224
X102870Y43180
T7
X53520Y10650
X53520Y26050
X24120Y20850
X24120Y15850
T8
X71831Y26670
X65329Y26670
T9
X22600Y45490
X34600Y33490
X22600Y33490
X34600Y45490
X36600Y39490
T10
X63500Y12700
X63500Y7620
T11
X74930Y50032
X72136Y45466
X82296Y39370
X69850Y48006
X73406Y49400
X71120Y45466
X71628Y48768
X70104Y45466
X106807Y39243
X107632Y14287
X48260Y32385
X43180Y32385
X107315Y43180
X67310Y7620
X66040Y7620
X66675Y6350
X74930Y5080
X69850Y5080
X102870Y13970
X106045Y43180
X42545Y39370
X45720Y39370
X86360Y24130
X86360Y30480
X86360Y34925
X66040Y34798
X63500Y19050
X71755Y10160
X83185Y10795
X97790Y10795
X92710Y10795
X68072Y47244
X67818Y45720
X60960Y44450
X69088Y45466
X91948Y36830
M30