G04 EAGLE Gerber RS-274X export*
G75*
%MOMM*%
%FSLAX34Y34*%
%LPD*%
%INSilkscreen Top*%
%IPPOS*%
%AMOC8*
5,1,8,0,0,1.08239X$1,22.5*%
G01*
%ADD10C,0.076200*%
%ADD11C,0.304800*%
%ADD12C,0.152400*%
%ADD13C,0.127000*%
%ADD14C,0.101600*%
%ADD15R,0.325000X0.425000*%
%ADD16R,0.350000X0.350000*%
%ADD17C,0.050800*%
%ADD18R,0.508000X2.159000*%
%ADD19C,0.203200*%
%ADD20C,0.200000*%


D10*
X687119Y77458D02*
X687119Y75369D01*
X687117Y75280D01*
X687111Y75192D01*
X687102Y75104D01*
X687089Y75016D01*
X687072Y74929D01*
X687052Y74843D01*
X687027Y74758D01*
X687000Y74673D01*
X686968Y74590D01*
X686934Y74509D01*
X686895Y74429D01*
X686854Y74351D01*
X686809Y74274D01*
X686761Y74200D01*
X686710Y74127D01*
X686656Y74057D01*
X686598Y73990D01*
X686538Y73924D01*
X686476Y73862D01*
X686410Y73802D01*
X686343Y73744D01*
X686273Y73690D01*
X686200Y73639D01*
X686126Y73591D01*
X686049Y73546D01*
X685971Y73505D01*
X685891Y73466D01*
X685810Y73432D01*
X685727Y73400D01*
X685642Y73373D01*
X685557Y73348D01*
X685471Y73328D01*
X685384Y73311D01*
X685296Y73298D01*
X685208Y73289D01*
X685120Y73283D01*
X685031Y73281D01*
X679809Y73281D01*
X679718Y73283D01*
X679627Y73289D01*
X679536Y73299D01*
X679446Y73313D01*
X679357Y73331D01*
X679268Y73352D01*
X679181Y73378D01*
X679095Y73407D01*
X679010Y73440D01*
X678926Y73477D01*
X678844Y73517D01*
X678765Y73561D01*
X678687Y73608D01*
X678611Y73659D01*
X678537Y73713D01*
X678466Y73770D01*
X678398Y73830D01*
X678332Y73893D01*
X678269Y73959D01*
X678209Y74027D01*
X678152Y74098D01*
X678098Y74172D01*
X678047Y74248D01*
X678000Y74325D01*
X677956Y74405D01*
X677916Y74487D01*
X677879Y74571D01*
X677846Y74655D01*
X677817Y74742D01*
X677791Y74829D01*
X677770Y74918D01*
X677752Y75007D01*
X677738Y75097D01*
X677728Y75188D01*
X677722Y75279D01*
X677720Y75370D01*
X677721Y75369D02*
X677721Y77458D01*
X679809Y80927D02*
X677721Y83537D01*
X687119Y83537D01*
X687119Y80927D02*
X687119Y86148D01*
X674419Y164269D02*
X674419Y166358D01*
X674419Y164269D02*
X674417Y164180D01*
X674411Y164092D01*
X674402Y164004D01*
X674389Y163916D01*
X674372Y163829D01*
X674352Y163743D01*
X674327Y163658D01*
X674300Y163573D01*
X674268Y163490D01*
X674234Y163409D01*
X674195Y163329D01*
X674154Y163251D01*
X674109Y163174D01*
X674061Y163100D01*
X674010Y163027D01*
X673956Y162957D01*
X673898Y162890D01*
X673838Y162824D01*
X673776Y162762D01*
X673710Y162702D01*
X673643Y162644D01*
X673573Y162590D01*
X673500Y162539D01*
X673426Y162491D01*
X673349Y162446D01*
X673271Y162405D01*
X673191Y162366D01*
X673110Y162332D01*
X673027Y162300D01*
X672942Y162273D01*
X672857Y162248D01*
X672771Y162228D01*
X672684Y162211D01*
X672596Y162198D01*
X672508Y162189D01*
X672420Y162183D01*
X672331Y162181D01*
X667109Y162181D01*
X667018Y162183D01*
X666927Y162189D01*
X666836Y162199D01*
X666746Y162213D01*
X666657Y162231D01*
X666568Y162252D01*
X666481Y162278D01*
X666395Y162307D01*
X666310Y162340D01*
X666226Y162377D01*
X666144Y162417D01*
X666065Y162461D01*
X665987Y162508D01*
X665911Y162559D01*
X665837Y162613D01*
X665766Y162670D01*
X665698Y162730D01*
X665632Y162793D01*
X665569Y162859D01*
X665509Y162927D01*
X665452Y162998D01*
X665398Y163072D01*
X665347Y163148D01*
X665300Y163225D01*
X665256Y163305D01*
X665216Y163387D01*
X665179Y163471D01*
X665146Y163555D01*
X665117Y163642D01*
X665091Y163729D01*
X665070Y163818D01*
X665052Y163907D01*
X665038Y163997D01*
X665028Y164088D01*
X665022Y164179D01*
X665020Y164270D01*
X665021Y164269D02*
X665021Y166358D01*
X665021Y171915D02*
X672331Y169827D01*
X672331Y175048D01*
X674419Y173481D02*
X670242Y173481D01*
X998679Y146629D02*
X998679Y144541D01*
X998677Y144452D01*
X998671Y144364D01*
X998662Y144276D01*
X998649Y144188D01*
X998632Y144101D01*
X998612Y144015D01*
X998587Y143930D01*
X998560Y143845D01*
X998528Y143762D01*
X998494Y143681D01*
X998455Y143601D01*
X998414Y143523D01*
X998369Y143446D01*
X998321Y143372D01*
X998270Y143299D01*
X998216Y143229D01*
X998158Y143162D01*
X998098Y143096D01*
X998036Y143034D01*
X997970Y142974D01*
X997903Y142916D01*
X997833Y142862D01*
X997760Y142811D01*
X997686Y142763D01*
X997609Y142718D01*
X997531Y142677D01*
X997451Y142638D01*
X997370Y142604D01*
X997287Y142572D01*
X997202Y142545D01*
X997117Y142520D01*
X997031Y142500D01*
X996944Y142483D01*
X996856Y142470D01*
X996768Y142461D01*
X996680Y142455D01*
X996591Y142453D01*
X996591Y142452D02*
X991369Y142452D01*
X991278Y142454D01*
X991187Y142460D01*
X991096Y142470D01*
X991006Y142484D01*
X990917Y142502D01*
X990828Y142523D01*
X990741Y142549D01*
X990655Y142578D01*
X990570Y142611D01*
X990486Y142648D01*
X990404Y142688D01*
X990325Y142732D01*
X990247Y142779D01*
X990171Y142830D01*
X990097Y142884D01*
X990026Y142941D01*
X989958Y143001D01*
X989892Y143064D01*
X989829Y143130D01*
X989769Y143198D01*
X989712Y143269D01*
X989658Y143343D01*
X989607Y143419D01*
X989560Y143496D01*
X989516Y143576D01*
X989476Y143658D01*
X989439Y143742D01*
X989406Y143826D01*
X989377Y143913D01*
X989351Y144000D01*
X989330Y144089D01*
X989312Y144178D01*
X989298Y144268D01*
X989288Y144359D01*
X989282Y144450D01*
X989280Y144541D01*
X989281Y144541D02*
X989281Y146629D01*
X998679Y150098D02*
X998679Y153231D01*
X998677Y153320D01*
X998671Y153408D01*
X998662Y153496D01*
X998649Y153584D01*
X998632Y153671D01*
X998612Y153757D01*
X998587Y153842D01*
X998560Y153927D01*
X998528Y154010D01*
X998494Y154091D01*
X998455Y154171D01*
X998414Y154249D01*
X998369Y154326D01*
X998321Y154400D01*
X998270Y154473D01*
X998216Y154543D01*
X998158Y154610D01*
X998098Y154676D01*
X998036Y154738D01*
X997970Y154798D01*
X997903Y154856D01*
X997833Y154910D01*
X997760Y154961D01*
X997686Y155009D01*
X997609Y155054D01*
X997531Y155095D01*
X997451Y155134D01*
X997370Y155168D01*
X997287Y155200D01*
X997202Y155227D01*
X997117Y155252D01*
X997031Y155272D01*
X996944Y155289D01*
X996856Y155302D01*
X996768Y155311D01*
X996680Y155317D01*
X996591Y155319D01*
X995546Y155319D01*
X995457Y155317D01*
X995369Y155311D01*
X995281Y155302D01*
X995193Y155289D01*
X995106Y155272D01*
X995020Y155252D01*
X994935Y155227D01*
X994850Y155200D01*
X994767Y155168D01*
X994686Y155134D01*
X994606Y155095D01*
X994528Y155054D01*
X994451Y155009D01*
X994377Y154961D01*
X994304Y154910D01*
X994234Y154856D01*
X994167Y154798D01*
X994101Y154738D01*
X994039Y154676D01*
X993979Y154610D01*
X993921Y154543D01*
X993867Y154473D01*
X993816Y154400D01*
X993768Y154326D01*
X993723Y154249D01*
X993682Y154171D01*
X993643Y154091D01*
X993609Y154010D01*
X993577Y153927D01*
X993550Y153842D01*
X993525Y153757D01*
X993505Y153671D01*
X993488Y153584D01*
X993475Y153496D01*
X993466Y153408D01*
X993460Y153320D01*
X993458Y153231D01*
X993458Y150098D01*
X989281Y150098D01*
X989281Y155319D01*
X795479Y441721D02*
X795479Y443809D01*
X795479Y441721D02*
X795477Y441632D01*
X795471Y441544D01*
X795462Y441456D01*
X795449Y441368D01*
X795432Y441281D01*
X795412Y441195D01*
X795387Y441110D01*
X795360Y441025D01*
X795328Y440942D01*
X795294Y440861D01*
X795255Y440781D01*
X795214Y440703D01*
X795169Y440626D01*
X795121Y440552D01*
X795070Y440479D01*
X795016Y440409D01*
X794958Y440342D01*
X794898Y440276D01*
X794836Y440214D01*
X794770Y440154D01*
X794703Y440096D01*
X794633Y440042D01*
X794560Y439991D01*
X794486Y439943D01*
X794409Y439898D01*
X794331Y439857D01*
X794251Y439818D01*
X794170Y439784D01*
X794087Y439752D01*
X794002Y439725D01*
X793917Y439700D01*
X793831Y439680D01*
X793744Y439663D01*
X793656Y439650D01*
X793568Y439641D01*
X793480Y439635D01*
X793391Y439633D01*
X793391Y439632D02*
X788169Y439632D01*
X788078Y439634D01*
X787987Y439640D01*
X787896Y439650D01*
X787806Y439664D01*
X787717Y439682D01*
X787628Y439703D01*
X787541Y439729D01*
X787455Y439758D01*
X787370Y439791D01*
X787286Y439828D01*
X787204Y439868D01*
X787125Y439912D01*
X787047Y439959D01*
X786971Y440010D01*
X786897Y440064D01*
X786826Y440121D01*
X786758Y440181D01*
X786692Y440244D01*
X786629Y440310D01*
X786569Y440378D01*
X786512Y440449D01*
X786458Y440523D01*
X786407Y440599D01*
X786360Y440676D01*
X786316Y440756D01*
X786276Y440838D01*
X786239Y440922D01*
X786206Y441006D01*
X786177Y441093D01*
X786151Y441180D01*
X786130Y441269D01*
X786112Y441358D01*
X786098Y441448D01*
X786088Y441539D01*
X786082Y441630D01*
X786080Y441721D01*
X786081Y441721D02*
X786081Y443809D01*
X786081Y447278D02*
X787125Y447278D01*
X786081Y447278D02*
X786081Y452499D01*
X795479Y449888D01*
D11*
X635000Y98552D02*
X628650Y98552D01*
X635000Y98552D02*
X641350Y98552D01*
D12*
X635000Y98552D02*
X635000Y86360D01*
D11*
X635000Y104902D02*
X628650Y104902D01*
X635000Y104902D02*
X641350Y104902D01*
D12*
X635000Y104902D02*
X635000Y116840D01*
X612140Y64770D02*
X657860Y64770D01*
X660400Y67310D02*
X660400Y135890D01*
X657860Y138430D02*
X612140Y138430D01*
X609600Y135890D02*
X609600Y67310D01*
X609600Y135890D02*
X609602Y135990D01*
X609608Y136089D01*
X609618Y136189D01*
X609631Y136287D01*
X609649Y136386D01*
X609670Y136483D01*
X609695Y136579D01*
X609724Y136675D01*
X609757Y136769D01*
X609793Y136862D01*
X609833Y136953D01*
X609877Y137043D01*
X609924Y137131D01*
X609974Y137217D01*
X610028Y137301D01*
X610085Y137383D01*
X610145Y137462D01*
X610209Y137540D01*
X610275Y137614D01*
X610344Y137686D01*
X610416Y137755D01*
X610490Y137821D01*
X610568Y137885D01*
X610647Y137945D01*
X610729Y138002D01*
X610813Y138056D01*
X610899Y138106D01*
X610987Y138153D01*
X611077Y138197D01*
X611168Y138237D01*
X611261Y138273D01*
X611355Y138306D01*
X611451Y138335D01*
X611547Y138360D01*
X611644Y138381D01*
X611743Y138399D01*
X611841Y138412D01*
X611941Y138422D01*
X612040Y138428D01*
X612140Y138430D01*
X657860Y138430D02*
X657960Y138428D01*
X658059Y138422D01*
X658159Y138412D01*
X658257Y138399D01*
X658356Y138381D01*
X658453Y138360D01*
X658549Y138335D01*
X658645Y138306D01*
X658739Y138273D01*
X658832Y138237D01*
X658923Y138197D01*
X659013Y138153D01*
X659101Y138106D01*
X659187Y138056D01*
X659271Y138002D01*
X659353Y137945D01*
X659432Y137885D01*
X659510Y137821D01*
X659584Y137755D01*
X659656Y137686D01*
X659725Y137614D01*
X659791Y137540D01*
X659855Y137462D01*
X659915Y137383D01*
X659972Y137301D01*
X660026Y137217D01*
X660076Y137131D01*
X660123Y137043D01*
X660167Y136953D01*
X660207Y136862D01*
X660243Y136769D01*
X660276Y136675D01*
X660305Y136579D01*
X660330Y136483D01*
X660351Y136386D01*
X660369Y136287D01*
X660382Y136189D01*
X660392Y136089D01*
X660398Y135990D01*
X660400Y135890D01*
X660400Y67310D02*
X660398Y67210D01*
X660392Y67111D01*
X660382Y67011D01*
X660369Y66913D01*
X660351Y66814D01*
X660330Y66717D01*
X660305Y66621D01*
X660276Y66525D01*
X660243Y66431D01*
X660207Y66338D01*
X660167Y66247D01*
X660123Y66157D01*
X660076Y66069D01*
X660026Y65983D01*
X659972Y65899D01*
X659915Y65817D01*
X659855Y65738D01*
X659791Y65660D01*
X659725Y65586D01*
X659656Y65514D01*
X659584Y65445D01*
X659510Y65379D01*
X659432Y65315D01*
X659353Y65255D01*
X659271Y65198D01*
X659187Y65144D01*
X659101Y65094D01*
X659013Y65047D01*
X658923Y65003D01*
X658832Y64963D01*
X658739Y64927D01*
X658645Y64894D01*
X658549Y64865D01*
X658453Y64840D01*
X658356Y64819D01*
X658257Y64801D01*
X658159Y64788D01*
X658059Y64778D01*
X657960Y64772D01*
X657860Y64770D01*
X612140Y64770D02*
X612040Y64772D01*
X611941Y64778D01*
X611841Y64788D01*
X611743Y64801D01*
X611644Y64819D01*
X611547Y64840D01*
X611451Y64865D01*
X611355Y64894D01*
X611261Y64927D01*
X611168Y64963D01*
X611077Y65003D01*
X610987Y65047D01*
X610899Y65094D01*
X610813Y65144D01*
X610729Y65198D01*
X610647Y65255D01*
X610568Y65315D01*
X610490Y65379D01*
X610416Y65445D01*
X610344Y65514D01*
X610275Y65586D01*
X610209Y65660D01*
X610145Y65738D01*
X610085Y65817D01*
X610028Y65899D01*
X609974Y65983D01*
X609924Y66069D01*
X609877Y66157D01*
X609833Y66247D01*
X609793Y66338D01*
X609757Y66431D01*
X609724Y66525D01*
X609695Y66621D01*
X609670Y66717D01*
X609649Y66814D01*
X609631Y66913D01*
X609618Y67011D01*
X609608Y67111D01*
X609602Y67210D01*
X609600Y67310D01*
D13*
X606425Y79375D02*
X606425Y81915D01*
X606425Y79375D02*
X606423Y79275D01*
X606417Y79176D01*
X606407Y79076D01*
X606394Y78978D01*
X606376Y78879D01*
X606355Y78782D01*
X606330Y78686D01*
X606301Y78590D01*
X606268Y78496D01*
X606232Y78403D01*
X606192Y78312D01*
X606148Y78222D01*
X606101Y78134D01*
X606051Y78048D01*
X605997Y77964D01*
X605940Y77882D01*
X605880Y77803D01*
X605816Y77725D01*
X605750Y77651D01*
X605681Y77579D01*
X605609Y77510D01*
X605535Y77444D01*
X605457Y77380D01*
X605378Y77320D01*
X605296Y77263D01*
X605212Y77209D01*
X605126Y77159D01*
X605038Y77112D01*
X604948Y77068D01*
X604857Y77028D01*
X604764Y76992D01*
X604670Y76959D01*
X604574Y76930D01*
X604478Y76905D01*
X604381Y76884D01*
X604282Y76866D01*
X604184Y76853D01*
X604084Y76843D01*
X603985Y76837D01*
X603885Y76835D01*
X597535Y76835D01*
X597435Y76837D01*
X597336Y76843D01*
X597236Y76853D01*
X597138Y76866D01*
X597039Y76884D01*
X596942Y76905D01*
X596846Y76930D01*
X596750Y76959D01*
X596656Y76992D01*
X596563Y77028D01*
X596472Y77068D01*
X596382Y77112D01*
X596294Y77159D01*
X596208Y77209D01*
X596124Y77263D01*
X596042Y77320D01*
X595963Y77380D01*
X595885Y77444D01*
X595811Y77510D01*
X595739Y77579D01*
X595670Y77651D01*
X595604Y77725D01*
X595540Y77803D01*
X595480Y77882D01*
X595423Y77964D01*
X595369Y78048D01*
X595319Y78134D01*
X595272Y78222D01*
X595228Y78312D01*
X595188Y78403D01*
X595152Y78496D01*
X595119Y78590D01*
X595090Y78686D01*
X595065Y78782D01*
X595044Y78879D01*
X595026Y78978D01*
X595013Y79076D01*
X595003Y79176D01*
X594997Y79275D01*
X594995Y79375D01*
X594995Y81915D01*
X601345Y88937D02*
X601345Y92747D01*
X601345Y88937D02*
X601343Y88837D01*
X601337Y88738D01*
X601327Y88638D01*
X601314Y88540D01*
X601296Y88441D01*
X601275Y88344D01*
X601250Y88248D01*
X601221Y88152D01*
X601188Y88058D01*
X601152Y87965D01*
X601112Y87874D01*
X601068Y87784D01*
X601021Y87696D01*
X600971Y87610D01*
X600917Y87526D01*
X600860Y87444D01*
X600800Y87365D01*
X600736Y87287D01*
X600670Y87213D01*
X600601Y87141D01*
X600529Y87072D01*
X600455Y87006D01*
X600377Y86942D01*
X600298Y86882D01*
X600216Y86825D01*
X600132Y86771D01*
X600046Y86721D01*
X599958Y86674D01*
X599868Y86630D01*
X599777Y86590D01*
X599684Y86554D01*
X599590Y86521D01*
X599494Y86492D01*
X599398Y86467D01*
X599301Y86446D01*
X599202Y86428D01*
X599104Y86415D01*
X599004Y86405D01*
X598905Y86399D01*
X598805Y86397D01*
X598170Y86397D01*
X598059Y86399D01*
X597949Y86405D01*
X597838Y86414D01*
X597728Y86428D01*
X597619Y86445D01*
X597510Y86466D01*
X597402Y86491D01*
X597295Y86520D01*
X597189Y86552D01*
X597084Y86588D01*
X596981Y86628D01*
X596879Y86671D01*
X596778Y86718D01*
X596679Y86769D01*
X596583Y86822D01*
X596488Y86879D01*
X596395Y86940D01*
X596304Y87003D01*
X596215Y87070D01*
X596129Y87140D01*
X596046Y87213D01*
X595964Y87288D01*
X595886Y87366D01*
X595811Y87448D01*
X595738Y87531D01*
X595668Y87617D01*
X595601Y87706D01*
X595538Y87797D01*
X595477Y87890D01*
X595420Y87984D01*
X595367Y88081D01*
X595316Y88180D01*
X595269Y88281D01*
X595226Y88383D01*
X595186Y88486D01*
X595150Y88591D01*
X595118Y88697D01*
X595089Y88804D01*
X595064Y88912D01*
X595043Y89021D01*
X595026Y89130D01*
X595012Y89240D01*
X595003Y89351D01*
X594997Y89461D01*
X594995Y89572D01*
X594997Y89683D01*
X595003Y89793D01*
X595012Y89904D01*
X595026Y90014D01*
X595043Y90123D01*
X595064Y90232D01*
X595089Y90340D01*
X595118Y90447D01*
X595150Y90553D01*
X595186Y90658D01*
X595226Y90761D01*
X595269Y90863D01*
X595316Y90964D01*
X595367Y91063D01*
X595420Y91160D01*
X595477Y91254D01*
X595538Y91347D01*
X595601Y91438D01*
X595668Y91527D01*
X595738Y91613D01*
X595811Y91696D01*
X595886Y91778D01*
X595964Y91856D01*
X596046Y91931D01*
X596129Y92004D01*
X596215Y92074D01*
X596304Y92141D01*
X596395Y92204D01*
X596488Y92265D01*
X596583Y92322D01*
X596679Y92375D01*
X596778Y92426D01*
X596879Y92473D01*
X596981Y92516D01*
X597084Y92556D01*
X597189Y92592D01*
X597295Y92624D01*
X597402Y92653D01*
X597510Y92678D01*
X597619Y92699D01*
X597728Y92716D01*
X597838Y92730D01*
X597949Y92739D01*
X598059Y92745D01*
X598170Y92747D01*
X601345Y92747D01*
X601485Y92745D01*
X601625Y92739D01*
X601765Y92730D01*
X601904Y92716D01*
X602043Y92699D01*
X602181Y92678D01*
X602319Y92653D01*
X602456Y92624D01*
X602592Y92592D01*
X602727Y92555D01*
X602861Y92515D01*
X602994Y92472D01*
X603126Y92424D01*
X603257Y92374D01*
X603386Y92319D01*
X603513Y92261D01*
X603639Y92200D01*
X603763Y92135D01*
X603885Y92066D01*
X604005Y91995D01*
X604123Y91920D01*
X604240Y91842D01*
X604354Y91760D01*
X604465Y91676D01*
X604574Y91588D01*
X604681Y91498D01*
X604786Y91404D01*
X604887Y91308D01*
X604986Y91209D01*
X605082Y91108D01*
X605176Y91003D01*
X605266Y90896D01*
X605354Y90787D01*
X605438Y90676D01*
X605520Y90562D01*
X605598Y90445D01*
X605673Y90327D01*
X605744Y90207D01*
X605813Y90085D01*
X605878Y89961D01*
X605939Y89835D01*
X605997Y89708D01*
X606052Y89579D01*
X606102Y89448D01*
X606150Y89316D01*
X606193Y89183D01*
X606233Y89049D01*
X606270Y88914D01*
X606302Y88778D01*
X606331Y88641D01*
X606356Y88503D01*
X606377Y88365D01*
X606394Y88226D01*
X606408Y88087D01*
X606417Y87947D01*
X606423Y87807D01*
X606425Y87667D01*
X416877Y428625D02*
X421640Y434975D01*
X421640Y428625D02*
X416877Y428625D01*
X421640Y428625D02*
X426403Y428625D01*
X421640Y434975D01*
X416877Y434975D01*
X421640Y434975D02*
X426403Y434975D01*
X421640Y428625D02*
X421640Y426187D01*
X421640Y434975D02*
X421640Y437413D01*
D14*
X407162Y417068D02*
X395478Y417068D01*
X395478Y420314D01*
X395480Y420427D01*
X395486Y420540D01*
X395496Y420653D01*
X395510Y420766D01*
X395527Y420878D01*
X395549Y420989D01*
X395574Y421099D01*
X395604Y421209D01*
X395637Y421317D01*
X395674Y421424D01*
X395714Y421530D01*
X395759Y421634D01*
X395807Y421737D01*
X395858Y421838D01*
X395913Y421937D01*
X395971Y422034D01*
X396033Y422129D01*
X396098Y422222D01*
X396166Y422312D01*
X396237Y422400D01*
X396312Y422486D01*
X396389Y422569D01*
X396469Y422649D01*
X396552Y422726D01*
X396638Y422801D01*
X396726Y422872D01*
X396816Y422940D01*
X396909Y423005D01*
X397004Y423067D01*
X397101Y423125D01*
X397200Y423180D01*
X397301Y423231D01*
X397404Y423279D01*
X397508Y423324D01*
X397614Y423364D01*
X397721Y423401D01*
X397829Y423434D01*
X397939Y423464D01*
X398049Y423489D01*
X398160Y423511D01*
X398272Y423528D01*
X398385Y423542D01*
X398498Y423552D01*
X398611Y423558D01*
X398724Y423560D01*
X398724Y423559D02*
X403916Y423559D01*
X403916Y423560D02*
X404029Y423558D01*
X404142Y423552D01*
X404255Y423542D01*
X404368Y423528D01*
X404480Y423511D01*
X404591Y423489D01*
X404701Y423464D01*
X404811Y423434D01*
X404919Y423401D01*
X405026Y423364D01*
X405132Y423324D01*
X405236Y423279D01*
X405339Y423231D01*
X405440Y423180D01*
X405539Y423125D01*
X405636Y423067D01*
X405731Y423005D01*
X405824Y422940D01*
X405914Y422872D01*
X406002Y422801D01*
X406088Y422726D01*
X406171Y422649D01*
X406251Y422569D01*
X406328Y422486D01*
X406403Y422400D01*
X406474Y422312D01*
X406542Y422222D01*
X406607Y422129D01*
X406669Y422034D01*
X406727Y421937D01*
X406782Y421838D01*
X406833Y421737D01*
X406881Y421634D01*
X406926Y421530D01*
X406966Y421424D01*
X407003Y421317D01*
X407036Y421209D01*
X407066Y421099D01*
X407091Y420989D01*
X407113Y420878D01*
X407130Y420766D01*
X407144Y420653D01*
X407154Y420540D01*
X407160Y420427D01*
X407162Y420314D01*
X407162Y417068D01*
X398074Y428879D02*
X395478Y432125D01*
X407162Y432125D01*
X407162Y435370D02*
X407162Y428879D01*
D12*
X996950Y444500D02*
X1009650Y444500D01*
X1016000Y438150D01*
X1016000Y425450D01*
X1009650Y419100D01*
X971550Y444500D02*
X965200Y438150D01*
X971550Y444500D02*
X984250Y444500D01*
X990600Y438150D01*
X990600Y425450D01*
X984250Y419100D01*
X971550Y419100D01*
X965200Y425450D01*
X990600Y438150D02*
X996950Y444500D01*
X990600Y425450D02*
X996950Y419100D01*
X1009650Y419100D01*
X933450Y444500D02*
X920750Y444500D01*
X933450Y444500D02*
X939800Y438150D01*
X939800Y425450D01*
X933450Y419100D01*
X939800Y438150D02*
X946150Y444500D01*
X958850Y444500D01*
X965200Y438150D01*
X965200Y425450D01*
X958850Y419100D01*
X946150Y419100D01*
X939800Y425450D01*
X895350Y444500D02*
X889000Y438150D01*
X895350Y444500D02*
X908050Y444500D01*
X914400Y438150D01*
X914400Y425450D01*
X908050Y419100D01*
X895350Y419100D01*
X889000Y425450D01*
X914400Y438150D02*
X920750Y444500D01*
X914400Y425450D02*
X920750Y419100D01*
X933450Y419100D01*
X857250Y444500D02*
X844550Y444500D01*
X857250Y444500D02*
X863600Y438150D01*
X863600Y425450D01*
X857250Y419100D01*
X863600Y438150D02*
X869950Y444500D01*
X882650Y444500D01*
X889000Y438150D01*
X889000Y425450D01*
X882650Y419100D01*
X869950Y419100D01*
X863600Y425450D01*
X838200Y425450D02*
X838200Y438150D01*
X844550Y444500D01*
X838200Y425450D02*
X844550Y419100D01*
X857250Y419100D01*
X1022350Y444500D02*
X1035050Y444500D01*
X1041400Y438150D01*
X1041400Y425450D01*
X1035050Y419100D01*
X1016000Y438150D02*
X1022350Y444500D01*
X1016000Y425450D02*
X1022350Y419100D01*
X1035050Y419100D01*
D13*
X841883Y453263D02*
X841883Y462153D01*
X841883Y453263D02*
X841881Y453163D01*
X841875Y453064D01*
X841865Y452964D01*
X841852Y452866D01*
X841834Y452767D01*
X841813Y452670D01*
X841788Y452574D01*
X841759Y452478D01*
X841726Y452384D01*
X841690Y452291D01*
X841650Y452200D01*
X841606Y452110D01*
X841559Y452022D01*
X841509Y451936D01*
X841455Y451852D01*
X841398Y451770D01*
X841338Y451691D01*
X841274Y451613D01*
X841208Y451539D01*
X841139Y451467D01*
X841067Y451398D01*
X840993Y451332D01*
X840915Y451268D01*
X840836Y451208D01*
X840754Y451151D01*
X840670Y451097D01*
X840584Y451047D01*
X840496Y451000D01*
X840406Y450956D01*
X840315Y450916D01*
X840222Y450880D01*
X840128Y450847D01*
X840032Y450818D01*
X839936Y450793D01*
X839839Y450772D01*
X839740Y450754D01*
X839642Y450741D01*
X839542Y450731D01*
X839443Y450725D01*
X839343Y450723D01*
X838073Y450723D01*
X847863Y450723D02*
X847863Y462153D01*
X851038Y462153D01*
X851149Y462151D01*
X851259Y462145D01*
X851370Y462136D01*
X851480Y462122D01*
X851589Y462105D01*
X851698Y462084D01*
X851806Y462059D01*
X851913Y462030D01*
X852019Y461998D01*
X852124Y461962D01*
X852227Y461922D01*
X852329Y461879D01*
X852430Y461832D01*
X852529Y461781D01*
X852626Y461728D01*
X852720Y461671D01*
X852813Y461610D01*
X852904Y461547D01*
X852993Y461480D01*
X853079Y461410D01*
X853162Y461337D01*
X853244Y461262D01*
X853322Y461184D01*
X853397Y461102D01*
X853470Y461019D01*
X853540Y460933D01*
X853607Y460844D01*
X853670Y460753D01*
X853731Y460660D01*
X853788Y460565D01*
X853841Y460469D01*
X853892Y460370D01*
X853939Y460269D01*
X853982Y460167D01*
X854022Y460064D01*
X854058Y459959D01*
X854090Y459853D01*
X854119Y459746D01*
X854144Y459638D01*
X854165Y459529D01*
X854182Y459420D01*
X854196Y459310D01*
X854205Y459199D01*
X854211Y459089D01*
X854213Y458978D01*
X854211Y458867D01*
X854205Y458757D01*
X854196Y458646D01*
X854182Y458536D01*
X854165Y458427D01*
X854144Y458318D01*
X854119Y458210D01*
X854090Y458103D01*
X854058Y457997D01*
X854022Y457892D01*
X853982Y457789D01*
X853939Y457687D01*
X853892Y457586D01*
X853841Y457487D01*
X853788Y457390D01*
X853731Y457296D01*
X853670Y457203D01*
X853607Y457112D01*
X853540Y457023D01*
X853470Y456937D01*
X853397Y456854D01*
X853322Y456772D01*
X853244Y456694D01*
X853162Y456619D01*
X853079Y456546D01*
X852993Y456476D01*
X852904Y456409D01*
X852813Y456346D01*
X852720Y456285D01*
X852626Y456228D01*
X852529Y456175D01*
X852430Y456124D01*
X852329Y456077D01*
X852227Y456034D01*
X852124Y455994D01*
X852019Y455958D01*
X851913Y455926D01*
X851806Y455897D01*
X851698Y455872D01*
X851589Y455851D01*
X851480Y455834D01*
X851370Y455820D01*
X851259Y455811D01*
X851149Y455805D01*
X851038Y455803D01*
X847863Y455803D01*
X858722Y450723D02*
X862532Y450723D01*
X862632Y450725D01*
X862731Y450731D01*
X862831Y450741D01*
X862929Y450754D01*
X863028Y450772D01*
X863125Y450793D01*
X863221Y450818D01*
X863317Y450847D01*
X863411Y450880D01*
X863504Y450916D01*
X863595Y450956D01*
X863685Y451000D01*
X863773Y451047D01*
X863859Y451097D01*
X863943Y451151D01*
X864025Y451208D01*
X864104Y451268D01*
X864182Y451332D01*
X864256Y451398D01*
X864328Y451467D01*
X864397Y451539D01*
X864463Y451613D01*
X864527Y451691D01*
X864587Y451770D01*
X864644Y451852D01*
X864698Y451936D01*
X864748Y452022D01*
X864795Y452110D01*
X864839Y452200D01*
X864879Y452291D01*
X864915Y452384D01*
X864948Y452478D01*
X864977Y452574D01*
X865002Y452670D01*
X865023Y452767D01*
X865041Y452866D01*
X865054Y452964D01*
X865064Y453064D01*
X865070Y453163D01*
X865072Y453263D01*
X865072Y454533D01*
X865070Y454633D01*
X865064Y454732D01*
X865054Y454832D01*
X865041Y454930D01*
X865023Y455029D01*
X865002Y455126D01*
X864977Y455222D01*
X864948Y455318D01*
X864915Y455412D01*
X864879Y455505D01*
X864839Y455596D01*
X864795Y455686D01*
X864748Y455774D01*
X864698Y455860D01*
X864644Y455944D01*
X864587Y456026D01*
X864527Y456105D01*
X864463Y456183D01*
X864397Y456257D01*
X864328Y456329D01*
X864256Y456398D01*
X864182Y456464D01*
X864104Y456528D01*
X864025Y456588D01*
X863943Y456645D01*
X863859Y456699D01*
X863773Y456749D01*
X863685Y456796D01*
X863595Y456840D01*
X863504Y456880D01*
X863411Y456916D01*
X863317Y456949D01*
X863221Y456978D01*
X863125Y457003D01*
X863028Y457024D01*
X862929Y457042D01*
X862831Y457055D01*
X862731Y457065D01*
X862632Y457071D01*
X862532Y457073D01*
X858722Y457073D01*
X858722Y462153D01*
X865072Y462153D01*
D15*
X1047225Y236765D03*
X1060975Y236765D03*
D16*
X1054100Y232890D03*
D14*
X1067308Y208788D02*
X1078992Y208788D01*
X1078992Y213981D01*
X1078992Y218694D02*
X1078992Y223887D01*
X1078992Y218694D02*
X1067308Y218694D01*
X1067308Y223887D01*
X1072501Y222589D02*
X1072501Y218694D01*
X1067308Y228577D02*
X1078992Y228577D01*
X1067308Y228577D02*
X1067308Y231823D01*
X1067310Y231936D01*
X1067316Y232049D01*
X1067326Y232162D01*
X1067340Y232275D01*
X1067357Y232387D01*
X1067379Y232498D01*
X1067404Y232608D01*
X1067434Y232718D01*
X1067467Y232826D01*
X1067504Y232933D01*
X1067544Y233039D01*
X1067589Y233143D01*
X1067637Y233246D01*
X1067688Y233347D01*
X1067743Y233446D01*
X1067801Y233543D01*
X1067863Y233638D01*
X1067928Y233731D01*
X1067996Y233821D01*
X1068067Y233909D01*
X1068142Y233995D01*
X1068219Y234078D01*
X1068299Y234158D01*
X1068382Y234235D01*
X1068468Y234310D01*
X1068556Y234381D01*
X1068646Y234449D01*
X1068739Y234514D01*
X1068834Y234576D01*
X1068931Y234634D01*
X1069030Y234689D01*
X1069131Y234740D01*
X1069234Y234788D01*
X1069338Y234833D01*
X1069444Y234873D01*
X1069551Y234910D01*
X1069659Y234943D01*
X1069769Y234973D01*
X1069879Y234998D01*
X1069990Y235020D01*
X1070102Y235037D01*
X1070215Y235051D01*
X1070328Y235061D01*
X1070441Y235067D01*
X1070554Y235069D01*
X1075746Y235069D01*
X1075859Y235067D01*
X1075972Y235061D01*
X1076085Y235051D01*
X1076198Y235037D01*
X1076310Y235020D01*
X1076421Y234998D01*
X1076531Y234973D01*
X1076641Y234943D01*
X1076749Y234910D01*
X1076856Y234873D01*
X1076962Y234833D01*
X1077066Y234788D01*
X1077169Y234740D01*
X1077270Y234689D01*
X1077369Y234634D01*
X1077466Y234576D01*
X1077561Y234514D01*
X1077654Y234449D01*
X1077744Y234381D01*
X1077832Y234310D01*
X1077918Y234235D01*
X1078001Y234158D01*
X1078081Y234078D01*
X1078158Y233995D01*
X1078233Y233909D01*
X1078304Y233821D01*
X1078372Y233731D01*
X1078437Y233638D01*
X1078499Y233543D01*
X1078557Y233446D01*
X1078612Y233347D01*
X1078663Y233246D01*
X1078711Y233143D01*
X1078756Y233039D01*
X1078796Y232933D01*
X1078833Y232826D01*
X1078866Y232718D01*
X1078896Y232608D01*
X1078921Y232498D01*
X1078943Y232387D01*
X1078960Y232275D01*
X1078974Y232162D01*
X1078984Y232049D01*
X1078990Y231936D01*
X1078992Y231823D01*
X1078992Y228577D01*
X1069904Y240388D02*
X1067308Y243634D01*
X1078992Y243634D01*
X1078992Y246879D02*
X1078992Y240388D01*
D15*
X1060975Y286475D03*
X1047225Y286475D03*
D16*
X1054100Y290350D03*
D14*
X1067308Y273821D02*
X1078992Y273821D01*
X1078992Y279013D01*
X1078992Y283727D02*
X1078992Y288919D01*
X1078992Y283727D02*
X1067308Y283727D01*
X1067308Y288919D01*
X1072501Y287621D02*
X1072501Y283727D01*
X1067308Y293610D02*
X1078992Y293610D01*
X1067308Y293610D02*
X1067308Y296855D01*
X1067310Y296968D01*
X1067316Y297081D01*
X1067326Y297194D01*
X1067340Y297307D01*
X1067357Y297419D01*
X1067379Y297530D01*
X1067404Y297640D01*
X1067434Y297750D01*
X1067467Y297858D01*
X1067504Y297965D01*
X1067544Y298071D01*
X1067589Y298175D01*
X1067637Y298278D01*
X1067688Y298379D01*
X1067743Y298478D01*
X1067801Y298575D01*
X1067863Y298670D01*
X1067928Y298763D01*
X1067996Y298853D01*
X1068067Y298941D01*
X1068142Y299027D01*
X1068219Y299110D01*
X1068299Y299190D01*
X1068382Y299267D01*
X1068468Y299342D01*
X1068556Y299413D01*
X1068646Y299481D01*
X1068739Y299546D01*
X1068834Y299608D01*
X1068931Y299666D01*
X1069030Y299721D01*
X1069131Y299772D01*
X1069234Y299820D01*
X1069338Y299865D01*
X1069444Y299905D01*
X1069551Y299942D01*
X1069659Y299975D01*
X1069769Y300005D01*
X1069879Y300030D01*
X1069990Y300052D01*
X1070102Y300069D01*
X1070215Y300083D01*
X1070328Y300093D01*
X1070441Y300099D01*
X1070554Y300101D01*
X1075746Y300101D01*
X1075746Y300102D02*
X1075859Y300100D01*
X1075972Y300094D01*
X1076085Y300084D01*
X1076198Y300070D01*
X1076310Y300053D01*
X1076421Y300031D01*
X1076531Y300006D01*
X1076641Y299976D01*
X1076749Y299943D01*
X1076856Y299906D01*
X1076962Y299866D01*
X1077066Y299821D01*
X1077169Y299773D01*
X1077270Y299722D01*
X1077369Y299667D01*
X1077466Y299609D01*
X1077561Y299547D01*
X1077654Y299482D01*
X1077744Y299414D01*
X1077832Y299343D01*
X1077918Y299268D01*
X1078001Y299191D01*
X1078081Y299111D01*
X1078158Y299028D01*
X1078233Y298942D01*
X1078304Y298854D01*
X1078372Y298764D01*
X1078437Y298671D01*
X1078499Y298576D01*
X1078557Y298479D01*
X1078612Y298380D01*
X1078663Y298279D01*
X1078711Y298176D01*
X1078756Y298072D01*
X1078796Y297966D01*
X1078833Y297859D01*
X1078866Y297751D01*
X1078896Y297641D01*
X1078921Y297531D01*
X1078943Y297420D01*
X1078960Y297308D01*
X1078974Y297195D01*
X1078984Y297082D01*
X1078990Y296969D01*
X1078992Y296856D01*
X1078992Y296855D02*
X1078992Y293610D01*
X1067308Y308991D02*
X1067310Y309098D01*
X1067316Y309204D01*
X1067326Y309310D01*
X1067339Y309416D01*
X1067357Y309522D01*
X1067378Y309626D01*
X1067403Y309730D01*
X1067432Y309833D01*
X1067464Y309934D01*
X1067501Y310034D01*
X1067541Y310133D01*
X1067584Y310231D01*
X1067631Y310327D01*
X1067682Y310421D01*
X1067736Y310513D01*
X1067793Y310603D01*
X1067853Y310691D01*
X1067917Y310776D01*
X1067984Y310859D01*
X1068054Y310940D01*
X1068126Y311018D01*
X1068202Y311094D01*
X1068280Y311166D01*
X1068361Y311236D01*
X1068444Y311303D01*
X1068529Y311367D01*
X1068617Y311427D01*
X1068707Y311484D01*
X1068799Y311538D01*
X1068893Y311589D01*
X1068989Y311636D01*
X1069087Y311679D01*
X1069186Y311719D01*
X1069286Y311756D01*
X1069387Y311788D01*
X1069490Y311817D01*
X1069594Y311842D01*
X1069698Y311863D01*
X1069804Y311881D01*
X1069910Y311894D01*
X1070016Y311904D01*
X1070122Y311910D01*
X1070229Y311912D01*
X1067308Y308991D02*
X1067310Y308870D01*
X1067316Y308749D01*
X1067326Y308629D01*
X1067339Y308508D01*
X1067357Y308389D01*
X1067378Y308269D01*
X1067403Y308151D01*
X1067432Y308034D01*
X1067465Y307917D01*
X1067501Y307802D01*
X1067542Y307688D01*
X1067585Y307575D01*
X1067633Y307463D01*
X1067684Y307354D01*
X1067739Y307246D01*
X1067797Y307139D01*
X1067858Y307035D01*
X1067923Y306933D01*
X1067991Y306833D01*
X1068062Y306735D01*
X1068136Y306639D01*
X1068213Y306546D01*
X1068294Y306456D01*
X1068377Y306368D01*
X1068463Y306283D01*
X1068552Y306200D01*
X1068643Y306121D01*
X1068737Y306044D01*
X1068833Y305971D01*
X1068931Y305901D01*
X1069032Y305834D01*
X1069135Y305770D01*
X1069240Y305710D01*
X1069347Y305652D01*
X1069455Y305599D01*
X1069565Y305549D01*
X1069677Y305503D01*
X1069790Y305460D01*
X1069905Y305421D01*
X1072501Y310938D02*
X1072423Y311017D01*
X1072343Y311093D01*
X1072260Y311166D01*
X1072174Y311236D01*
X1072087Y311303D01*
X1071996Y311367D01*
X1071904Y311427D01*
X1071810Y311485D01*
X1071713Y311539D01*
X1071615Y311589D01*
X1071515Y311636D01*
X1071414Y311680D01*
X1071311Y311720D01*
X1071206Y311756D01*
X1071101Y311788D01*
X1070994Y311817D01*
X1070887Y311842D01*
X1070778Y311864D01*
X1070669Y311881D01*
X1070560Y311895D01*
X1070450Y311904D01*
X1070339Y311910D01*
X1070229Y311912D01*
X1072501Y310938D02*
X1078992Y305421D01*
X1078992Y311912D01*
D15*
X806975Y83275D03*
X793225Y83275D03*
D16*
X800100Y87150D03*
D14*
X813308Y63001D02*
X824992Y63001D01*
X824992Y68193D01*
X824992Y72907D02*
X824992Y78099D01*
X824992Y72907D02*
X813308Y72907D01*
X813308Y78099D01*
X818501Y76801D02*
X818501Y72907D01*
X813308Y82790D02*
X824992Y82790D01*
X813308Y82790D02*
X813308Y86035D01*
X813310Y86148D01*
X813316Y86261D01*
X813326Y86374D01*
X813340Y86487D01*
X813357Y86599D01*
X813379Y86710D01*
X813404Y86820D01*
X813434Y86930D01*
X813467Y87038D01*
X813504Y87145D01*
X813544Y87251D01*
X813589Y87355D01*
X813637Y87458D01*
X813688Y87559D01*
X813743Y87658D01*
X813801Y87755D01*
X813863Y87850D01*
X813928Y87943D01*
X813996Y88033D01*
X814067Y88121D01*
X814142Y88207D01*
X814219Y88290D01*
X814299Y88370D01*
X814382Y88447D01*
X814468Y88522D01*
X814556Y88593D01*
X814646Y88661D01*
X814739Y88726D01*
X814834Y88788D01*
X814931Y88846D01*
X815030Y88901D01*
X815131Y88952D01*
X815234Y89000D01*
X815338Y89045D01*
X815444Y89085D01*
X815551Y89122D01*
X815659Y89155D01*
X815769Y89185D01*
X815879Y89210D01*
X815990Y89232D01*
X816102Y89249D01*
X816215Y89263D01*
X816328Y89273D01*
X816441Y89279D01*
X816554Y89281D01*
X821746Y89281D01*
X821746Y89282D02*
X821859Y89280D01*
X821972Y89274D01*
X822085Y89264D01*
X822198Y89250D01*
X822310Y89233D01*
X822421Y89211D01*
X822531Y89186D01*
X822641Y89156D01*
X822749Y89123D01*
X822856Y89086D01*
X822962Y89046D01*
X823066Y89001D01*
X823169Y88953D01*
X823270Y88902D01*
X823369Y88847D01*
X823466Y88789D01*
X823561Y88727D01*
X823654Y88662D01*
X823744Y88594D01*
X823832Y88523D01*
X823918Y88448D01*
X824001Y88371D01*
X824081Y88291D01*
X824158Y88208D01*
X824233Y88122D01*
X824304Y88034D01*
X824372Y87944D01*
X824437Y87851D01*
X824499Y87756D01*
X824557Y87659D01*
X824612Y87560D01*
X824663Y87459D01*
X824711Y87356D01*
X824756Y87252D01*
X824796Y87146D01*
X824833Y87039D01*
X824866Y86931D01*
X824896Y86821D01*
X824921Y86711D01*
X824943Y86600D01*
X824960Y86488D01*
X824974Y86375D01*
X824984Y86262D01*
X824990Y86149D01*
X824992Y86036D01*
X824992Y86035D02*
X824992Y82790D01*
X824992Y94601D02*
X824992Y97846D01*
X824990Y97959D01*
X824984Y98072D01*
X824974Y98185D01*
X824960Y98298D01*
X824943Y98410D01*
X824921Y98521D01*
X824896Y98631D01*
X824866Y98741D01*
X824833Y98849D01*
X824796Y98956D01*
X824756Y99062D01*
X824711Y99166D01*
X824663Y99269D01*
X824612Y99370D01*
X824557Y99469D01*
X824499Y99566D01*
X824437Y99661D01*
X824372Y99754D01*
X824304Y99844D01*
X824233Y99932D01*
X824158Y100018D01*
X824081Y100101D01*
X824001Y100181D01*
X823918Y100258D01*
X823832Y100333D01*
X823744Y100404D01*
X823654Y100472D01*
X823561Y100537D01*
X823466Y100599D01*
X823369Y100657D01*
X823270Y100712D01*
X823169Y100763D01*
X823066Y100811D01*
X822962Y100856D01*
X822856Y100896D01*
X822749Y100933D01*
X822641Y100966D01*
X822531Y100996D01*
X822421Y101021D01*
X822310Y101043D01*
X822198Y101060D01*
X822085Y101074D01*
X821972Y101084D01*
X821859Y101090D01*
X821746Y101092D01*
X821633Y101090D01*
X821520Y101084D01*
X821407Y101074D01*
X821294Y101060D01*
X821182Y101043D01*
X821071Y101021D01*
X820961Y100996D01*
X820851Y100966D01*
X820743Y100933D01*
X820636Y100896D01*
X820530Y100856D01*
X820426Y100811D01*
X820323Y100763D01*
X820222Y100712D01*
X820123Y100657D01*
X820026Y100599D01*
X819931Y100537D01*
X819838Y100472D01*
X819748Y100404D01*
X819660Y100333D01*
X819574Y100258D01*
X819491Y100181D01*
X819411Y100101D01*
X819334Y100018D01*
X819259Y99932D01*
X819188Y99844D01*
X819120Y99754D01*
X819055Y99661D01*
X818993Y99566D01*
X818935Y99469D01*
X818880Y99370D01*
X818829Y99269D01*
X818781Y99166D01*
X818736Y99062D01*
X818696Y98956D01*
X818659Y98849D01*
X818626Y98741D01*
X818596Y98631D01*
X818571Y98521D01*
X818549Y98410D01*
X818532Y98298D01*
X818518Y98185D01*
X818508Y98072D01*
X818502Y97959D01*
X818500Y97846D01*
X813308Y98496D02*
X813308Y94601D01*
X813308Y98496D02*
X813310Y98597D01*
X813316Y98697D01*
X813326Y98797D01*
X813339Y98897D01*
X813357Y98996D01*
X813378Y99095D01*
X813403Y99192D01*
X813432Y99289D01*
X813465Y99384D01*
X813501Y99478D01*
X813541Y99570D01*
X813584Y99661D01*
X813631Y99750D01*
X813681Y99837D01*
X813735Y99923D01*
X813792Y100006D01*
X813852Y100086D01*
X813915Y100165D01*
X813982Y100241D01*
X814051Y100314D01*
X814123Y100384D01*
X814197Y100452D01*
X814274Y100517D01*
X814354Y100578D01*
X814436Y100637D01*
X814520Y100692D01*
X814606Y100744D01*
X814694Y100793D01*
X814784Y100838D01*
X814876Y100880D01*
X814969Y100918D01*
X815064Y100952D01*
X815159Y100983D01*
X815256Y101010D01*
X815354Y101033D01*
X815453Y101053D01*
X815553Y101068D01*
X815653Y101080D01*
X815753Y101088D01*
X815854Y101092D01*
X815954Y101092D01*
X816055Y101088D01*
X816155Y101080D01*
X816255Y101068D01*
X816355Y101053D01*
X816454Y101033D01*
X816552Y101010D01*
X816649Y100983D01*
X816744Y100952D01*
X816839Y100918D01*
X816932Y100880D01*
X817024Y100838D01*
X817114Y100793D01*
X817202Y100744D01*
X817288Y100692D01*
X817372Y100637D01*
X817454Y100578D01*
X817534Y100517D01*
X817611Y100452D01*
X817685Y100384D01*
X817757Y100314D01*
X817826Y100241D01*
X817893Y100165D01*
X817956Y100086D01*
X818016Y100006D01*
X818073Y99923D01*
X818127Y99837D01*
X818177Y99750D01*
X818224Y99661D01*
X818267Y99570D01*
X818307Y99478D01*
X818343Y99384D01*
X818376Y99289D01*
X818405Y99192D01*
X818430Y99095D01*
X818451Y98996D01*
X818469Y98897D01*
X818482Y98797D01*
X818492Y98697D01*
X818498Y98597D01*
X818500Y98496D01*
X818501Y98496D02*
X818501Y95899D01*
X1067308Y167065D02*
X1078992Y167065D01*
X1067308Y167065D02*
X1067308Y170310D01*
X1067310Y170423D01*
X1067316Y170536D01*
X1067326Y170649D01*
X1067340Y170762D01*
X1067357Y170874D01*
X1067379Y170985D01*
X1067404Y171095D01*
X1067434Y171205D01*
X1067467Y171313D01*
X1067504Y171420D01*
X1067544Y171526D01*
X1067589Y171630D01*
X1067637Y171733D01*
X1067688Y171834D01*
X1067743Y171933D01*
X1067801Y172030D01*
X1067863Y172125D01*
X1067928Y172218D01*
X1067996Y172308D01*
X1068067Y172396D01*
X1068142Y172482D01*
X1068219Y172565D01*
X1068299Y172645D01*
X1068382Y172722D01*
X1068468Y172797D01*
X1068556Y172868D01*
X1068646Y172936D01*
X1068739Y173001D01*
X1068834Y173063D01*
X1068931Y173121D01*
X1069030Y173176D01*
X1069131Y173227D01*
X1069234Y173275D01*
X1069338Y173320D01*
X1069444Y173360D01*
X1069551Y173397D01*
X1069659Y173430D01*
X1069769Y173460D01*
X1069879Y173485D01*
X1069990Y173507D01*
X1070102Y173524D01*
X1070215Y173538D01*
X1070328Y173548D01*
X1070441Y173554D01*
X1070554Y173556D01*
X1070667Y173554D01*
X1070780Y173548D01*
X1070893Y173538D01*
X1071006Y173524D01*
X1071118Y173507D01*
X1071229Y173485D01*
X1071339Y173460D01*
X1071449Y173430D01*
X1071557Y173397D01*
X1071664Y173360D01*
X1071770Y173320D01*
X1071874Y173275D01*
X1071977Y173227D01*
X1072078Y173176D01*
X1072177Y173121D01*
X1072274Y173063D01*
X1072369Y173001D01*
X1072462Y172936D01*
X1072552Y172868D01*
X1072640Y172797D01*
X1072726Y172722D01*
X1072809Y172645D01*
X1072889Y172565D01*
X1072966Y172482D01*
X1073041Y172396D01*
X1073112Y172308D01*
X1073180Y172218D01*
X1073245Y172125D01*
X1073307Y172030D01*
X1073365Y171933D01*
X1073420Y171834D01*
X1073471Y171733D01*
X1073519Y171630D01*
X1073564Y171526D01*
X1073604Y171420D01*
X1073641Y171313D01*
X1073674Y171205D01*
X1073704Y171095D01*
X1073729Y170985D01*
X1073751Y170874D01*
X1073768Y170762D01*
X1073782Y170649D01*
X1073792Y170536D01*
X1073798Y170423D01*
X1073800Y170310D01*
X1073799Y170310D02*
X1073799Y167065D01*
X1073799Y170959D02*
X1078992Y173556D01*
X1069904Y178421D02*
X1067308Y181666D01*
X1078992Y181666D01*
X1078992Y178421D02*
X1078992Y184912D01*
X446532Y414715D02*
X434848Y414715D01*
X434848Y417960D01*
X434850Y418073D01*
X434856Y418186D01*
X434866Y418299D01*
X434880Y418412D01*
X434897Y418524D01*
X434919Y418635D01*
X434944Y418745D01*
X434974Y418855D01*
X435007Y418963D01*
X435044Y419070D01*
X435084Y419176D01*
X435129Y419280D01*
X435177Y419383D01*
X435228Y419484D01*
X435283Y419583D01*
X435341Y419680D01*
X435403Y419775D01*
X435468Y419868D01*
X435536Y419958D01*
X435607Y420046D01*
X435682Y420132D01*
X435759Y420215D01*
X435839Y420295D01*
X435922Y420372D01*
X436008Y420447D01*
X436096Y420518D01*
X436186Y420586D01*
X436279Y420651D01*
X436374Y420713D01*
X436471Y420771D01*
X436570Y420826D01*
X436671Y420877D01*
X436774Y420925D01*
X436878Y420970D01*
X436984Y421010D01*
X437091Y421047D01*
X437199Y421080D01*
X437309Y421110D01*
X437419Y421135D01*
X437530Y421157D01*
X437642Y421174D01*
X437755Y421188D01*
X437868Y421198D01*
X437981Y421204D01*
X438094Y421206D01*
X438207Y421204D01*
X438320Y421198D01*
X438433Y421188D01*
X438546Y421174D01*
X438658Y421157D01*
X438769Y421135D01*
X438879Y421110D01*
X438989Y421080D01*
X439097Y421047D01*
X439204Y421010D01*
X439310Y420970D01*
X439414Y420925D01*
X439517Y420877D01*
X439618Y420826D01*
X439717Y420771D01*
X439814Y420713D01*
X439909Y420651D01*
X440002Y420586D01*
X440092Y420518D01*
X440180Y420447D01*
X440266Y420372D01*
X440349Y420295D01*
X440429Y420215D01*
X440506Y420132D01*
X440581Y420046D01*
X440652Y419958D01*
X440720Y419868D01*
X440785Y419775D01*
X440847Y419680D01*
X440905Y419583D01*
X440960Y419484D01*
X441011Y419383D01*
X441059Y419280D01*
X441104Y419176D01*
X441144Y419070D01*
X441181Y418963D01*
X441214Y418855D01*
X441244Y418745D01*
X441269Y418635D01*
X441291Y418524D01*
X441308Y418412D01*
X441322Y418299D01*
X441332Y418186D01*
X441338Y418073D01*
X441340Y417960D01*
X441339Y417960D02*
X441339Y414715D01*
X441339Y418609D02*
X446532Y421206D01*
X437444Y426071D02*
X434848Y429316D01*
X446532Y429316D01*
X446532Y426071D02*
X446532Y432562D01*
X440690Y437501D02*
X440460Y437504D01*
X440230Y437512D01*
X440001Y437526D01*
X439772Y437545D01*
X439543Y437570D01*
X439315Y437600D01*
X439088Y437635D01*
X438862Y437676D01*
X438637Y437722D01*
X438413Y437774D01*
X438190Y437831D01*
X437969Y437893D01*
X437749Y437961D01*
X437531Y438034D01*
X437315Y438112D01*
X437101Y438195D01*
X436889Y438283D01*
X436678Y438376D01*
X436471Y438475D01*
X436471Y438474D02*
X436381Y438507D01*
X436292Y438543D01*
X436204Y438583D01*
X436119Y438627D01*
X436035Y438674D01*
X435953Y438724D01*
X435873Y438778D01*
X435796Y438834D01*
X435720Y438894D01*
X435647Y438957D01*
X435577Y439022D01*
X435509Y439091D01*
X435445Y439162D01*
X435383Y439235D01*
X435324Y439311D01*
X435268Y439389D01*
X435215Y439470D01*
X435166Y439552D01*
X435120Y439636D01*
X435077Y439723D01*
X435038Y439810D01*
X435002Y439900D01*
X434970Y439990D01*
X434942Y440082D01*
X434917Y440175D01*
X434896Y440269D01*
X434879Y440363D01*
X434865Y440458D01*
X434856Y440554D01*
X434850Y440650D01*
X434848Y440746D01*
X434850Y440842D01*
X434856Y440938D01*
X434865Y441034D01*
X434879Y441129D01*
X434896Y441223D01*
X434917Y441317D01*
X434942Y441410D01*
X434970Y441502D01*
X435002Y441592D01*
X435038Y441682D01*
X435077Y441770D01*
X435120Y441856D01*
X435166Y441940D01*
X435215Y442022D01*
X435268Y442103D01*
X435324Y442181D01*
X435383Y442257D01*
X435445Y442330D01*
X435509Y442401D01*
X435577Y442470D01*
X435647Y442535D01*
X435720Y442598D01*
X435796Y442658D01*
X435873Y442714D01*
X435953Y442768D01*
X436035Y442818D01*
X436119Y442865D01*
X436204Y442909D01*
X436292Y442949D01*
X436381Y442985D01*
X436471Y443018D01*
X436678Y443117D01*
X436889Y443210D01*
X437101Y443298D01*
X437315Y443381D01*
X437531Y443459D01*
X437749Y443532D01*
X437969Y443600D01*
X438190Y443662D01*
X438413Y443719D01*
X438637Y443771D01*
X438862Y443817D01*
X439088Y443858D01*
X439315Y443893D01*
X439543Y443923D01*
X439772Y443948D01*
X440001Y443967D01*
X440230Y443981D01*
X440460Y443989D01*
X440690Y443992D01*
X440690Y437501D02*
X440920Y437504D01*
X441150Y437512D01*
X441379Y437526D01*
X441608Y437545D01*
X441837Y437570D01*
X442065Y437600D01*
X442292Y437635D01*
X442518Y437676D01*
X442743Y437722D01*
X442967Y437774D01*
X443190Y437831D01*
X443411Y437893D01*
X443631Y437961D01*
X443849Y438034D01*
X444065Y438112D01*
X444279Y438195D01*
X444491Y438283D01*
X444702Y438376D01*
X444909Y438475D01*
X444909Y438474D02*
X444999Y438507D01*
X445088Y438543D01*
X445176Y438584D01*
X445261Y438627D01*
X445345Y438674D01*
X445427Y438724D01*
X445507Y438778D01*
X445584Y438834D01*
X445660Y438894D01*
X445733Y438957D01*
X445803Y439022D01*
X445871Y439091D01*
X445935Y439162D01*
X445997Y439235D01*
X446056Y439311D01*
X446112Y439389D01*
X446165Y439470D01*
X446214Y439552D01*
X446260Y439636D01*
X446303Y439723D01*
X446342Y439810D01*
X446378Y439900D01*
X446410Y439990D01*
X446438Y440082D01*
X446463Y440175D01*
X446484Y440269D01*
X446501Y440363D01*
X446515Y440458D01*
X446524Y440554D01*
X446530Y440650D01*
X446532Y440746D01*
X444909Y443018D02*
X444702Y443117D01*
X444491Y443210D01*
X444279Y443298D01*
X444065Y443381D01*
X443849Y443459D01*
X443631Y443532D01*
X443411Y443600D01*
X443190Y443662D01*
X442967Y443719D01*
X442743Y443771D01*
X442518Y443817D01*
X442292Y443858D01*
X442065Y443893D01*
X441837Y443923D01*
X441608Y443948D01*
X441379Y443967D01*
X441150Y443981D01*
X440920Y443989D01*
X440690Y443992D01*
X444909Y443018D02*
X444999Y442985D01*
X445088Y442949D01*
X445176Y442909D01*
X445261Y442865D01*
X445345Y442818D01*
X445427Y442768D01*
X445507Y442714D01*
X445584Y442658D01*
X445660Y442598D01*
X445733Y442535D01*
X445803Y442470D01*
X445871Y442401D01*
X445935Y442330D01*
X445997Y442257D01*
X446056Y442181D01*
X446112Y442103D01*
X446165Y442022D01*
X446214Y441940D01*
X446260Y441856D01*
X446303Y441769D01*
X446342Y441682D01*
X446378Y441592D01*
X446410Y441502D01*
X446438Y441410D01*
X446463Y441317D01*
X446484Y441223D01*
X446501Y441129D01*
X446515Y441034D01*
X446524Y440938D01*
X446530Y440842D01*
X446532Y440746D01*
X443936Y438150D02*
X437444Y443343D01*
X495808Y338515D02*
X507492Y338515D01*
X495808Y338515D02*
X495808Y341760D01*
X495810Y341873D01*
X495816Y341986D01*
X495826Y342099D01*
X495840Y342212D01*
X495857Y342324D01*
X495879Y342435D01*
X495904Y342545D01*
X495934Y342655D01*
X495967Y342763D01*
X496004Y342870D01*
X496044Y342976D01*
X496089Y343080D01*
X496137Y343183D01*
X496188Y343284D01*
X496243Y343383D01*
X496301Y343480D01*
X496363Y343575D01*
X496428Y343668D01*
X496496Y343758D01*
X496567Y343846D01*
X496642Y343932D01*
X496719Y344015D01*
X496799Y344095D01*
X496882Y344172D01*
X496968Y344247D01*
X497056Y344318D01*
X497146Y344386D01*
X497239Y344451D01*
X497334Y344513D01*
X497431Y344571D01*
X497530Y344626D01*
X497631Y344677D01*
X497734Y344725D01*
X497838Y344770D01*
X497944Y344810D01*
X498051Y344847D01*
X498159Y344880D01*
X498269Y344910D01*
X498379Y344935D01*
X498490Y344957D01*
X498602Y344974D01*
X498715Y344988D01*
X498828Y344998D01*
X498941Y345004D01*
X499054Y345006D01*
X499167Y345004D01*
X499280Y344998D01*
X499393Y344988D01*
X499506Y344974D01*
X499618Y344957D01*
X499729Y344935D01*
X499839Y344910D01*
X499949Y344880D01*
X500057Y344847D01*
X500164Y344810D01*
X500270Y344770D01*
X500374Y344725D01*
X500477Y344677D01*
X500578Y344626D01*
X500677Y344571D01*
X500774Y344513D01*
X500869Y344451D01*
X500962Y344386D01*
X501052Y344318D01*
X501140Y344247D01*
X501226Y344172D01*
X501309Y344095D01*
X501389Y344015D01*
X501466Y343932D01*
X501541Y343846D01*
X501612Y343758D01*
X501680Y343668D01*
X501745Y343575D01*
X501807Y343480D01*
X501865Y343383D01*
X501920Y343284D01*
X501971Y343183D01*
X502019Y343080D01*
X502064Y342976D01*
X502104Y342870D01*
X502141Y342763D01*
X502174Y342655D01*
X502204Y342545D01*
X502229Y342435D01*
X502251Y342324D01*
X502268Y342212D01*
X502282Y342099D01*
X502292Y341986D01*
X502298Y341873D01*
X502300Y341760D01*
X502299Y341760D02*
X502299Y338515D01*
X502299Y342409D02*
X507492Y345006D01*
X498404Y349871D02*
X495808Y353116D01*
X507492Y353116D01*
X507492Y349871D02*
X507492Y356362D01*
X498404Y361301D02*
X495808Y364546D01*
X507492Y364546D01*
X507492Y361301D02*
X507492Y367792D01*
X1067308Y338328D02*
X1078992Y338328D01*
X1067308Y338328D02*
X1067308Y341574D01*
X1067310Y341687D01*
X1067316Y341800D01*
X1067326Y341913D01*
X1067340Y342026D01*
X1067357Y342138D01*
X1067379Y342249D01*
X1067404Y342359D01*
X1067434Y342469D01*
X1067467Y342577D01*
X1067504Y342684D01*
X1067544Y342790D01*
X1067589Y342894D01*
X1067637Y342997D01*
X1067688Y343098D01*
X1067743Y343197D01*
X1067801Y343294D01*
X1067863Y343389D01*
X1067928Y343482D01*
X1067996Y343572D01*
X1068067Y343660D01*
X1068142Y343746D01*
X1068219Y343829D01*
X1068299Y343909D01*
X1068382Y343986D01*
X1068468Y344061D01*
X1068556Y344132D01*
X1068646Y344200D01*
X1068739Y344265D01*
X1068834Y344327D01*
X1068931Y344385D01*
X1069030Y344440D01*
X1069131Y344491D01*
X1069234Y344539D01*
X1069338Y344584D01*
X1069444Y344624D01*
X1069551Y344661D01*
X1069659Y344694D01*
X1069769Y344724D01*
X1069879Y344749D01*
X1069990Y344771D01*
X1070102Y344788D01*
X1070215Y344802D01*
X1070328Y344812D01*
X1070441Y344818D01*
X1070554Y344820D01*
X1070667Y344818D01*
X1070780Y344812D01*
X1070893Y344802D01*
X1071006Y344788D01*
X1071118Y344771D01*
X1071229Y344749D01*
X1071339Y344724D01*
X1071449Y344694D01*
X1071557Y344661D01*
X1071664Y344624D01*
X1071770Y344584D01*
X1071874Y344539D01*
X1071977Y344491D01*
X1072078Y344440D01*
X1072177Y344385D01*
X1072274Y344327D01*
X1072369Y344265D01*
X1072462Y344200D01*
X1072552Y344132D01*
X1072640Y344061D01*
X1072726Y343986D01*
X1072809Y343909D01*
X1072889Y343829D01*
X1072966Y343746D01*
X1073041Y343660D01*
X1073112Y343572D01*
X1073180Y343482D01*
X1073245Y343389D01*
X1073307Y343294D01*
X1073365Y343197D01*
X1073420Y343098D01*
X1073471Y342997D01*
X1073519Y342894D01*
X1073564Y342790D01*
X1073604Y342684D01*
X1073641Y342577D01*
X1073674Y342469D01*
X1073704Y342359D01*
X1073729Y342249D01*
X1073751Y342138D01*
X1073768Y342026D01*
X1073782Y341913D01*
X1073792Y341800D01*
X1073798Y341687D01*
X1073800Y341574D01*
X1073799Y341574D02*
X1073799Y338328D01*
X1073799Y342223D02*
X1078992Y344819D01*
X1070229Y356175D02*
X1070122Y356173D01*
X1070016Y356167D01*
X1069910Y356157D01*
X1069804Y356144D01*
X1069698Y356126D01*
X1069594Y356105D01*
X1069490Y356080D01*
X1069387Y356051D01*
X1069286Y356019D01*
X1069186Y355982D01*
X1069087Y355942D01*
X1068989Y355899D01*
X1068893Y355852D01*
X1068799Y355801D01*
X1068707Y355747D01*
X1068617Y355690D01*
X1068529Y355630D01*
X1068444Y355566D01*
X1068361Y355499D01*
X1068280Y355429D01*
X1068202Y355357D01*
X1068126Y355281D01*
X1068054Y355203D01*
X1067984Y355122D01*
X1067917Y355039D01*
X1067853Y354954D01*
X1067793Y354866D01*
X1067736Y354776D01*
X1067682Y354684D01*
X1067631Y354590D01*
X1067584Y354494D01*
X1067541Y354396D01*
X1067501Y354297D01*
X1067464Y354197D01*
X1067432Y354096D01*
X1067403Y353993D01*
X1067378Y353889D01*
X1067357Y353785D01*
X1067339Y353679D01*
X1067326Y353573D01*
X1067316Y353467D01*
X1067310Y353361D01*
X1067308Y353254D01*
X1067310Y353133D01*
X1067316Y353012D01*
X1067326Y352892D01*
X1067339Y352771D01*
X1067357Y352652D01*
X1067378Y352532D01*
X1067403Y352414D01*
X1067432Y352297D01*
X1067465Y352180D01*
X1067501Y352065D01*
X1067542Y351951D01*
X1067585Y351838D01*
X1067633Y351726D01*
X1067684Y351617D01*
X1067739Y351509D01*
X1067797Y351402D01*
X1067858Y351298D01*
X1067923Y351196D01*
X1067991Y351096D01*
X1068062Y350998D01*
X1068136Y350902D01*
X1068213Y350809D01*
X1068294Y350719D01*
X1068377Y350631D01*
X1068463Y350546D01*
X1068552Y350463D01*
X1068643Y350384D01*
X1068737Y350307D01*
X1068833Y350234D01*
X1068931Y350164D01*
X1069032Y350097D01*
X1069135Y350033D01*
X1069240Y349973D01*
X1069347Y349915D01*
X1069455Y349862D01*
X1069565Y349812D01*
X1069677Y349766D01*
X1069790Y349723D01*
X1069905Y349684D01*
X1072501Y355201D02*
X1072423Y355280D01*
X1072343Y355356D01*
X1072260Y355429D01*
X1072174Y355499D01*
X1072087Y355566D01*
X1071996Y355630D01*
X1071904Y355690D01*
X1071810Y355748D01*
X1071713Y355802D01*
X1071615Y355852D01*
X1071515Y355899D01*
X1071414Y355943D01*
X1071311Y355983D01*
X1071206Y356019D01*
X1071101Y356051D01*
X1070994Y356080D01*
X1070887Y356105D01*
X1070778Y356127D01*
X1070669Y356144D01*
X1070560Y356158D01*
X1070450Y356167D01*
X1070339Y356173D01*
X1070229Y356175D01*
X1072501Y355202D02*
X1078992Y349684D01*
X1078992Y356175D01*
X786892Y241808D02*
X775208Y241808D01*
X775208Y245054D01*
X775210Y245167D01*
X775216Y245280D01*
X775226Y245393D01*
X775240Y245506D01*
X775257Y245618D01*
X775279Y245729D01*
X775304Y245839D01*
X775334Y245949D01*
X775367Y246057D01*
X775404Y246164D01*
X775444Y246270D01*
X775489Y246374D01*
X775537Y246477D01*
X775588Y246578D01*
X775643Y246677D01*
X775701Y246774D01*
X775763Y246869D01*
X775828Y246962D01*
X775896Y247052D01*
X775967Y247140D01*
X776042Y247226D01*
X776119Y247309D01*
X776199Y247389D01*
X776282Y247466D01*
X776368Y247541D01*
X776456Y247612D01*
X776546Y247680D01*
X776639Y247745D01*
X776734Y247807D01*
X776831Y247865D01*
X776930Y247920D01*
X777031Y247971D01*
X777134Y248019D01*
X777238Y248064D01*
X777344Y248104D01*
X777451Y248141D01*
X777559Y248174D01*
X777669Y248204D01*
X777779Y248229D01*
X777890Y248251D01*
X778002Y248268D01*
X778115Y248282D01*
X778228Y248292D01*
X778341Y248298D01*
X778454Y248300D01*
X778567Y248298D01*
X778680Y248292D01*
X778793Y248282D01*
X778906Y248268D01*
X779018Y248251D01*
X779129Y248229D01*
X779239Y248204D01*
X779349Y248174D01*
X779457Y248141D01*
X779564Y248104D01*
X779670Y248064D01*
X779774Y248019D01*
X779877Y247971D01*
X779978Y247920D01*
X780077Y247865D01*
X780174Y247807D01*
X780269Y247745D01*
X780362Y247680D01*
X780452Y247612D01*
X780540Y247541D01*
X780626Y247466D01*
X780709Y247389D01*
X780789Y247309D01*
X780866Y247226D01*
X780941Y247140D01*
X781012Y247052D01*
X781080Y246962D01*
X781145Y246869D01*
X781207Y246774D01*
X781265Y246677D01*
X781320Y246578D01*
X781371Y246477D01*
X781419Y246374D01*
X781464Y246270D01*
X781504Y246164D01*
X781541Y246057D01*
X781574Y245949D01*
X781604Y245839D01*
X781629Y245729D01*
X781651Y245618D01*
X781668Y245506D01*
X781682Y245393D01*
X781692Y245280D01*
X781698Y245167D01*
X781700Y245054D01*
X781699Y245054D02*
X781699Y241808D01*
X781699Y245703D02*
X786892Y248299D01*
X786892Y253164D02*
X786892Y256410D01*
X786890Y256523D01*
X786884Y256636D01*
X786874Y256749D01*
X786860Y256862D01*
X786843Y256974D01*
X786821Y257085D01*
X786796Y257195D01*
X786766Y257305D01*
X786733Y257413D01*
X786696Y257520D01*
X786656Y257626D01*
X786611Y257730D01*
X786563Y257833D01*
X786512Y257934D01*
X786457Y258033D01*
X786399Y258130D01*
X786337Y258225D01*
X786272Y258318D01*
X786204Y258408D01*
X786133Y258496D01*
X786058Y258582D01*
X785981Y258665D01*
X785901Y258745D01*
X785818Y258822D01*
X785732Y258897D01*
X785644Y258968D01*
X785554Y259036D01*
X785461Y259101D01*
X785366Y259163D01*
X785269Y259221D01*
X785170Y259276D01*
X785069Y259327D01*
X784966Y259375D01*
X784862Y259420D01*
X784756Y259460D01*
X784649Y259497D01*
X784541Y259530D01*
X784431Y259560D01*
X784321Y259585D01*
X784210Y259607D01*
X784098Y259624D01*
X783985Y259638D01*
X783872Y259648D01*
X783759Y259654D01*
X783646Y259656D01*
X783533Y259654D01*
X783420Y259648D01*
X783307Y259638D01*
X783194Y259624D01*
X783082Y259607D01*
X782971Y259585D01*
X782861Y259560D01*
X782751Y259530D01*
X782643Y259497D01*
X782536Y259460D01*
X782430Y259420D01*
X782326Y259375D01*
X782223Y259327D01*
X782122Y259276D01*
X782023Y259221D01*
X781926Y259163D01*
X781831Y259101D01*
X781738Y259036D01*
X781648Y258968D01*
X781560Y258897D01*
X781474Y258822D01*
X781391Y258745D01*
X781311Y258665D01*
X781234Y258582D01*
X781159Y258496D01*
X781088Y258408D01*
X781020Y258318D01*
X780955Y258225D01*
X780893Y258130D01*
X780835Y258033D01*
X780780Y257934D01*
X780729Y257833D01*
X780681Y257730D01*
X780636Y257626D01*
X780596Y257520D01*
X780559Y257413D01*
X780526Y257305D01*
X780496Y257195D01*
X780471Y257085D01*
X780449Y256974D01*
X780432Y256862D01*
X780418Y256749D01*
X780408Y256636D01*
X780402Y256523D01*
X780400Y256410D01*
X775208Y257059D02*
X775208Y253164D01*
X775208Y257059D02*
X775210Y257160D01*
X775216Y257260D01*
X775226Y257360D01*
X775239Y257460D01*
X775257Y257559D01*
X775278Y257658D01*
X775303Y257755D01*
X775332Y257852D01*
X775365Y257947D01*
X775401Y258041D01*
X775441Y258133D01*
X775484Y258224D01*
X775531Y258313D01*
X775581Y258400D01*
X775635Y258486D01*
X775692Y258569D01*
X775752Y258649D01*
X775815Y258728D01*
X775882Y258804D01*
X775951Y258877D01*
X776023Y258947D01*
X776097Y259015D01*
X776174Y259080D01*
X776254Y259141D01*
X776336Y259200D01*
X776420Y259255D01*
X776506Y259307D01*
X776594Y259356D01*
X776684Y259401D01*
X776776Y259443D01*
X776869Y259481D01*
X776964Y259515D01*
X777059Y259546D01*
X777156Y259573D01*
X777254Y259596D01*
X777353Y259616D01*
X777453Y259631D01*
X777553Y259643D01*
X777653Y259651D01*
X777754Y259655D01*
X777854Y259655D01*
X777955Y259651D01*
X778055Y259643D01*
X778155Y259631D01*
X778255Y259616D01*
X778354Y259596D01*
X778452Y259573D01*
X778549Y259546D01*
X778644Y259515D01*
X778739Y259481D01*
X778832Y259443D01*
X778924Y259401D01*
X779014Y259356D01*
X779102Y259307D01*
X779188Y259255D01*
X779272Y259200D01*
X779354Y259141D01*
X779434Y259080D01*
X779511Y259015D01*
X779585Y258947D01*
X779657Y258877D01*
X779726Y258804D01*
X779793Y258728D01*
X779856Y258649D01*
X779916Y258569D01*
X779973Y258486D01*
X780027Y258400D01*
X780077Y258313D01*
X780124Y258224D01*
X780167Y258133D01*
X780207Y258041D01*
X780243Y257947D01*
X780276Y257852D01*
X780305Y257755D01*
X780330Y257658D01*
X780351Y257559D01*
X780369Y257460D01*
X780382Y257360D01*
X780392Y257260D01*
X780398Y257160D01*
X780400Y257059D01*
X780401Y257059D02*
X780401Y254463D01*
X775208Y305308D02*
X786892Y305308D01*
X775208Y305308D02*
X775208Y308554D01*
X775210Y308667D01*
X775216Y308780D01*
X775226Y308893D01*
X775240Y309006D01*
X775257Y309118D01*
X775279Y309229D01*
X775304Y309339D01*
X775334Y309449D01*
X775367Y309557D01*
X775404Y309664D01*
X775444Y309770D01*
X775489Y309874D01*
X775537Y309977D01*
X775588Y310078D01*
X775643Y310177D01*
X775701Y310274D01*
X775763Y310369D01*
X775828Y310462D01*
X775896Y310552D01*
X775967Y310640D01*
X776042Y310726D01*
X776119Y310809D01*
X776199Y310889D01*
X776282Y310966D01*
X776368Y311041D01*
X776456Y311112D01*
X776546Y311180D01*
X776639Y311245D01*
X776734Y311307D01*
X776831Y311365D01*
X776930Y311420D01*
X777031Y311471D01*
X777134Y311519D01*
X777238Y311564D01*
X777344Y311604D01*
X777451Y311641D01*
X777559Y311674D01*
X777669Y311704D01*
X777779Y311729D01*
X777890Y311751D01*
X778002Y311768D01*
X778115Y311782D01*
X778228Y311792D01*
X778341Y311798D01*
X778454Y311800D01*
X778567Y311798D01*
X778680Y311792D01*
X778793Y311782D01*
X778906Y311768D01*
X779018Y311751D01*
X779129Y311729D01*
X779239Y311704D01*
X779349Y311674D01*
X779457Y311641D01*
X779564Y311604D01*
X779670Y311564D01*
X779774Y311519D01*
X779877Y311471D01*
X779978Y311420D01*
X780077Y311365D01*
X780174Y311307D01*
X780269Y311245D01*
X780362Y311180D01*
X780452Y311112D01*
X780540Y311041D01*
X780626Y310966D01*
X780709Y310889D01*
X780789Y310809D01*
X780866Y310726D01*
X780941Y310640D01*
X781012Y310552D01*
X781080Y310462D01*
X781145Y310369D01*
X781207Y310274D01*
X781265Y310177D01*
X781320Y310078D01*
X781371Y309977D01*
X781419Y309874D01*
X781464Y309770D01*
X781504Y309664D01*
X781541Y309557D01*
X781574Y309449D01*
X781604Y309339D01*
X781629Y309229D01*
X781651Y309118D01*
X781668Y309006D01*
X781682Y308893D01*
X781692Y308780D01*
X781698Y308667D01*
X781700Y308554D01*
X781699Y308554D02*
X781699Y305308D01*
X781699Y309203D02*
X786892Y311799D01*
X784296Y316664D02*
X775208Y319261D01*
X784296Y316664D02*
X784296Y323155D01*
X781699Y321208D02*
X786892Y321208D01*
X761492Y172145D02*
X749808Y172145D01*
X749808Y175390D01*
X749810Y175503D01*
X749816Y175616D01*
X749826Y175729D01*
X749840Y175842D01*
X749857Y175954D01*
X749879Y176065D01*
X749904Y176175D01*
X749934Y176285D01*
X749967Y176393D01*
X750004Y176500D01*
X750044Y176606D01*
X750089Y176710D01*
X750137Y176813D01*
X750188Y176914D01*
X750243Y177013D01*
X750301Y177110D01*
X750363Y177205D01*
X750428Y177298D01*
X750496Y177388D01*
X750567Y177476D01*
X750642Y177562D01*
X750719Y177645D01*
X750799Y177725D01*
X750882Y177802D01*
X750968Y177877D01*
X751056Y177948D01*
X751146Y178016D01*
X751239Y178081D01*
X751334Y178143D01*
X751431Y178201D01*
X751530Y178256D01*
X751631Y178307D01*
X751734Y178355D01*
X751838Y178400D01*
X751944Y178440D01*
X752051Y178477D01*
X752159Y178510D01*
X752269Y178540D01*
X752379Y178565D01*
X752490Y178587D01*
X752602Y178604D01*
X752715Y178618D01*
X752828Y178628D01*
X752941Y178634D01*
X753054Y178636D01*
X753167Y178634D01*
X753280Y178628D01*
X753393Y178618D01*
X753506Y178604D01*
X753618Y178587D01*
X753729Y178565D01*
X753839Y178540D01*
X753949Y178510D01*
X754057Y178477D01*
X754164Y178440D01*
X754270Y178400D01*
X754374Y178355D01*
X754477Y178307D01*
X754578Y178256D01*
X754677Y178201D01*
X754774Y178143D01*
X754869Y178081D01*
X754962Y178016D01*
X755052Y177948D01*
X755140Y177877D01*
X755226Y177802D01*
X755309Y177725D01*
X755389Y177645D01*
X755466Y177562D01*
X755541Y177476D01*
X755612Y177388D01*
X755680Y177298D01*
X755745Y177205D01*
X755807Y177110D01*
X755865Y177013D01*
X755920Y176914D01*
X755971Y176813D01*
X756019Y176710D01*
X756064Y176606D01*
X756104Y176500D01*
X756141Y176393D01*
X756174Y176285D01*
X756204Y176175D01*
X756229Y176065D01*
X756251Y175954D01*
X756268Y175842D01*
X756282Y175729D01*
X756292Y175616D01*
X756298Y175503D01*
X756300Y175390D01*
X756299Y175390D02*
X756299Y172145D01*
X756299Y176039D02*
X761492Y178636D01*
X761492Y183501D02*
X761492Y187396D01*
X761490Y187495D01*
X761484Y187595D01*
X761475Y187694D01*
X761462Y187792D01*
X761445Y187890D01*
X761424Y187988D01*
X761399Y188084D01*
X761371Y188179D01*
X761339Y188273D01*
X761304Y188366D01*
X761265Y188458D01*
X761222Y188548D01*
X761177Y188636D01*
X761127Y188723D01*
X761075Y188807D01*
X761019Y188890D01*
X760961Y188970D01*
X760899Y189048D01*
X760834Y189123D01*
X760766Y189196D01*
X760696Y189266D01*
X760623Y189334D01*
X760548Y189399D01*
X760470Y189461D01*
X760390Y189519D01*
X760307Y189575D01*
X760223Y189627D01*
X760136Y189677D01*
X760048Y189722D01*
X759958Y189765D01*
X759866Y189804D01*
X759773Y189839D01*
X759679Y189871D01*
X759584Y189899D01*
X759488Y189924D01*
X759390Y189945D01*
X759292Y189962D01*
X759194Y189975D01*
X759095Y189984D01*
X758995Y189990D01*
X758896Y189992D01*
X757597Y189992D01*
X757498Y189990D01*
X757398Y189984D01*
X757299Y189975D01*
X757201Y189962D01*
X757103Y189945D01*
X757005Y189924D01*
X756909Y189899D01*
X756814Y189871D01*
X756720Y189839D01*
X756627Y189804D01*
X756535Y189765D01*
X756445Y189722D01*
X756357Y189677D01*
X756270Y189627D01*
X756186Y189575D01*
X756103Y189519D01*
X756023Y189461D01*
X755945Y189399D01*
X755870Y189334D01*
X755797Y189266D01*
X755727Y189196D01*
X755659Y189123D01*
X755594Y189048D01*
X755532Y188970D01*
X755474Y188890D01*
X755418Y188807D01*
X755366Y188723D01*
X755316Y188636D01*
X755271Y188548D01*
X755228Y188458D01*
X755189Y188366D01*
X755154Y188273D01*
X755122Y188179D01*
X755094Y188084D01*
X755069Y187988D01*
X755048Y187890D01*
X755031Y187792D01*
X755018Y187694D01*
X755009Y187595D01*
X755003Y187495D01*
X755001Y187396D01*
X755001Y183501D01*
X749808Y183501D01*
X749808Y189992D01*
X775208Y368808D02*
X786892Y368808D01*
X775208Y368808D02*
X775208Y372054D01*
X775210Y372167D01*
X775216Y372280D01*
X775226Y372393D01*
X775240Y372506D01*
X775257Y372618D01*
X775279Y372729D01*
X775304Y372839D01*
X775334Y372949D01*
X775367Y373057D01*
X775404Y373164D01*
X775444Y373270D01*
X775489Y373374D01*
X775537Y373477D01*
X775588Y373578D01*
X775643Y373677D01*
X775701Y373774D01*
X775763Y373869D01*
X775828Y373962D01*
X775896Y374052D01*
X775967Y374140D01*
X776042Y374226D01*
X776119Y374309D01*
X776199Y374389D01*
X776282Y374466D01*
X776368Y374541D01*
X776456Y374612D01*
X776546Y374680D01*
X776639Y374745D01*
X776734Y374807D01*
X776831Y374865D01*
X776930Y374920D01*
X777031Y374971D01*
X777134Y375019D01*
X777238Y375064D01*
X777344Y375104D01*
X777451Y375141D01*
X777559Y375174D01*
X777669Y375204D01*
X777779Y375229D01*
X777890Y375251D01*
X778002Y375268D01*
X778115Y375282D01*
X778228Y375292D01*
X778341Y375298D01*
X778454Y375300D01*
X778567Y375298D01*
X778680Y375292D01*
X778793Y375282D01*
X778906Y375268D01*
X779018Y375251D01*
X779129Y375229D01*
X779239Y375204D01*
X779349Y375174D01*
X779457Y375141D01*
X779564Y375104D01*
X779670Y375064D01*
X779774Y375019D01*
X779877Y374971D01*
X779978Y374920D01*
X780077Y374865D01*
X780174Y374807D01*
X780269Y374745D01*
X780362Y374680D01*
X780452Y374612D01*
X780540Y374541D01*
X780626Y374466D01*
X780709Y374389D01*
X780789Y374309D01*
X780866Y374226D01*
X780941Y374140D01*
X781012Y374052D01*
X781080Y373962D01*
X781145Y373869D01*
X781207Y373774D01*
X781265Y373677D01*
X781320Y373578D01*
X781371Y373477D01*
X781419Y373374D01*
X781464Y373270D01*
X781504Y373164D01*
X781541Y373057D01*
X781574Y372949D01*
X781604Y372839D01*
X781629Y372729D01*
X781651Y372618D01*
X781668Y372506D01*
X781682Y372393D01*
X781692Y372280D01*
X781698Y372167D01*
X781700Y372054D01*
X781699Y372054D02*
X781699Y368808D01*
X781699Y372703D02*
X786892Y375299D01*
X780401Y380164D02*
X780401Y384059D01*
X780403Y384158D01*
X780409Y384258D01*
X780418Y384357D01*
X780431Y384455D01*
X780448Y384553D01*
X780469Y384651D01*
X780494Y384747D01*
X780522Y384842D01*
X780554Y384936D01*
X780589Y385029D01*
X780628Y385121D01*
X780671Y385211D01*
X780716Y385299D01*
X780766Y385386D01*
X780818Y385470D01*
X780874Y385553D01*
X780932Y385633D01*
X780994Y385711D01*
X781059Y385786D01*
X781127Y385859D01*
X781197Y385929D01*
X781270Y385997D01*
X781345Y386062D01*
X781423Y386124D01*
X781503Y386182D01*
X781586Y386238D01*
X781670Y386290D01*
X781757Y386340D01*
X781845Y386385D01*
X781935Y386428D01*
X782027Y386467D01*
X782120Y386502D01*
X782214Y386534D01*
X782309Y386562D01*
X782405Y386587D01*
X782503Y386608D01*
X782601Y386625D01*
X782699Y386638D01*
X782798Y386647D01*
X782898Y386653D01*
X782997Y386655D01*
X783646Y386655D01*
X783646Y386656D02*
X783759Y386654D01*
X783872Y386648D01*
X783985Y386638D01*
X784098Y386624D01*
X784210Y386607D01*
X784321Y386585D01*
X784431Y386560D01*
X784541Y386530D01*
X784649Y386497D01*
X784756Y386460D01*
X784862Y386420D01*
X784966Y386375D01*
X785069Y386327D01*
X785170Y386276D01*
X785269Y386221D01*
X785366Y386163D01*
X785461Y386101D01*
X785554Y386036D01*
X785644Y385968D01*
X785732Y385897D01*
X785818Y385822D01*
X785901Y385745D01*
X785981Y385665D01*
X786058Y385582D01*
X786133Y385496D01*
X786204Y385408D01*
X786272Y385318D01*
X786337Y385225D01*
X786399Y385130D01*
X786457Y385033D01*
X786512Y384934D01*
X786563Y384833D01*
X786611Y384730D01*
X786656Y384626D01*
X786696Y384520D01*
X786733Y384413D01*
X786766Y384305D01*
X786796Y384195D01*
X786821Y384085D01*
X786843Y383974D01*
X786860Y383862D01*
X786874Y383749D01*
X786884Y383636D01*
X786890Y383523D01*
X786892Y383410D01*
X786890Y383297D01*
X786884Y383184D01*
X786874Y383071D01*
X786860Y382958D01*
X786843Y382846D01*
X786821Y382735D01*
X786796Y382625D01*
X786766Y382515D01*
X786733Y382407D01*
X786696Y382300D01*
X786656Y382194D01*
X786611Y382090D01*
X786563Y381987D01*
X786512Y381886D01*
X786457Y381787D01*
X786399Y381690D01*
X786337Y381595D01*
X786272Y381502D01*
X786204Y381412D01*
X786133Y381324D01*
X786058Y381238D01*
X785981Y381155D01*
X785901Y381075D01*
X785818Y380998D01*
X785732Y380923D01*
X785644Y380852D01*
X785554Y380784D01*
X785461Y380719D01*
X785366Y380657D01*
X785269Y380599D01*
X785170Y380544D01*
X785069Y380493D01*
X784966Y380445D01*
X784862Y380400D01*
X784756Y380360D01*
X784649Y380323D01*
X784541Y380290D01*
X784431Y380260D01*
X784321Y380235D01*
X784210Y380213D01*
X784098Y380196D01*
X783985Y380182D01*
X783872Y380172D01*
X783759Y380166D01*
X783646Y380164D01*
X780401Y380164D01*
X780258Y380166D01*
X780115Y380172D01*
X779972Y380182D01*
X779830Y380196D01*
X779688Y380213D01*
X779546Y380235D01*
X779405Y380260D01*
X779265Y380290D01*
X779126Y380323D01*
X778988Y380360D01*
X778851Y380401D01*
X778715Y380445D01*
X778580Y380494D01*
X778447Y380546D01*
X778315Y380601D01*
X778185Y380661D01*
X778056Y380724D01*
X777929Y380790D01*
X777805Y380860D01*
X777682Y380933D01*
X777561Y381010D01*
X777442Y381089D01*
X777326Y381173D01*
X777211Y381259D01*
X777100Y381348D01*
X776991Y381441D01*
X776884Y381536D01*
X776780Y381635D01*
X776679Y381736D01*
X776580Y381840D01*
X776485Y381946D01*
X776392Y382056D01*
X776303Y382167D01*
X776217Y382281D01*
X776134Y382398D01*
X776054Y382517D01*
X775977Y382638D01*
X775904Y382760D01*
X775834Y382885D01*
X775768Y383012D01*
X775705Y383141D01*
X775645Y383271D01*
X775590Y383403D01*
X775538Y383536D01*
X775489Y383671D01*
X775445Y383807D01*
X775404Y383944D01*
X775367Y384082D01*
X775334Y384221D01*
X775304Y384361D01*
X775279Y384502D01*
X775257Y384644D01*
X775240Y384786D01*
X775226Y384928D01*
X775216Y385071D01*
X775210Y385214D01*
X775208Y385357D01*
X902208Y127508D02*
X913892Y127508D01*
X902208Y127508D02*
X902208Y130754D01*
X902210Y130867D01*
X902216Y130980D01*
X902226Y131093D01*
X902240Y131206D01*
X902257Y131318D01*
X902279Y131429D01*
X902304Y131539D01*
X902334Y131649D01*
X902367Y131757D01*
X902404Y131864D01*
X902444Y131970D01*
X902489Y132074D01*
X902537Y132177D01*
X902588Y132278D01*
X902643Y132377D01*
X902701Y132474D01*
X902763Y132569D01*
X902828Y132662D01*
X902896Y132752D01*
X902967Y132840D01*
X903042Y132926D01*
X903119Y133009D01*
X903199Y133089D01*
X903282Y133166D01*
X903368Y133241D01*
X903456Y133312D01*
X903546Y133380D01*
X903639Y133445D01*
X903734Y133507D01*
X903831Y133565D01*
X903930Y133620D01*
X904031Y133671D01*
X904134Y133719D01*
X904238Y133764D01*
X904344Y133804D01*
X904451Y133841D01*
X904559Y133874D01*
X904669Y133904D01*
X904779Y133929D01*
X904890Y133951D01*
X905002Y133968D01*
X905115Y133982D01*
X905228Y133992D01*
X905341Y133998D01*
X905454Y134000D01*
X905567Y133998D01*
X905680Y133992D01*
X905793Y133982D01*
X905906Y133968D01*
X906018Y133951D01*
X906129Y133929D01*
X906239Y133904D01*
X906349Y133874D01*
X906457Y133841D01*
X906564Y133804D01*
X906670Y133764D01*
X906774Y133719D01*
X906877Y133671D01*
X906978Y133620D01*
X907077Y133565D01*
X907174Y133507D01*
X907269Y133445D01*
X907362Y133380D01*
X907452Y133312D01*
X907540Y133241D01*
X907626Y133166D01*
X907709Y133089D01*
X907789Y133009D01*
X907866Y132926D01*
X907941Y132840D01*
X908012Y132752D01*
X908080Y132662D01*
X908145Y132569D01*
X908207Y132474D01*
X908265Y132377D01*
X908320Y132278D01*
X908371Y132177D01*
X908419Y132074D01*
X908464Y131970D01*
X908504Y131864D01*
X908541Y131757D01*
X908574Y131649D01*
X908604Y131539D01*
X908629Y131429D01*
X908651Y131318D01*
X908668Y131206D01*
X908682Y131093D01*
X908692Y130980D01*
X908698Y130867D01*
X908700Y130754D01*
X908699Y130754D02*
X908699Y127508D01*
X908699Y131403D02*
X913892Y133999D01*
X903506Y138864D02*
X902208Y138864D01*
X902208Y145355D01*
X913892Y142110D01*
X497332Y423605D02*
X485648Y423605D01*
X485648Y426850D01*
X485650Y426963D01*
X485656Y427076D01*
X485666Y427189D01*
X485680Y427302D01*
X485697Y427414D01*
X485719Y427525D01*
X485744Y427635D01*
X485774Y427745D01*
X485807Y427853D01*
X485844Y427960D01*
X485884Y428066D01*
X485929Y428170D01*
X485977Y428273D01*
X486028Y428374D01*
X486083Y428473D01*
X486141Y428570D01*
X486203Y428665D01*
X486268Y428758D01*
X486336Y428848D01*
X486407Y428936D01*
X486482Y429022D01*
X486559Y429105D01*
X486639Y429185D01*
X486722Y429262D01*
X486808Y429337D01*
X486896Y429408D01*
X486986Y429476D01*
X487079Y429541D01*
X487174Y429603D01*
X487271Y429661D01*
X487370Y429716D01*
X487471Y429767D01*
X487574Y429815D01*
X487678Y429860D01*
X487784Y429900D01*
X487891Y429937D01*
X487999Y429970D01*
X488109Y430000D01*
X488219Y430025D01*
X488330Y430047D01*
X488442Y430064D01*
X488555Y430078D01*
X488668Y430088D01*
X488781Y430094D01*
X488894Y430096D01*
X489007Y430094D01*
X489120Y430088D01*
X489233Y430078D01*
X489346Y430064D01*
X489458Y430047D01*
X489569Y430025D01*
X489679Y430000D01*
X489789Y429970D01*
X489897Y429937D01*
X490004Y429900D01*
X490110Y429860D01*
X490214Y429815D01*
X490317Y429767D01*
X490418Y429716D01*
X490517Y429661D01*
X490614Y429603D01*
X490709Y429541D01*
X490802Y429476D01*
X490892Y429408D01*
X490980Y429337D01*
X491066Y429262D01*
X491149Y429185D01*
X491229Y429105D01*
X491306Y429022D01*
X491381Y428936D01*
X491452Y428848D01*
X491520Y428758D01*
X491585Y428665D01*
X491647Y428570D01*
X491705Y428473D01*
X491760Y428374D01*
X491811Y428273D01*
X491859Y428170D01*
X491904Y428066D01*
X491944Y427960D01*
X491981Y427853D01*
X492014Y427745D01*
X492044Y427635D01*
X492069Y427525D01*
X492091Y427414D01*
X492108Y427302D01*
X492122Y427189D01*
X492132Y427076D01*
X492138Y426963D01*
X492140Y426850D01*
X492139Y426850D02*
X492139Y423605D01*
X492139Y427499D02*
X497332Y430096D01*
X492139Y437557D02*
X492139Y441452D01*
X492139Y437557D02*
X492137Y437458D01*
X492131Y437358D01*
X492122Y437259D01*
X492109Y437161D01*
X492092Y437063D01*
X492071Y436965D01*
X492046Y436869D01*
X492018Y436774D01*
X491986Y436680D01*
X491951Y436587D01*
X491912Y436495D01*
X491869Y436405D01*
X491824Y436317D01*
X491774Y436230D01*
X491722Y436146D01*
X491666Y436063D01*
X491608Y435983D01*
X491546Y435905D01*
X491481Y435830D01*
X491413Y435757D01*
X491343Y435687D01*
X491270Y435619D01*
X491195Y435554D01*
X491117Y435492D01*
X491037Y435434D01*
X490954Y435378D01*
X490870Y435326D01*
X490783Y435276D01*
X490695Y435231D01*
X490605Y435188D01*
X490513Y435149D01*
X490420Y435114D01*
X490326Y435082D01*
X490231Y435054D01*
X490135Y435029D01*
X490037Y435008D01*
X489939Y434991D01*
X489841Y434978D01*
X489742Y434969D01*
X489642Y434963D01*
X489543Y434961D01*
X488894Y434961D01*
X488894Y434960D02*
X488781Y434962D01*
X488668Y434968D01*
X488555Y434978D01*
X488442Y434992D01*
X488330Y435009D01*
X488219Y435031D01*
X488109Y435056D01*
X487999Y435086D01*
X487891Y435119D01*
X487784Y435156D01*
X487678Y435196D01*
X487574Y435241D01*
X487471Y435289D01*
X487370Y435340D01*
X487271Y435395D01*
X487174Y435453D01*
X487079Y435515D01*
X486986Y435580D01*
X486896Y435648D01*
X486808Y435719D01*
X486722Y435794D01*
X486639Y435871D01*
X486559Y435951D01*
X486482Y436034D01*
X486407Y436120D01*
X486336Y436208D01*
X486268Y436298D01*
X486203Y436391D01*
X486141Y436486D01*
X486083Y436583D01*
X486028Y436682D01*
X485977Y436783D01*
X485929Y436886D01*
X485884Y436990D01*
X485844Y437096D01*
X485807Y437203D01*
X485774Y437311D01*
X485744Y437421D01*
X485719Y437531D01*
X485697Y437642D01*
X485680Y437754D01*
X485666Y437867D01*
X485656Y437980D01*
X485650Y438093D01*
X485648Y438206D01*
X485650Y438319D01*
X485656Y438432D01*
X485666Y438545D01*
X485680Y438658D01*
X485697Y438770D01*
X485719Y438881D01*
X485744Y438991D01*
X485774Y439101D01*
X485807Y439209D01*
X485844Y439316D01*
X485884Y439422D01*
X485929Y439526D01*
X485977Y439629D01*
X486028Y439730D01*
X486083Y439829D01*
X486141Y439926D01*
X486203Y440021D01*
X486268Y440114D01*
X486336Y440204D01*
X486407Y440292D01*
X486482Y440378D01*
X486559Y440461D01*
X486639Y440541D01*
X486722Y440618D01*
X486808Y440693D01*
X486896Y440764D01*
X486986Y440832D01*
X487079Y440897D01*
X487174Y440959D01*
X487271Y441017D01*
X487370Y441072D01*
X487471Y441123D01*
X487574Y441171D01*
X487678Y441216D01*
X487784Y441256D01*
X487891Y441293D01*
X487999Y441326D01*
X488109Y441356D01*
X488219Y441381D01*
X488330Y441403D01*
X488442Y441420D01*
X488555Y441434D01*
X488668Y441444D01*
X488781Y441450D01*
X488894Y441452D01*
X492139Y441452D01*
X492282Y441450D01*
X492425Y441444D01*
X492568Y441434D01*
X492710Y441420D01*
X492852Y441403D01*
X492994Y441381D01*
X493135Y441356D01*
X493275Y441326D01*
X493414Y441293D01*
X493552Y441256D01*
X493689Y441215D01*
X493825Y441171D01*
X493960Y441122D01*
X494093Y441070D01*
X494225Y441015D01*
X494355Y440955D01*
X494484Y440892D01*
X494611Y440826D01*
X494736Y440756D01*
X494858Y440683D01*
X494979Y440606D01*
X495098Y440526D01*
X495214Y440443D01*
X495329Y440357D01*
X495440Y440268D01*
X495550Y440175D01*
X495656Y440080D01*
X495760Y439981D01*
X495861Y439880D01*
X495960Y439776D01*
X496055Y439670D01*
X496148Y439560D01*
X496237Y439449D01*
X496323Y439334D01*
X496406Y439218D01*
X496486Y439099D01*
X496563Y438978D01*
X496636Y438856D01*
X496706Y438731D01*
X496772Y438604D01*
X496835Y438475D01*
X496895Y438345D01*
X496950Y438213D01*
X497002Y438080D01*
X497051Y437945D01*
X497095Y437809D01*
X497136Y437672D01*
X497173Y437534D01*
X497206Y437395D01*
X497236Y437255D01*
X497261Y437114D01*
X497283Y436972D01*
X497300Y436830D01*
X497314Y436688D01*
X497324Y436545D01*
X497330Y436402D01*
X497332Y436259D01*
D12*
X933450Y273050D02*
X933450Y234950D01*
X933450Y273050D02*
X971550Y273050D01*
X971550Y234950D01*
X933450Y234950D01*
D17*
X935990Y237490D02*
X935990Y270510D01*
X969010Y270510D01*
X969010Y237490D01*
X935990Y237490D01*
D12*
X891540Y243840D02*
X887730Y243840D01*
X891540Y243840D02*
X891540Y264160D01*
X887730Y264160D02*
X887730Y243840D01*
X887730Y264160D02*
X891540Y264160D01*
X891540Y304800D02*
X901700Y314960D01*
X891540Y304800D02*
X891540Y271780D01*
X901700Y314960D02*
X914400Y314960D01*
X941070Y314960D02*
X963930Y314960D01*
X1003300Y314960D02*
X1013460Y304800D01*
X1003300Y314960D02*
X990600Y314960D01*
X963930Y193040D02*
X941070Y193040D01*
X990600Y193040D02*
X1003300Y193040D01*
X1013460Y203200D01*
X1013460Y236220D01*
X891540Y236220D02*
X891540Y203200D01*
X901700Y193040D01*
X914400Y193040D01*
X1017270Y243840D02*
X1017270Y264160D01*
X1017270Y243840D02*
X1013460Y243840D01*
X1013460Y264160D02*
X1017270Y264160D01*
X891540Y304800D02*
X889000Y302260D01*
X889000Y271780D01*
X891540Y271780D01*
X891540Y264160D01*
X891540Y236220D02*
X889000Y236220D01*
X891540Y236220D02*
X891540Y243840D01*
X889000Y236220D02*
X889000Y205740D01*
X891540Y203200D01*
X1013460Y243840D02*
X1013460Y264160D01*
X1013460Y271780D01*
X1013460Y236220D02*
X1016000Y236220D01*
X1013460Y236220D02*
X1013460Y243840D01*
X1016000Y236220D02*
X1016000Y205740D01*
X1013460Y203200D01*
X1013460Y271780D02*
X1016000Y271780D01*
X1013460Y271780D02*
X1013460Y304800D01*
X1016000Y302260D02*
X1016000Y271780D01*
X1016000Y302260D02*
X1013460Y304800D01*
X916940Y254000D02*
X916951Y254873D01*
X916983Y255745D01*
X917036Y256616D01*
X917111Y257485D01*
X917207Y258353D01*
X917325Y259218D01*
X917464Y260079D01*
X917623Y260937D01*
X917804Y261791D01*
X918006Y262640D01*
X918228Y263484D01*
X918471Y264323D01*
X918735Y265155D01*
X919019Y265980D01*
X919323Y266798D01*
X919647Y267608D01*
X919991Y268410D01*
X920354Y269204D01*
X920737Y269988D01*
X921139Y270763D01*
X921560Y271527D01*
X921999Y272281D01*
X922457Y273025D01*
X922933Y273756D01*
X923427Y274476D01*
X923938Y275183D01*
X924466Y275878D01*
X925012Y276559D01*
X925574Y277227D01*
X926152Y277881D01*
X926746Y278520D01*
X927355Y279145D01*
X927980Y279754D01*
X928619Y280348D01*
X929273Y280926D01*
X929941Y281488D01*
X930622Y282034D01*
X931317Y282562D01*
X932024Y283073D01*
X932744Y283567D01*
X933475Y284043D01*
X934219Y284501D01*
X934973Y284940D01*
X935737Y285361D01*
X936512Y285763D01*
X937296Y286146D01*
X938090Y286509D01*
X938892Y286853D01*
X939702Y287177D01*
X940520Y287481D01*
X941345Y287765D01*
X942177Y288029D01*
X943016Y288272D01*
X943860Y288494D01*
X944709Y288696D01*
X945563Y288877D01*
X946421Y289036D01*
X947282Y289175D01*
X948147Y289293D01*
X949015Y289389D01*
X949884Y289464D01*
X950755Y289517D01*
X951627Y289549D01*
X952500Y289560D01*
X953373Y289549D01*
X954245Y289517D01*
X955116Y289464D01*
X955985Y289389D01*
X956853Y289293D01*
X957718Y289175D01*
X958579Y289036D01*
X959437Y288877D01*
X960291Y288696D01*
X961140Y288494D01*
X961984Y288272D01*
X962823Y288029D01*
X963655Y287765D01*
X964480Y287481D01*
X965298Y287177D01*
X966108Y286853D01*
X966910Y286509D01*
X967704Y286146D01*
X968488Y285763D01*
X969263Y285361D01*
X970027Y284940D01*
X970781Y284501D01*
X971525Y284043D01*
X972256Y283567D01*
X972976Y283073D01*
X973683Y282562D01*
X974378Y282034D01*
X975059Y281488D01*
X975727Y280926D01*
X976381Y280348D01*
X977020Y279754D01*
X977645Y279145D01*
X978254Y278520D01*
X978848Y277881D01*
X979426Y277227D01*
X979988Y276559D01*
X980534Y275878D01*
X981062Y275183D01*
X981573Y274476D01*
X982067Y273756D01*
X982543Y273025D01*
X983001Y272281D01*
X983440Y271527D01*
X983861Y270763D01*
X984263Y269988D01*
X984646Y269204D01*
X985009Y268410D01*
X985353Y267608D01*
X985677Y266798D01*
X985981Y265980D01*
X986265Y265155D01*
X986529Y264323D01*
X986772Y263484D01*
X986994Y262640D01*
X987196Y261791D01*
X987377Y260937D01*
X987536Y260079D01*
X987675Y259218D01*
X987793Y258353D01*
X987889Y257485D01*
X987964Y256616D01*
X988017Y255745D01*
X988049Y254873D01*
X988060Y254000D01*
X988049Y253127D01*
X988017Y252255D01*
X987964Y251384D01*
X987889Y250515D01*
X987793Y249647D01*
X987675Y248782D01*
X987536Y247921D01*
X987377Y247063D01*
X987196Y246209D01*
X986994Y245360D01*
X986772Y244516D01*
X986529Y243677D01*
X986265Y242845D01*
X985981Y242020D01*
X985677Y241202D01*
X985353Y240392D01*
X985009Y239590D01*
X984646Y238796D01*
X984263Y238012D01*
X983861Y237237D01*
X983440Y236473D01*
X983001Y235719D01*
X982543Y234975D01*
X982067Y234244D01*
X981573Y233524D01*
X981062Y232817D01*
X980534Y232122D01*
X979988Y231441D01*
X979426Y230773D01*
X978848Y230119D01*
X978254Y229480D01*
X977645Y228855D01*
X977020Y228246D01*
X976381Y227652D01*
X975727Y227074D01*
X975059Y226512D01*
X974378Y225966D01*
X973683Y225438D01*
X972976Y224927D01*
X972256Y224433D01*
X971525Y223957D01*
X970781Y223499D01*
X970027Y223060D01*
X969263Y222639D01*
X968488Y222237D01*
X967704Y221854D01*
X966910Y221491D01*
X966108Y221147D01*
X965298Y220823D01*
X964480Y220519D01*
X963655Y220235D01*
X962823Y219971D01*
X961984Y219728D01*
X961140Y219506D01*
X960291Y219304D01*
X959437Y219123D01*
X958579Y218964D01*
X957718Y218825D01*
X956853Y218707D01*
X955985Y218611D01*
X955116Y218536D01*
X954245Y218483D01*
X953373Y218451D01*
X952500Y218440D01*
X951627Y218451D01*
X950755Y218483D01*
X949884Y218536D01*
X949015Y218611D01*
X948147Y218707D01*
X947282Y218825D01*
X946421Y218964D01*
X945563Y219123D01*
X944709Y219304D01*
X943860Y219506D01*
X943016Y219728D01*
X942177Y219971D01*
X941345Y220235D01*
X940520Y220519D01*
X939702Y220823D01*
X938892Y221147D01*
X938090Y221491D01*
X937296Y221854D01*
X936512Y222237D01*
X935737Y222639D01*
X934973Y223060D01*
X934219Y223499D01*
X933475Y223957D01*
X932744Y224433D01*
X932024Y224927D01*
X931317Y225438D01*
X930622Y225966D01*
X929941Y226512D01*
X929273Y227074D01*
X928619Y227652D01*
X927980Y228246D01*
X927355Y228855D01*
X926746Y229480D01*
X926152Y230119D01*
X925574Y230773D01*
X925012Y231441D01*
X924466Y232122D01*
X923938Y232817D01*
X923427Y233524D01*
X922933Y234244D01*
X922457Y234975D01*
X921999Y235719D01*
X921560Y236473D01*
X921139Y237237D01*
X920737Y238012D01*
X920354Y238796D01*
X919991Y239590D01*
X919647Y240392D01*
X919323Y241202D01*
X919019Y242020D01*
X918735Y242845D01*
X918471Y243677D01*
X918228Y244516D01*
X918006Y245360D01*
X917804Y246209D01*
X917623Y247063D01*
X917464Y247921D01*
X917325Y248782D01*
X917207Y249647D01*
X917111Y250515D01*
X917036Y251384D01*
X916983Y252255D01*
X916951Y253127D01*
X916940Y254000D01*
D17*
X942340Y254000D02*
X942343Y254249D01*
X942352Y254499D01*
X942368Y254747D01*
X942389Y254996D01*
X942416Y255244D01*
X942450Y255491D01*
X942490Y255737D01*
X942535Y255982D01*
X942587Y256226D01*
X942644Y256469D01*
X942708Y256710D01*
X942777Y256949D01*
X942853Y257187D01*
X942934Y257423D01*
X943021Y257657D01*
X943113Y257888D01*
X943212Y258117D01*
X943315Y258344D01*
X943425Y258568D01*
X943540Y258789D01*
X943660Y259008D01*
X943785Y259223D01*
X943916Y259436D01*
X944052Y259645D01*
X944193Y259850D01*
X944339Y260052D01*
X944490Y260251D01*
X944646Y260445D01*
X944807Y260636D01*
X944972Y260823D01*
X945142Y261006D01*
X945316Y261184D01*
X945494Y261358D01*
X945677Y261528D01*
X945864Y261693D01*
X946055Y261854D01*
X946249Y262010D01*
X946448Y262161D01*
X946650Y262307D01*
X946855Y262448D01*
X947064Y262584D01*
X947277Y262715D01*
X947492Y262840D01*
X947711Y262960D01*
X947932Y263075D01*
X948156Y263185D01*
X948383Y263288D01*
X948612Y263387D01*
X948843Y263479D01*
X949077Y263566D01*
X949313Y263647D01*
X949551Y263723D01*
X949790Y263792D01*
X950031Y263856D01*
X950274Y263913D01*
X950518Y263965D01*
X950763Y264010D01*
X951009Y264050D01*
X951256Y264084D01*
X951504Y264111D01*
X951753Y264132D01*
X952001Y264148D01*
X952251Y264157D01*
X952500Y264160D01*
X952749Y264157D01*
X952999Y264148D01*
X953247Y264132D01*
X953496Y264111D01*
X953744Y264084D01*
X953991Y264050D01*
X954237Y264010D01*
X954482Y263965D01*
X954726Y263913D01*
X954969Y263856D01*
X955210Y263792D01*
X955449Y263723D01*
X955687Y263647D01*
X955923Y263566D01*
X956157Y263479D01*
X956388Y263387D01*
X956617Y263288D01*
X956844Y263185D01*
X957068Y263075D01*
X957289Y262960D01*
X957508Y262840D01*
X957723Y262715D01*
X957936Y262584D01*
X958145Y262448D01*
X958350Y262307D01*
X958552Y262161D01*
X958751Y262010D01*
X958945Y261854D01*
X959136Y261693D01*
X959323Y261528D01*
X959506Y261358D01*
X959684Y261184D01*
X959858Y261006D01*
X960028Y260823D01*
X960193Y260636D01*
X960354Y260445D01*
X960510Y260251D01*
X960661Y260052D01*
X960807Y259850D01*
X960948Y259645D01*
X961084Y259436D01*
X961215Y259223D01*
X961340Y259008D01*
X961460Y258789D01*
X961575Y258568D01*
X961685Y258344D01*
X961788Y258117D01*
X961887Y257888D01*
X961979Y257657D01*
X962066Y257423D01*
X962147Y257187D01*
X962223Y256949D01*
X962292Y256710D01*
X962356Y256469D01*
X962413Y256226D01*
X962465Y255982D01*
X962510Y255737D01*
X962550Y255491D01*
X962584Y255244D01*
X962611Y254996D01*
X962632Y254747D01*
X962648Y254499D01*
X962657Y254249D01*
X962660Y254000D01*
X962657Y253751D01*
X962648Y253501D01*
X962632Y253253D01*
X962611Y253004D01*
X962584Y252756D01*
X962550Y252509D01*
X962510Y252263D01*
X962465Y252018D01*
X962413Y251774D01*
X962356Y251531D01*
X962292Y251290D01*
X962223Y251051D01*
X962147Y250813D01*
X962066Y250577D01*
X961979Y250343D01*
X961887Y250112D01*
X961788Y249883D01*
X961685Y249656D01*
X961575Y249432D01*
X961460Y249211D01*
X961340Y248992D01*
X961215Y248777D01*
X961084Y248564D01*
X960948Y248355D01*
X960807Y248150D01*
X960661Y247948D01*
X960510Y247749D01*
X960354Y247555D01*
X960193Y247364D01*
X960028Y247177D01*
X959858Y246994D01*
X959684Y246816D01*
X959506Y246642D01*
X959323Y246472D01*
X959136Y246307D01*
X958945Y246146D01*
X958751Y245990D01*
X958552Y245839D01*
X958350Y245693D01*
X958145Y245552D01*
X957936Y245416D01*
X957723Y245285D01*
X957508Y245160D01*
X957289Y245040D01*
X957068Y244925D01*
X956844Y244815D01*
X956617Y244712D01*
X956388Y244613D01*
X956157Y244521D01*
X955923Y244434D01*
X955687Y244353D01*
X955449Y244277D01*
X955210Y244208D01*
X954969Y244144D01*
X954726Y244087D01*
X954482Y244035D01*
X954237Y243990D01*
X953991Y243950D01*
X953744Y243916D01*
X953496Y243889D01*
X953247Y243868D01*
X952999Y243852D01*
X952749Y243843D01*
X952500Y243840D01*
X952251Y243843D01*
X952001Y243852D01*
X951753Y243868D01*
X951504Y243889D01*
X951256Y243916D01*
X951009Y243950D01*
X950763Y243990D01*
X950518Y244035D01*
X950274Y244087D01*
X950031Y244144D01*
X949790Y244208D01*
X949551Y244277D01*
X949313Y244353D01*
X949077Y244434D01*
X948843Y244521D01*
X948612Y244613D01*
X948383Y244712D01*
X948156Y244815D01*
X947932Y244925D01*
X947711Y245040D01*
X947492Y245160D01*
X947277Y245285D01*
X947064Y245416D01*
X946855Y245552D01*
X946650Y245693D01*
X946448Y245839D01*
X946249Y245990D01*
X946055Y246146D01*
X945864Y246307D01*
X945677Y246472D01*
X945494Y246642D01*
X945316Y246816D01*
X945142Y246994D01*
X944972Y247177D01*
X944807Y247364D01*
X944646Y247555D01*
X944490Y247749D01*
X944339Y247948D01*
X944193Y248150D01*
X944052Y248355D01*
X943916Y248564D01*
X943785Y248777D01*
X943660Y248992D01*
X943540Y249211D01*
X943425Y249432D01*
X943315Y249656D01*
X943212Y249883D01*
X943113Y250112D01*
X943021Y250343D01*
X942934Y250577D01*
X942853Y250813D01*
X942777Y251051D01*
X942708Y251290D01*
X942644Y251531D01*
X942587Y251774D01*
X942535Y252018D01*
X942490Y252263D01*
X942450Y252509D01*
X942416Y252756D01*
X942389Y253004D01*
X942368Y253253D01*
X942352Y253501D01*
X942343Y253751D01*
X942340Y254000D01*
X944880Y254000D02*
X944882Y254187D01*
X944889Y254374D01*
X944901Y254561D01*
X944917Y254747D01*
X944937Y254933D01*
X944962Y255118D01*
X944992Y255303D01*
X945026Y255487D01*
X945065Y255670D01*
X945108Y255852D01*
X945156Y256032D01*
X945208Y256212D01*
X945265Y256390D01*
X945325Y256567D01*
X945391Y256742D01*
X945460Y256916D01*
X945534Y257088D01*
X945612Y257258D01*
X945694Y257426D01*
X945780Y257592D01*
X945870Y257756D01*
X945964Y257917D01*
X946062Y258077D01*
X946164Y258233D01*
X946270Y258388D01*
X946380Y258539D01*
X946493Y258688D01*
X946610Y258834D01*
X946730Y258977D01*
X946854Y259117D01*
X946981Y259254D01*
X947112Y259388D01*
X947246Y259519D01*
X947383Y259646D01*
X947523Y259770D01*
X947666Y259890D01*
X947812Y260007D01*
X947961Y260120D01*
X948112Y260230D01*
X948267Y260336D01*
X948423Y260438D01*
X948583Y260536D01*
X948744Y260630D01*
X948908Y260720D01*
X949074Y260806D01*
X949242Y260888D01*
X949412Y260966D01*
X949584Y261040D01*
X949758Y261109D01*
X949933Y261175D01*
X950110Y261235D01*
X950288Y261292D01*
X950468Y261344D01*
X950648Y261392D01*
X950830Y261435D01*
X951013Y261474D01*
X951197Y261508D01*
X951382Y261538D01*
X951567Y261563D01*
X951753Y261583D01*
X951939Y261599D01*
X952126Y261611D01*
X952313Y261618D01*
X952500Y261620D01*
X952687Y261618D01*
X952874Y261611D01*
X953061Y261599D01*
X953247Y261583D01*
X953433Y261563D01*
X953618Y261538D01*
X953803Y261508D01*
X953987Y261474D01*
X954170Y261435D01*
X954352Y261392D01*
X954532Y261344D01*
X954712Y261292D01*
X954890Y261235D01*
X955067Y261175D01*
X955242Y261109D01*
X955416Y261040D01*
X955588Y260966D01*
X955758Y260888D01*
X955926Y260806D01*
X956092Y260720D01*
X956256Y260630D01*
X956417Y260536D01*
X956577Y260438D01*
X956733Y260336D01*
X956888Y260230D01*
X957039Y260120D01*
X957188Y260007D01*
X957334Y259890D01*
X957477Y259770D01*
X957617Y259646D01*
X957754Y259519D01*
X957888Y259388D01*
X958019Y259254D01*
X958146Y259117D01*
X958270Y258977D01*
X958390Y258834D01*
X958507Y258688D01*
X958620Y258539D01*
X958730Y258388D01*
X958836Y258233D01*
X958938Y258077D01*
X959036Y257917D01*
X959130Y257756D01*
X959220Y257592D01*
X959306Y257426D01*
X959388Y257258D01*
X959466Y257088D01*
X959540Y256916D01*
X959609Y256742D01*
X959675Y256567D01*
X959735Y256390D01*
X959792Y256212D01*
X959844Y256032D01*
X959892Y255852D01*
X959935Y255670D01*
X959974Y255487D01*
X960008Y255303D01*
X960038Y255118D01*
X960063Y254933D01*
X960083Y254747D01*
X960099Y254561D01*
X960111Y254374D01*
X960118Y254187D01*
X960120Y254000D01*
X960118Y253813D01*
X960111Y253626D01*
X960099Y253439D01*
X960083Y253253D01*
X960063Y253067D01*
X960038Y252882D01*
X960008Y252697D01*
X959974Y252513D01*
X959935Y252330D01*
X959892Y252148D01*
X959844Y251968D01*
X959792Y251788D01*
X959735Y251610D01*
X959675Y251433D01*
X959609Y251258D01*
X959540Y251084D01*
X959466Y250912D01*
X959388Y250742D01*
X959306Y250574D01*
X959220Y250408D01*
X959130Y250244D01*
X959036Y250083D01*
X958938Y249923D01*
X958836Y249767D01*
X958730Y249612D01*
X958620Y249461D01*
X958507Y249312D01*
X958390Y249166D01*
X958270Y249023D01*
X958146Y248883D01*
X958019Y248746D01*
X957888Y248612D01*
X957754Y248481D01*
X957617Y248354D01*
X957477Y248230D01*
X957334Y248110D01*
X957188Y247993D01*
X957039Y247880D01*
X956888Y247770D01*
X956733Y247664D01*
X956577Y247562D01*
X956417Y247464D01*
X956256Y247370D01*
X956092Y247280D01*
X955926Y247194D01*
X955758Y247112D01*
X955588Y247034D01*
X955416Y246960D01*
X955242Y246891D01*
X955067Y246825D01*
X954890Y246765D01*
X954712Y246708D01*
X954532Y246656D01*
X954352Y246608D01*
X954170Y246565D01*
X953987Y246526D01*
X953803Y246492D01*
X953618Y246462D01*
X953433Y246437D01*
X953247Y246417D01*
X953061Y246401D01*
X952874Y246389D01*
X952687Y246382D01*
X952500Y246380D01*
X952313Y246382D01*
X952126Y246389D01*
X951939Y246401D01*
X951753Y246417D01*
X951567Y246437D01*
X951382Y246462D01*
X951197Y246492D01*
X951013Y246526D01*
X950830Y246565D01*
X950648Y246608D01*
X950468Y246656D01*
X950288Y246708D01*
X950110Y246765D01*
X949933Y246825D01*
X949758Y246891D01*
X949584Y246960D01*
X949412Y247034D01*
X949242Y247112D01*
X949074Y247194D01*
X948908Y247280D01*
X948744Y247370D01*
X948583Y247464D01*
X948423Y247562D01*
X948267Y247664D01*
X948112Y247770D01*
X947961Y247880D01*
X947812Y247993D01*
X947666Y248110D01*
X947523Y248230D01*
X947383Y248354D01*
X947246Y248481D01*
X947112Y248612D01*
X946981Y248746D01*
X946854Y248883D01*
X946730Y249023D01*
X946610Y249166D01*
X946493Y249312D01*
X946380Y249461D01*
X946270Y249612D01*
X946164Y249767D01*
X946062Y249923D01*
X945964Y250083D01*
X945870Y250244D01*
X945780Y250408D01*
X945694Y250574D01*
X945612Y250742D01*
X945534Y250912D01*
X945460Y251084D01*
X945391Y251258D01*
X945325Y251433D01*
X945265Y251610D01*
X945208Y251788D01*
X945156Y251968D01*
X945108Y252148D01*
X945065Y252330D01*
X945026Y252513D01*
X944992Y252697D01*
X944962Y252882D01*
X944937Y253067D01*
X944917Y253253D01*
X944901Y253439D01*
X944889Y253626D01*
X944882Y253813D01*
X944880Y254000D01*
D13*
X907415Y205740D02*
X909955Y202565D01*
X907415Y205740D02*
X918845Y205740D01*
X918845Y202565D02*
X918845Y208915D01*
X907415Y297498D02*
X907417Y297602D01*
X907423Y297707D01*
X907432Y297811D01*
X907445Y297914D01*
X907463Y298017D01*
X907483Y298119D01*
X907508Y298221D01*
X907536Y298321D01*
X907568Y298421D01*
X907604Y298519D01*
X907643Y298616D01*
X907685Y298711D01*
X907731Y298805D01*
X907781Y298897D01*
X907833Y298987D01*
X907889Y299075D01*
X907949Y299161D01*
X908011Y299245D01*
X908076Y299326D01*
X908144Y299405D01*
X908216Y299482D01*
X908289Y299555D01*
X908366Y299627D01*
X908445Y299695D01*
X908526Y299760D01*
X908610Y299822D01*
X908696Y299882D01*
X908784Y299938D01*
X908874Y299990D01*
X908966Y300040D01*
X909060Y300086D01*
X909155Y300128D01*
X909252Y300167D01*
X909350Y300203D01*
X909450Y300235D01*
X909550Y300263D01*
X909652Y300288D01*
X909754Y300308D01*
X909857Y300326D01*
X909960Y300339D01*
X910064Y300348D01*
X910169Y300354D01*
X910273Y300356D01*
X907415Y297498D02*
X907417Y297380D01*
X907423Y297261D01*
X907432Y297143D01*
X907445Y297026D01*
X907463Y296909D01*
X907483Y296792D01*
X907508Y296676D01*
X907536Y296561D01*
X907569Y296448D01*
X907604Y296335D01*
X907644Y296223D01*
X907686Y296113D01*
X907733Y296004D01*
X907783Y295896D01*
X907836Y295791D01*
X907893Y295687D01*
X907953Y295585D01*
X908016Y295485D01*
X908083Y295387D01*
X908152Y295291D01*
X908225Y295198D01*
X908301Y295107D01*
X908379Y295018D01*
X908461Y294932D01*
X908545Y294849D01*
X908631Y294768D01*
X908721Y294691D01*
X908812Y294616D01*
X908906Y294544D01*
X909003Y294475D01*
X909101Y294410D01*
X909202Y294347D01*
X909305Y294288D01*
X909409Y294232D01*
X909515Y294180D01*
X909623Y294131D01*
X909732Y294086D01*
X909843Y294044D01*
X909955Y294006D01*
X912495Y299403D02*
X912420Y299479D01*
X912341Y299554D01*
X912260Y299625D01*
X912176Y299694D01*
X912090Y299759D01*
X912002Y299821D01*
X911912Y299881D01*
X911820Y299937D01*
X911725Y299990D01*
X911629Y300039D01*
X911531Y300085D01*
X911432Y300128D01*
X911331Y300167D01*
X911229Y300202D01*
X911126Y300234D01*
X911022Y300262D01*
X910917Y300287D01*
X910810Y300308D01*
X910704Y300325D01*
X910597Y300338D01*
X910489Y300347D01*
X910381Y300353D01*
X910273Y300355D01*
X912495Y299403D02*
X918845Y294005D01*
X918845Y300355D01*
X998855Y205740D02*
X998855Y202565D01*
X998855Y205740D02*
X998853Y205851D01*
X998847Y205961D01*
X998838Y206072D01*
X998824Y206182D01*
X998807Y206291D01*
X998786Y206400D01*
X998761Y206508D01*
X998732Y206615D01*
X998700Y206721D01*
X998664Y206826D01*
X998624Y206929D01*
X998581Y207031D01*
X998534Y207132D01*
X998483Y207231D01*
X998430Y207328D01*
X998373Y207422D01*
X998312Y207515D01*
X998249Y207606D01*
X998182Y207695D01*
X998112Y207781D01*
X998039Y207864D01*
X997964Y207946D01*
X997886Y208024D01*
X997804Y208099D01*
X997721Y208172D01*
X997635Y208242D01*
X997546Y208309D01*
X997455Y208372D01*
X997362Y208433D01*
X997268Y208490D01*
X997171Y208543D01*
X997072Y208594D01*
X996971Y208641D01*
X996869Y208684D01*
X996766Y208724D01*
X996661Y208760D01*
X996555Y208792D01*
X996448Y208821D01*
X996340Y208846D01*
X996231Y208867D01*
X996122Y208884D01*
X996012Y208898D01*
X995901Y208907D01*
X995791Y208913D01*
X995680Y208915D01*
X995569Y208913D01*
X995459Y208907D01*
X995348Y208898D01*
X995238Y208884D01*
X995129Y208867D01*
X995020Y208846D01*
X994912Y208821D01*
X994805Y208792D01*
X994699Y208760D01*
X994594Y208724D01*
X994491Y208684D01*
X994389Y208641D01*
X994288Y208594D01*
X994189Y208543D01*
X994093Y208490D01*
X993998Y208433D01*
X993905Y208372D01*
X993814Y208309D01*
X993725Y208242D01*
X993639Y208172D01*
X993556Y208099D01*
X993474Y208024D01*
X993396Y207946D01*
X993321Y207864D01*
X993248Y207781D01*
X993178Y207695D01*
X993111Y207606D01*
X993048Y207515D01*
X992987Y207422D01*
X992930Y207328D01*
X992877Y207231D01*
X992826Y207132D01*
X992779Y207031D01*
X992736Y206929D01*
X992696Y206826D01*
X992660Y206721D01*
X992628Y206615D01*
X992599Y206508D01*
X992574Y206400D01*
X992553Y206291D01*
X992536Y206182D01*
X992522Y206072D01*
X992513Y205961D01*
X992507Y205851D01*
X992505Y205740D01*
X987425Y206375D02*
X987425Y202565D01*
X987425Y206375D02*
X987427Y206475D01*
X987433Y206574D01*
X987443Y206674D01*
X987456Y206772D01*
X987474Y206871D01*
X987495Y206968D01*
X987520Y207064D01*
X987549Y207160D01*
X987582Y207254D01*
X987618Y207347D01*
X987658Y207438D01*
X987702Y207528D01*
X987749Y207616D01*
X987799Y207702D01*
X987853Y207786D01*
X987910Y207868D01*
X987970Y207947D01*
X988034Y208025D01*
X988100Y208099D01*
X988169Y208171D01*
X988241Y208240D01*
X988315Y208306D01*
X988393Y208370D01*
X988472Y208430D01*
X988554Y208487D01*
X988638Y208541D01*
X988724Y208591D01*
X988812Y208638D01*
X988902Y208682D01*
X988993Y208722D01*
X989086Y208758D01*
X989180Y208791D01*
X989276Y208820D01*
X989372Y208845D01*
X989469Y208866D01*
X989568Y208884D01*
X989666Y208897D01*
X989766Y208907D01*
X989865Y208913D01*
X989965Y208915D01*
X990065Y208913D01*
X990164Y208907D01*
X990264Y208897D01*
X990362Y208884D01*
X990461Y208866D01*
X990558Y208845D01*
X990654Y208820D01*
X990750Y208791D01*
X990844Y208758D01*
X990937Y208722D01*
X991028Y208682D01*
X991118Y208638D01*
X991206Y208591D01*
X991292Y208541D01*
X991376Y208487D01*
X991458Y208430D01*
X991537Y208370D01*
X991615Y208306D01*
X991689Y208240D01*
X991761Y208171D01*
X991830Y208099D01*
X991896Y208025D01*
X991960Y207947D01*
X992020Y207868D01*
X992077Y207786D01*
X992131Y207702D01*
X992181Y207616D01*
X992228Y207528D01*
X992272Y207438D01*
X992312Y207347D01*
X992348Y207254D01*
X992381Y207160D01*
X992410Y207064D01*
X992435Y206968D01*
X992456Y206871D01*
X992474Y206772D01*
X992487Y206674D01*
X992497Y206574D01*
X992503Y206475D01*
X992505Y206375D01*
X992505Y203835D01*
X996315Y295275D02*
X987425Y297815D01*
X996315Y295275D02*
X996315Y301625D01*
X993775Y299720D02*
X998855Y299720D01*
D18*
X891540Y287655D03*
X891540Y220345D03*
X1013460Y287655D03*
X1013460Y220345D03*
D13*
X882015Y207645D02*
X882013Y207745D01*
X882007Y207844D01*
X881997Y207944D01*
X881984Y208042D01*
X881966Y208141D01*
X881945Y208238D01*
X881920Y208334D01*
X881891Y208430D01*
X881858Y208524D01*
X881822Y208617D01*
X881782Y208708D01*
X881738Y208798D01*
X881691Y208886D01*
X881641Y208972D01*
X881587Y209056D01*
X881530Y209138D01*
X881470Y209217D01*
X881406Y209295D01*
X881340Y209369D01*
X881271Y209441D01*
X881199Y209510D01*
X881125Y209576D01*
X881047Y209640D01*
X880968Y209700D01*
X880886Y209757D01*
X880802Y209811D01*
X880716Y209861D01*
X880628Y209908D01*
X880538Y209952D01*
X880447Y209992D01*
X880354Y210028D01*
X880260Y210061D01*
X880164Y210090D01*
X880068Y210115D01*
X879971Y210136D01*
X879872Y210154D01*
X879774Y210167D01*
X879674Y210177D01*
X879575Y210183D01*
X879475Y210185D01*
X882015Y207645D02*
X882013Y207504D01*
X882008Y207363D01*
X881998Y207222D01*
X881985Y207081D01*
X881969Y206941D01*
X881948Y206801D01*
X881924Y206662D01*
X881896Y206523D01*
X881865Y206386D01*
X881830Y206249D01*
X881792Y206113D01*
X881750Y205978D01*
X881704Y205845D01*
X881655Y205712D01*
X881602Y205581D01*
X881546Y205452D01*
X881487Y205323D01*
X881424Y205197D01*
X881358Y205072D01*
X881289Y204949D01*
X881216Y204828D01*
X881140Y204709D01*
X881061Y204591D01*
X880980Y204476D01*
X880895Y204364D01*
X880807Y204253D01*
X880716Y204145D01*
X880623Y204039D01*
X880526Y203936D01*
X880427Y203835D01*
X873125Y204153D02*
X873025Y204155D01*
X872926Y204161D01*
X872826Y204171D01*
X872728Y204184D01*
X872629Y204202D01*
X872532Y204223D01*
X872436Y204248D01*
X872340Y204277D01*
X872246Y204310D01*
X872153Y204346D01*
X872062Y204386D01*
X871972Y204430D01*
X871884Y204477D01*
X871798Y204527D01*
X871714Y204581D01*
X871632Y204638D01*
X871553Y204698D01*
X871475Y204762D01*
X871401Y204828D01*
X871329Y204897D01*
X871260Y204969D01*
X871194Y205043D01*
X871130Y205121D01*
X871070Y205200D01*
X871013Y205282D01*
X870959Y205366D01*
X870909Y205452D01*
X870862Y205540D01*
X870818Y205630D01*
X870778Y205721D01*
X870742Y205814D01*
X870709Y205908D01*
X870680Y206004D01*
X870655Y206100D01*
X870634Y206197D01*
X870616Y206296D01*
X870603Y206394D01*
X870593Y206494D01*
X870587Y206593D01*
X870585Y206693D01*
X870587Y206826D01*
X870592Y206959D01*
X870602Y207092D01*
X870615Y207225D01*
X870632Y207357D01*
X870652Y207489D01*
X870676Y207620D01*
X870704Y207750D01*
X870735Y207880D01*
X870770Y208008D01*
X870809Y208136D01*
X870851Y208262D01*
X870897Y208387D01*
X870946Y208511D01*
X870998Y208634D01*
X871054Y208755D01*
X871114Y208874D01*
X871176Y208992D01*
X871242Y209107D01*
X871311Y209221D01*
X871384Y209333D01*
X871459Y209443D01*
X871538Y209551D01*
X875348Y205422D02*
X875296Y205338D01*
X875241Y205255D01*
X875182Y205175D01*
X875121Y205097D01*
X875057Y205022D01*
X874989Y204949D01*
X874919Y204878D01*
X874847Y204811D01*
X874772Y204746D01*
X874694Y204684D01*
X874614Y204625D01*
X874532Y204569D01*
X874448Y204517D01*
X874362Y204468D01*
X874274Y204422D01*
X874184Y204379D01*
X874093Y204340D01*
X874000Y204305D01*
X873906Y204273D01*
X873811Y204245D01*
X873715Y204220D01*
X873618Y204200D01*
X873520Y204182D01*
X873422Y204169D01*
X873323Y204160D01*
X873224Y204154D01*
X873125Y204152D01*
X877252Y208915D02*
X877304Y208999D01*
X877359Y209082D01*
X877418Y209162D01*
X877479Y209240D01*
X877543Y209315D01*
X877611Y209388D01*
X877681Y209459D01*
X877753Y209526D01*
X877828Y209591D01*
X877906Y209653D01*
X877986Y209712D01*
X878068Y209768D01*
X878152Y209820D01*
X878238Y209869D01*
X878326Y209915D01*
X878416Y209958D01*
X878507Y209997D01*
X878600Y210032D01*
X878694Y210064D01*
X878789Y210092D01*
X878885Y210117D01*
X878982Y210137D01*
X879080Y210155D01*
X879178Y210168D01*
X879277Y210177D01*
X879376Y210183D01*
X879475Y210185D01*
X877253Y208915D02*
X875348Y205423D01*
X873125Y214884D02*
X870585Y218059D01*
X882015Y218059D01*
X882015Y214884D02*
X882015Y221234D01*
D12*
X595630Y410210D02*
X595630Y412750D01*
X580390Y412750D01*
X580390Y410210D01*
X580390Y349250D02*
X580390Y346710D01*
X595630Y346710D01*
X595630Y349250D01*
D17*
X560070Y367030D02*
X557530Y367030D01*
X560070Y367030D02*
X560070Y392430D01*
X557530Y392430D01*
X615950Y391160D02*
X615950Y367030D01*
X615950Y391160D02*
X618490Y391160D01*
X618490Y367030D02*
X615950Y367030D01*
D12*
X618490Y367030D02*
X618490Y358140D01*
X557530Y392430D02*
X557530Y401320D01*
X557530Y392430D02*
X557530Y367030D01*
X557530Y358140D01*
X618490Y367030D02*
X618490Y391160D01*
X618490Y401320D01*
X598170Y410210D02*
X595630Y410210D01*
X580390Y410210D02*
X577850Y410210D01*
X595630Y349250D02*
X598170Y349250D01*
X580390Y349250D02*
X577850Y349250D01*
X570230Y379730D02*
X570235Y380166D01*
X570251Y380602D01*
X570278Y381038D01*
X570316Y381473D01*
X570364Y381906D01*
X570422Y382339D01*
X570492Y382770D01*
X570572Y383199D01*
X570662Y383626D01*
X570763Y384050D01*
X570874Y384472D01*
X570996Y384891D01*
X571127Y385307D01*
X571269Y385720D01*
X571421Y386129D01*
X571583Y386534D01*
X571755Y386935D01*
X571937Y387332D01*
X572128Y387724D01*
X572329Y388111D01*
X572540Y388494D01*
X572760Y388871D01*
X572989Y389242D01*
X573226Y389608D01*
X573473Y389968D01*
X573729Y390322D01*
X573993Y390669D01*
X574266Y391010D01*
X574547Y391343D01*
X574836Y391670D01*
X575133Y391990D01*
X575438Y392302D01*
X575750Y392607D01*
X576070Y392904D01*
X576397Y393193D01*
X576730Y393474D01*
X577071Y393747D01*
X577418Y394011D01*
X577772Y394267D01*
X578132Y394514D01*
X578498Y394751D01*
X578869Y394980D01*
X579246Y395200D01*
X579629Y395411D01*
X580016Y395612D01*
X580408Y395803D01*
X580805Y395985D01*
X581206Y396157D01*
X581611Y396319D01*
X582020Y396471D01*
X582433Y396613D01*
X582849Y396744D01*
X583268Y396866D01*
X583690Y396977D01*
X584114Y397078D01*
X584541Y397168D01*
X584970Y397248D01*
X585401Y397318D01*
X585834Y397376D01*
X586267Y397424D01*
X586702Y397462D01*
X587138Y397489D01*
X587574Y397505D01*
X588010Y397510D01*
X588446Y397505D01*
X588882Y397489D01*
X589318Y397462D01*
X589753Y397424D01*
X590186Y397376D01*
X590619Y397318D01*
X591050Y397248D01*
X591479Y397168D01*
X591906Y397078D01*
X592330Y396977D01*
X592752Y396866D01*
X593171Y396744D01*
X593587Y396613D01*
X594000Y396471D01*
X594409Y396319D01*
X594814Y396157D01*
X595215Y395985D01*
X595612Y395803D01*
X596004Y395612D01*
X596391Y395411D01*
X596774Y395200D01*
X597151Y394980D01*
X597522Y394751D01*
X597888Y394514D01*
X598248Y394267D01*
X598602Y394011D01*
X598949Y393747D01*
X599290Y393474D01*
X599623Y393193D01*
X599950Y392904D01*
X600270Y392607D01*
X600582Y392302D01*
X600887Y391990D01*
X601184Y391670D01*
X601473Y391343D01*
X601754Y391010D01*
X602027Y390669D01*
X602291Y390322D01*
X602547Y389968D01*
X602794Y389608D01*
X603031Y389242D01*
X603260Y388871D01*
X603480Y388494D01*
X603691Y388111D01*
X603892Y387724D01*
X604083Y387332D01*
X604265Y386935D01*
X604437Y386534D01*
X604599Y386129D01*
X604751Y385720D01*
X604893Y385307D01*
X605024Y384891D01*
X605146Y384472D01*
X605257Y384050D01*
X605358Y383626D01*
X605448Y383199D01*
X605528Y382770D01*
X605598Y382339D01*
X605656Y381906D01*
X605704Y381473D01*
X605742Y381038D01*
X605769Y380602D01*
X605785Y380166D01*
X605790Y379730D01*
X605785Y379294D01*
X605769Y378858D01*
X605742Y378422D01*
X605704Y377987D01*
X605656Y377554D01*
X605598Y377121D01*
X605528Y376690D01*
X605448Y376261D01*
X605358Y375834D01*
X605257Y375410D01*
X605146Y374988D01*
X605024Y374569D01*
X604893Y374153D01*
X604751Y373740D01*
X604599Y373331D01*
X604437Y372926D01*
X604265Y372525D01*
X604083Y372128D01*
X603892Y371736D01*
X603691Y371349D01*
X603480Y370966D01*
X603260Y370589D01*
X603031Y370218D01*
X602794Y369852D01*
X602547Y369492D01*
X602291Y369138D01*
X602027Y368791D01*
X601754Y368450D01*
X601473Y368117D01*
X601184Y367790D01*
X600887Y367470D01*
X600582Y367158D01*
X600270Y366853D01*
X599950Y366556D01*
X599623Y366267D01*
X599290Y365986D01*
X598949Y365713D01*
X598602Y365449D01*
X598248Y365193D01*
X597888Y364946D01*
X597522Y364709D01*
X597151Y364480D01*
X596774Y364260D01*
X596391Y364049D01*
X596004Y363848D01*
X595612Y363657D01*
X595215Y363475D01*
X594814Y363303D01*
X594409Y363141D01*
X594000Y362989D01*
X593587Y362847D01*
X593171Y362716D01*
X592752Y362594D01*
X592330Y362483D01*
X591906Y362382D01*
X591479Y362292D01*
X591050Y362212D01*
X590619Y362142D01*
X590186Y362084D01*
X589753Y362036D01*
X589318Y361998D01*
X588882Y361971D01*
X588446Y361955D01*
X588010Y361950D01*
X587574Y361955D01*
X587138Y361971D01*
X586702Y361998D01*
X586267Y362036D01*
X585834Y362084D01*
X585401Y362142D01*
X584970Y362212D01*
X584541Y362292D01*
X584114Y362382D01*
X583690Y362483D01*
X583268Y362594D01*
X582849Y362716D01*
X582433Y362847D01*
X582020Y362989D01*
X581611Y363141D01*
X581206Y363303D01*
X580805Y363475D01*
X580408Y363657D01*
X580016Y363848D01*
X579629Y364049D01*
X579246Y364260D01*
X578869Y364480D01*
X578498Y364709D01*
X578132Y364946D01*
X577772Y365193D01*
X577418Y365449D01*
X577071Y365713D01*
X576730Y365986D01*
X576397Y366267D01*
X576070Y366556D01*
X575750Y366853D01*
X575438Y367158D01*
X575133Y367470D01*
X574836Y367790D01*
X574547Y368117D01*
X574266Y368450D01*
X573993Y368791D01*
X573729Y369138D01*
X573473Y369492D01*
X573226Y369852D01*
X572989Y370218D01*
X572760Y370589D01*
X572540Y370966D01*
X572329Y371349D01*
X572128Y371736D01*
X571937Y372128D01*
X571755Y372525D01*
X571583Y372926D01*
X571421Y373331D01*
X571269Y373740D01*
X571127Y374153D01*
X570996Y374569D01*
X570874Y374988D01*
X570763Y375410D01*
X570662Y375834D01*
X570572Y376261D01*
X570492Y376690D01*
X570422Y377121D01*
X570364Y377554D01*
X570316Y377987D01*
X570278Y378422D01*
X570251Y378858D01*
X570235Y379294D01*
X570230Y379730D01*
X585470Y379730D02*
X585472Y379830D01*
X585478Y379931D01*
X585488Y380030D01*
X585502Y380130D01*
X585519Y380229D01*
X585541Y380327D01*
X585567Y380424D01*
X585596Y380520D01*
X585629Y380614D01*
X585666Y380708D01*
X585706Y380800D01*
X585750Y380890D01*
X585798Y380978D01*
X585849Y381065D01*
X585903Y381149D01*
X585961Y381231D01*
X586022Y381311D01*
X586086Y381388D01*
X586153Y381463D01*
X586223Y381535D01*
X586296Y381604D01*
X586371Y381670D01*
X586449Y381734D01*
X586529Y381794D01*
X586612Y381851D01*
X586697Y381904D01*
X586784Y381954D01*
X586873Y382001D01*
X586963Y382044D01*
X587055Y382084D01*
X587149Y382120D01*
X587244Y382152D01*
X587340Y382180D01*
X587438Y382205D01*
X587536Y382225D01*
X587635Y382242D01*
X587735Y382255D01*
X587834Y382264D01*
X587935Y382269D01*
X588035Y382270D01*
X588135Y382267D01*
X588236Y382260D01*
X588335Y382249D01*
X588435Y382234D01*
X588533Y382216D01*
X588631Y382193D01*
X588728Y382166D01*
X588823Y382136D01*
X588918Y382102D01*
X589011Y382064D01*
X589102Y382023D01*
X589192Y381978D01*
X589280Y381930D01*
X589366Y381878D01*
X589450Y381823D01*
X589531Y381764D01*
X589610Y381702D01*
X589687Y381638D01*
X589761Y381570D01*
X589832Y381499D01*
X589901Y381426D01*
X589966Y381350D01*
X590029Y381271D01*
X590088Y381190D01*
X590144Y381107D01*
X590197Y381022D01*
X590246Y380934D01*
X590292Y380845D01*
X590334Y380754D01*
X590373Y380661D01*
X590408Y380567D01*
X590439Y380472D01*
X590467Y380375D01*
X590490Y380278D01*
X590510Y380179D01*
X590526Y380080D01*
X590538Y379981D01*
X590546Y379880D01*
X590550Y379780D01*
X590550Y379680D01*
X590546Y379580D01*
X590538Y379479D01*
X590526Y379380D01*
X590510Y379281D01*
X590490Y379182D01*
X590467Y379085D01*
X590439Y378988D01*
X590408Y378893D01*
X590373Y378799D01*
X590334Y378706D01*
X590292Y378615D01*
X590246Y378526D01*
X590197Y378438D01*
X590144Y378353D01*
X590088Y378270D01*
X590029Y378189D01*
X589966Y378110D01*
X589901Y378034D01*
X589832Y377961D01*
X589761Y377890D01*
X589687Y377822D01*
X589610Y377758D01*
X589531Y377696D01*
X589450Y377637D01*
X589366Y377582D01*
X589280Y377530D01*
X589192Y377482D01*
X589102Y377437D01*
X589011Y377396D01*
X588918Y377358D01*
X588823Y377324D01*
X588728Y377294D01*
X588631Y377267D01*
X588533Y377244D01*
X588435Y377226D01*
X588335Y377211D01*
X588236Y377200D01*
X588135Y377193D01*
X588035Y377190D01*
X587935Y377191D01*
X587834Y377196D01*
X587735Y377205D01*
X587635Y377218D01*
X587536Y377235D01*
X587438Y377255D01*
X587340Y377280D01*
X587244Y377308D01*
X587149Y377340D01*
X587055Y377376D01*
X586963Y377416D01*
X586873Y377459D01*
X586784Y377506D01*
X586697Y377556D01*
X586612Y377609D01*
X586529Y377666D01*
X586449Y377726D01*
X586371Y377790D01*
X586296Y377856D01*
X586223Y377925D01*
X586153Y377997D01*
X586086Y378072D01*
X586022Y378149D01*
X585961Y378229D01*
X585903Y378311D01*
X585849Y378395D01*
X585798Y378482D01*
X585750Y378570D01*
X585706Y378660D01*
X585666Y378752D01*
X585629Y378846D01*
X585596Y378940D01*
X585567Y379036D01*
X585541Y379133D01*
X585519Y379231D01*
X585502Y379330D01*
X585488Y379430D01*
X585478Y379529D01*
X585472Y379630D01*
X585470Y379730D01*
D13*
X550545Y353695D02*
X550543Y353795D01*
X550537Y353894D01*
X550527Y353994D01*
X550514Y354092D01*
X550496Y354191D01*
X550475Y354288D01*
X550450Y354384D01*
X550421Y354480D01*
X550388Y354574D01*
X550352Y354667D01*
X550312Y354758D01*
X550268Y354848D01*
X550221Y354936D01*
X550171Y355022D01*
X550117Y355106D01*
X550060Y355188D01*
X550000Y355267D01*
X549936Y355345D01*
X549870Y355419D01*
X549801Y355491D01*
X549729Y355560D01*
X549655Y355626D01*
X549577Y355690D01*
X549498Y355750D01*
X549416Y355807D01*
X549332Y355861D01*
X549246Y355911D01*
X549158Y355958D01*
X549068Y356002D01*
X548977Y356042D01*
X548884Y356078D01*
X548790Y356111D01*
X548694Y356140D01*
X548598Y356165D01*
X548501Y356186D01*
X548402Y356204D01*
X548304Y356217D01*
X548204Y356227D01*
X548105Y356233D01*
X548005Y356235D01*
X550545Y353695D02*
X550543Y353554D01*
X550538Y353413D01*
X550528Y353272D01*
X550515Y353131D01*
X550499Y352991D01*
X550478Y352851D01*
X550454Y352712D01*
X550426Y352573D01*
X550395Y352436D01*
X550360Y352299D01*
X550322Y352163D01*
X550280Y352028D01*
X550234Y351895D01*
X550185Y351762D01*
X550132Y351631D01*
X550076Y351502D01*
X550017Y351373D01*
X549954Y351247D01*
X549888Y351122D01*
X549819Y350999D01*
X549746Y350878D01*
X549670Y350759D01*
X549591Y350641D01*
X549510Y350526D01*
X549425Y350414D01*
X549337Y350303D01*
X549246Y350195D01*
X549153Y350089D01*
X549056Y349986D01*
X548957Y349885D01*
X541655Y350203D02*
X541555Y350205D01*
X541456Y350211D01*
X541356Y350221D01*
X541258Y350234D01*
X541159Y350252D01*
X541062Y350273D01*
X540966Y350298D01*
X540870Y350327D01*
X540776Y350360D01*
X540683Y350396D01*
X540592Y350436D01*
X540502Y350480D01*
X540414Y350527D01*
X540328Y350577D01*
X540244Y350631D01*
X540162Y350688D01*
X540083Y350748D01*
X540005Y350812D01*
X539931Y350878D01*
X539859Y350947D01*
X539790Y351019D01*
X539724Y351093D01*
X539660Y351171D01*
X539600Y351250D01*
X539543Y351332D01*
X539489Y351416D01*
X539439Y351502D01*
X539392Y351590D01*
X539348Y351680D01*
X539308Y351771D01*
X539272Y351864D01*
X539239Y351958D01*
X539210Y352054D01*
X539185Y352150D01*
X539164Y352247D01*
X539146Y352346D01*
X539133Y352444D01*
X539123Y352544D01*
X539117Y352643D01*
X539115Y352743D01*
X539117Y352876D01*
X539122Y353009D01*
X539132Y353142D01*
X539145Y353275D01*
X539162Y353407D01*
X539182Y353539D01*
X539206Y353670D01*
X539234Y353800D01*
X539265Y353930D01*
X539300Y354058D01*
X539339Y354186D01*
X539381Y354312D01*
X539427Y354437D01*
X539476Y354561D01*
X539528Y354684D01*
X539584Y354805D01*
X539644Y354924D01*
X539706Y355042D01*
X539772Y355157D01*
X539841Y355271D01*
X539914Y355383D01*
X539989Y355493D01*
X540068Y355601D01*
X543878Y351472D02*
X543826Y351388D01*
X543771Y351305D01*
X543712Y351225D01*
X543651Y351147D01*
X543587Y351072D01*
X543519Y350999D01*
X543449Y350928D01*
X543377Y350861D01*
X543302Y350796D01*
X543224Y350734D01*
X543144Y350675D01*
X543062Y350619D01*
X542978Y350567D01*
X542892Y350518D01*
X542804Y350472D01*
X542714Y350429D01*
X542623Y350390D01*
X542530Y350355D01*
X542436Y350323D01*
X542341Y350295D01*
X542245Y350270D01*
X542148Y350250D01*
X542050Y350232D01*
X541952Y350219D01*
X541853Y350210D01*
X541754Y350204D01*
X541655Y350202D01*
X545782Y354965D02*
X545834Y355049D01*
X545889Y355132D01*
X545948Y355212D01*
X546009Y355290D01*
X546073Y355365D01*
X546141Y355438D01*
X546211Y355509D01*
X546283Y355576D01*
X546358Y355641D01*
X546436Y355703D01*
X546516Y355762D01*
X546598Y355818D01*
X546682Y355870D01*
X546768Y355919D01*
X546856Y355965D01*
X546946Y356008D01*
X547037Y356047D01*
X547130Y356082D01*
X547224Y356114D01*
X547319Y356142D01*
X547415Y356167D01*
X547512Y356187D01*
X547610Y356205D01*
X547708Y356218D01*
X547807Y356227D01*
X547906Y356233D01*
X548005Y356235D01*
X545783Y354965D02*
X543878Y351473D01*
X539115Y364427D02*
X539117Y364531D01*
X539123Y364636D01*
X539132Y364740D01*
X539145Y364843D01*
X539163Y364946D01*
X539183Y365048D01*
X539208Y365150D01*
X539236Y365250D01*
X539268Y365350D01*
X539304Y365448D01*
X539343Y365545D01*
X539385Y365640D01*
X539431Y365734D01*
X539481Y365826D01*
X539533Y365916D01*
X539589Y366004D01*
X539649Y366090D01*
X539711Y366174D01*
X539776Y366255D01*
X539844Y366334D01*
X539916Y366411D01*
X539989Y366484D01*
X540066Y366556D01*
X540145Y366624D01*
X540226Y366689D01*
X540310Y366751D01*
X540396Y366811D01*
X540484Y366867D01*
X540574Y366919D01*
X540666Y366969D01*
X540760Y367015D01*
X540855Y367057D01*
X540952Y367096D01*
X541050Y367132D01*
X541150Y367164D01*
X541250Y367192D01*
X541352Y367217D01*
X541454Y367237D01*
X541557Y367255D01*
X541660Y367268D01*
X541764Y367277D01*
X541869Y367283D01*
X541973Y367285D01*
X539115Y364427D02*
X539117Y364309D01*
X539123Y364190D01*
X539132Y364072D01*
X539145Y363955D01*
X539163Y363838D01*
X539183Y363721D01*
X539208Y363605D01*
X539236Y363490D01*
X539269Y363377D01*
X539304Y363264D01*
X539344Y363152D01*
X539386Y363042D01*
X539433Y362933D01*
X539483Y362825D01*
X539536Y362720D01*
X539593Y362616D01*
X539653Y362514D01*
X539716Y362414D01*
X539783Y362316D01*
X539852Y362220D01*
X539925Y362127D01*
X540001Y362036D01*
X540079Y361947D01*
X540161Y361861D01*
X540245Y361778D01*
X540331Y361697D01*
X540421Y361620D01*
X540512Y361545D01*
X540606Y361473D01*
X540703Y361404D01*
X540801Y361339D01*
X540902Y361276D01*
X541005Y361217D01*
X541109Y361161D01*
X541215Y361109D01*
X541323Y361060D01*
X541432Y361015D01*
X541543Y360973D01*
X541655Y360935D01*
X544195Y366332D02*
X544120Y366408D01*
X544041Y366483D01*
X543960Y366554D01*
X543876Y366623D01*
X543790Y366688D01*
X543702Y366750D01*
X543612Y366810D01*
X543520Y366866D01*
X543425Y366919D01*
X543329Y366968D01*
X543231Y367014D01*
X543132Y367057D01*
X543031Y367096D01*
X542929Y367131D01*
X542826Y367163D01*
X542722Y367191D01*
X542617Y367216D01*
X542510Y367237D01*
X542404Y367254D01*
X542297Y367267D01*
X542189Y367276D01*
X542081Y367282D01*
X541973Y367284D01*
X544195Y366332D02*
X550545Y360934D01*
X550545Y367284D01*
D12*
X720090Y292100D02*
X727710Y292100D01*
X723900Y288290D02*
X723900Y295910D01*
X625856Y266700D02*
X625874Y268171D01*
X625928Y269641D01*
X626018Y271110D01*
X626145Y272576D01*
X626307Y274038D01*
X626505Y275496D01*
X626739Y276948D01*
X627008Y278394D01*
X627313Y279834D01*
X627652Y281265D01*
X628027Y282688D01*
X628437Y284101D01*
X628881Y285503D01*
X629360Y286895D01*
X629873Y288274D01*
X630419Y289640D01*
X630999Y290992D01*
X631611Y292329D01*
X632257Y293652D01*
X632934Y294957D01*
X633644Y296246D01*
X634384Y297517D01*
X635156Y298770D01*
X635958Y300003D01*
X636791Y301216D01*
X637653Y302409D01*
X638543Y303579D01*
X639463Y304728D01*
X640410Y305854D01*
X641384Y306956D01*
X642386Y308034D01*
X643413Y309087D01*
X644466Y310114D01*
X645544Y311116D01*
X646646Y312090D01*
X647772Y313037D01*
X648921Y313957D01*
X650091Y314847D01*
X651284Y315709D01*
X652497Y316542D01*
X653730Y317344D01*
X654983Y318116D01*
X656254Y318856D01*
X657543Y319566D01*
X658848Y320243D01*
X660171Y320889D01*
X661508Y321501D01*
X662860Y322081D01*
X664226Y322627D01*
X665605Y323140D01*
X666997Y323619D01*
X668399Y324063D01*
X669812Y324473D01*
X671235Y324848D01*
X672666Y325187D01*
X674106Y325492D01*
X675552Y325761D01*
X677004Y325995D01*
X678462Y326193D01*
X679924Y326355D01*
X681390Y326482D01*
X682859Y326572D01*
X684329Y326626D01*
X685800Y326644D01*
X687271Y326626D01*
X688741Y326572D01*
X690210Y326482D01*
X691676Y326355D01*
X693138Y326193D01*
X694596Y325995D01*
X696048Y325761D01*
X697494Y325492D01*
X698934Y325187D01*
X700365Y324848D01*
X701788Y324473D01*
X703201Y324063D01*
X704603Y323619D01*
X705995Y323140D01*
X707374Y322627D01*
X708740Y322081D01*
X710092Y321501D01*
X711429Y320889D01*
X712752Y320243D01*
X714057Y319566D01*
X715346Y318856D01*
X716617Y318116D01*
X717870Y317344D01*
X719103Y316542D01*
X720316Y315709D01*
X721509Y314847D01*
X722679Y313957D01*
X723828Y313037D01*
X724954Y312090D01*
X726056Y311116D01*
X727134Y310114D01*
X728187Y309087D01*
X729214Y308034D01*
X730216Y306956D01*
X731190Y305854D01*
X732137Y304728D01*
X733057Y303579D01*
X733947Y302409D01*
X734809Y301216D01*
X735642Y300003D01*
X736444Y298770D01*
X737216Y297517D01*
X737956Y296246D01*
X738666Y294957D01*
X739343Y293652D01*
X739989Y292329D01*
X740601Y290992D01*
X741181Y289640D01*
X741727Y288274D01*
X742240Y286895D01*
X742719Y285503D01*
X743163Y284101D01*
X743573Y282688D01*
X743948Y281265D01*
X744287Y279834D01*
X744592Y278394D01*
X744861Y276948D01*
X745095Y275496D01*
X745293Y274038D01*
X745455Y272576D01*
X745582Y271110D01*
X745672Y269641D01*
X745726Y268171D01*
X745744Y266700D01*
X745726Y265229D01*
X745672Y263759D01*
X745582Y262290D01*
X745455Y260824D01*
X745293Y259362D01*
X745095Y257904D01*
X744861Y256452D01*
X744592Y255006D01*
X744287Y253566D01*
X743948Y252135D01*
X743573Y250712D01*
X743163Y249299D01*
X742719Y247897D01*
X742240Y246505D01*
X741727Y245126D01*
X741181Y243760D01*
X740601Y242408D01*
X739989Y241071D01*
X739343Y239748D01*
X738666Y238443D01*
X737956Y237154D01*
X737216Y235883D01*
X736444Y234630D01*
X735642Y233397D01*
X734809Y232184D01*
X733947Y230991D01*
X733057Y229821D01*
X732137Y228672D01*
X731190Y227546D01*
X730216Y226444D01*
X729214Y225366D01*
X728187Y224313D01*
X727134Y223286D01*
X726056Y222284D01*
X724954Y221310D01*
X723828Y220363D01*
X722679Y219443D01*
X721509Y218553D01*
X720316Y217691D01*
X719103Y216858D01*
X717870Y216056D01*
X716617Y215284D01*
X715346Y214544D01*
X714057Y213834D01*
X712752Y213157D01*
X711429Y212511D01*
X710092Y211899D01*
X708740Y211319D01*
X707374Y210773D01*
X705995Y210260D01*
X704603Y209781D01*
X703201Y209337D01*
X701788Y208927D01*
X700365Y208552D01*
X698934Y208213D01*
X697494Y207908D01*
X696048Y207639D01*
X694596Y207405D01*
X693138Y207207D01*
X691676Y207045D01*
X690210Y206918D01*
X688741Y206828D01*
X687271Y206774D01*
X685800Y206756D01*
X684329Y206774D01*
X682859Y206828D01*
X681390Y206918D01*
X679924Y207045D01*
X678462Y207207D01*
X677004Y207405D01*
X675552Y207639D01*
X674106Y207908D01*
X672666Y208213D01*
X671235Y208552D01*
X669812Y208927D01*
X668399Y209337D01*
X666997Y209781D01*
X665605Y210260D01*
X664226Y210773D01*
X662860Y211319D01*
X661508Y211899D01*
X660171Y212511D01*
X658848Y213157D01*
X657543Y213834D01*
X656254Y214544D01*
X654983Y215284D01*
X653730Y216056D01*
X652497Y216858D01*
X651284Y217691D01*
X650091Y218553D01*
X648921Y219443D01*
X647772Y220363D01*
X646646Y221310D01*
X645544Y222284D01*
X644466Y223286D01*
X643413Y224313D01*
X642386Y225366D01*
X641384Y226444D01*
X640410Y227546D01*
X639463Y228672D01*
X638543Y229821D01*
X637653Y230991D01*
X636791Y232184D01*
X635958Y233397D01*
X635156Y234630D01*
X634384Y235883D01*
X633644Y237154D01*
X632934Y238443D01*
X632257Y239748D01*
X631611Y241071D01*
X630999Y242408D01*
X630419Y243760D01*
X629873Y245126D01*
X629360Y246505D01*
X628881Y247897D01*
X628437Y249299D01*
X628027Y250712D01*
X627652Y252135D01*
X627313Y253566D01*
X627008Y255006D01*
X626739Y256452D01*
X626505Y257904D01*
X626307Y259362D01*
X626145Y260824D01*
X626018Y262290D01*
X625928Y263759D01*
X625874Y265229D01*
X625856Y266700D01*
X673862Y266700D02*
X673866Y266993D01*
X673876Y267286D01*
X673894Y267578D01*
X673919Y267870D01*
X673952Y268161D01*
X673991Y268452D01*
X674038Y268741D01*
X674091Y269029D01*
X674152Y269316D01*
X674220Y269601D01*
X674294Y269884D01*
X674376Y270165D01*
X674465Y270445D01*
X674560Y270722D01*
X674662Y270996D01*
X674771Y271268D01*
X674886Y271538D01*
X675008Y271804D01*
X675137Y272067D01*
X675272Y272328D01*
X675413Y272584D01*
X675560Y272837D01*
X675714Y273087D01*
X675874Y273332D01*
X676040Y273574D01*
X676211Y273811D01*
X676389Y274045D01*
X676572Y274273D01*
X676760Y274498D01*
X676955Y274717D01*
X677154Y274932D01*
X677359Y275141D01*
X677568Y275346D01*
X677783Y275545D01*
X678002Y275740D01*
X678227Y275928D01*
X678455Y276111D01*
X678689Y276289D01*
X678926Y276460D01*
X679168Y276626D01*
X679413Y276786D01*
X679663Y276940D01*
X679916Y277087D01*
X680172Y277228D01*
X680433Y277363D01*
X680696Y277492D01*
X680962Y277614D01*
X681232Y277729D01*
X681504Y277838D01*
X681778Y277940D01*
X682055Y278035D01*
X682335Y278124D01*
X682616Y278206D01*
X682899Y278280D01*
X683184Y278348D01*
X683471Y278409D01*
X683759Y278462D01*
X684048Y278509D01*
X684339Y278548D01*
X684630Y278581D01*
X684922Y278606D01*
X685214Y278624D01*
X685507Y278634D01*
X685800Y278638D01*
X686093Y278634D01*
X686386Y278624D01*
X686678Y278606D01*
X686970Y278581D01*
X687261Y278548D01*
X687552Y278509D01*
X687841Y278462D01*
X688129Y278409D01*
X688416Y278348D01*
X688701Y278280D01*
X688984Y278206D01*
X689265Y278124D01*
X689545Y278035D01*
X689822Y277940D01*
X690096Y277838D01*
X690368Y277729D01*
X690638Y277614D01*
X690904Y277492D01*
X691167Y277363D01*
X691428Y277228D01*
X691684Y277087D01*
X691937Y276940D01*
X692187Y276786D01*
X692432Y276626D01*
X692674Y276460D01*
X692911Y276289D01*
X693145Y276111D01*
X693373Y275928D01*
X693598Y275740D01*
X693817Y275545D01*
X694032Y275346D01*
X694241Y275141D01*
X694446Y274932D01*
X694645Y274717D01*
X694840Y274498D01*
X695028Y274273D01*
X695211Y274045D01*
X695389Y273811D01*
X695560Y273574D01*
X695726Y273332D01*
X695886Y273087D01*
X696040Y272837D01*
X696187Y272584D01*
X696328Y272328D01*
X696463Y272067D01*
X696592Y271804D01*
X696714Y271538D01*
X696829Y271268D01*
X696938Y270996D01*
X697040Y270722D01*
X697135Y270445D01*
X697224Y270165D01*
X697306Y269884D01*
X697380Y269601D01*
X697448Y269316D01*
X697509Y269029D01*
X697562Y268741D01*
X697609Y268452D01*
X697648Y268161D01*
X697681Y267870D01*
X697706Y267578D01*
X697724Y267286D01*
X697734Y266993D01*
X697738Y266700D01*
X697734Y266407D01*
X697724Y266114D01*
X697706Y265822D01*
X697681Y265530D01*
X697648Y265239D01*
X697609Y264948D01*
X697562Y264659D01*
X697509Y264371D01*
X697448Y264084D01*
X697380Y263799D01*
X697306Y263516D01*
X697224Y263235D01*
X697135Y262955D01*
X697040Y262678D01*
X696938Y262404D01*
X696829Y262132D01*
X696714Y261862D01*
X696592Y261596D01*
X696463Y261333D01*
X696328Y261072D01*
X696187Y260816D01*
X696040Y260563D01*
X695886Y260313D01*
X695726Y260068D01*
X695560Y259826D01*
X695389Y259589D01*
X695211Y259355D01*
X695028Y259127D01*
X694840Y258902D01*
X694645Y258683D01*
X694446Y258468D01*
X694241Y258259D01*
X694032Y258054D01*
X693817Y257855D01*
X693598Y257660D01*
X693373Y257472D01*
X693145Y257289D01*
X692911Y257111D01*
X692674Y256940D01*
X692432Y256774D01*
X692187Y256614D01*
X691937Y256460D01*
X691684Y256313D01*
X691428Y256172D01*
X691167Y256037D01*
X690904Y255908D01*
X690638Y255786D01*
X690368Y255671D01*
X690096Y255562D01*
X689822Y255460D01*
X689545Y255365D01*
X689265Y255276D01*
X688984Y255194D01*
X688701Y255120D01*
X688416Y255052D01*
X688129Y254991D01*
X687841Y254938D01*
X687552Y254891D01*
X687261Y254852D01*
X686970Y254819D01*
X686678Y254794D01*
X686386Y254776D01*
X686093Y254766D01*
X685800Y254762D01*
X685507Y254766D01*
X685214Y254776D01*
X684922Y254794D01*
X684630Y254819D01*
X684339Y254852D01*
X684048Y254891D01*
X683759Y254938D01*
X683471Y254991D01*
X683184Y255052D01*
X682899Y255120D01*
X682616Y255194D01*
X682335Y255276D01*
X682055Y255365D01*
X681778Y255460D01*
X681504Y255562D01*
X681232Y255671D01*
X680962Y255786D01*
X680696Y255908D01*
X680433Y256037D01*
X680172Y256172D01*
X679916Y256313D01*
X679663Y256460D01*
X679413Y256614D01*
X679168Y256774D01*
X678926Y256940D01*
X678689Y257111D01*
X678455Y257289D01*
X678227Y257472D01*
X678002Y257660D01*
X677783Y257855D01*
X677568Y258054D01*
X677359Y258259D01*
X677154Y258468D01*
X676955Y258683D01*
X676760Y258902D01*
X676572Y259127D01*
X676389Y259355D01*
X676211Y259589D01*
X676040Y259826D01*
X675874Y260068D01*
X675714Y260313D01*
X675560Y260563D01*
X675413Y260816D01*
X675272Y261072D01*
X675137Y261333D01*
X675008Y261596D01*
X674886Y261862D01*
X674771Y262132D01*
X674662Y262404D01*
X674560Y262678D01*
X674465Y262955D01*
X674376Y263235D01*
X674294Y263516D01*
X674220Y263799D01*
X674152Y264084D01*
X674091Y264371D01*
X674038Y264659D01*
X673991Y264948D01*
X673952Y265239D01*
X673919Y265530D01*
X673894Y265822D01*
X673876Y266114D01*
X673866Y266407D01*
X673862Y266700D01*
X717550Y292100D02*
X717552Y292259D01*
X717558Y292418D01*
X717568Y292576D01*
X717582Y292735D01*
X717600Y292893D01*
X717621Y293050D01*
X717647Y293207D01*
X717677Y293363D01*
X717710Y293519D01*
X717748Y293673D01*
X717789Y293827D01*
X717834Y293979D01*
X717883Y294130D01*
X717936Y294280D01*
X717992Y294429D01*
X718053Y294576D01*
X718116Y294721D01*
X718184Y294865D01*
X718255Y295008D01*
X718329Y295148D01*
X718407Y295286D01*
X718489Y295423D01*
X718574Y295557D01*
X718662Y295690D01*
X718753Y295820D01*
X718848Y295947D01*
X718946Y296072D01*
X719047Y296195D01*
X719151Y296315D01*
X719258Y296433D01*
X719368Y296548D01*
X719481Y296660D01*
X719596Y296769D01*
X719714Y296875D01*
X719835Y296979D01*
X719959Y297079D01*
X720084Y297176D01*
X720213Y297270D01*
X720343Y297360D01*
X720476Y297448D01*
X720611Y297532D01*
X720748Y297612D01*
X720887Y297690D01*
X721028Y297763D01*
X721170Y297833D01*
X721315Y297900D01*
X721461Y297963D01*
X721608Y298022D01*
X721757Y298078D01*
X721908Y298129D01*
X722059Y298177D01*
X722212Y298221D01*
X722366Y298262D01*
X722520Y298298D01*
X722676Y298331D01*
X722832Y298360D01*
X722989Y298384D01*
X723147Y298405D01*
X723305Y298422D01*
X723463Y298435D01*
X723622Y298444D01*
X723781Y298449D01*
X723940Y298450D01*
X724099Y298447D01*
X724257Y298440D01*
X724416Y298429D01*
X724574Y298414D01*
X724732Y298395D01*
X724889Y298372D01*
X725046Y298346D01*
X725202Y298315D01*
X725357Y298281D01*
X725511Y298242D01*
X725665Y298200D01*
X725817Y298154D01*
X725968Y298104D01*
X726117Y298050D01*
X726266Y297993D01*
X726412Y297932D01*
X726558Y297867D01*
X726701Y297799D01*
X726843Y297727D01*
X726983Y297651D01*
X727121Y297573D01*
X727257Y297490D01*
X727391Y297405D01*
X727522Y297316D01*
X727652Y297223D01*
X727779Y297128D01*
X727903Y297029D01*
X728026Y296927D01*
X728145Y296823D01*
X728262Y296715D01*
X728376Y296604D01*
X728487Y296491D01*
X728596Y296375D01*
X728701Y296256D01*
X728804Y296134D01*
X728903Y296010D01*
X729000Y295884D01*
X729093Y295755D01*
X729183Y295624D01*
X729269Y295490D01*
X729352Y295355D01*
X729432Y295217D01*
X729508Y295078D01*
X729581Y294937D01*
X729650Y294794D01*
X729716Y294649D01*
X729778Y294502D01*
X729836Y294355D01*
X729891Y294205D01*
X729942Y294055D01*
X729989Y293903D01*
X730032Y293750D01*
X730071Y293596D01*
X730107Y293441D01*
X730138Y293285D01*
X730166Y293129D01*
X730190Y292972D01*
X730210Y292814D01*
X730226Y292656D01*
X730238Y292497D01*
X730246Y292338D01*
X730250Y292179D01*
X730250Y292021D01*
X730246Y291862D01*
X730238Y291703D01*
X730226Y291544D01*
X730210Y291386D01*
X730190Y291228D01*
X730166Y291071D01*
X730138Y290915D01*
X730107Y290759D01*
X730071Y290604D01*
X730032Y290450D01*
X729989Y290297D01*
X729942Y290145D01*
X729891Y289995D01*
X729836Y289845D01*
X729778Y289698D01*
X729716Y289551D01*
X729650Y289406D01*
X729581Y289263D01*
X729508Y289122D01*
X729432Y288983D01*
X729352Y288845D01*
X729269Y288710D01*
X729183Y288576D01*
X729093Y288445D01*
X729000Y288316D01*
X728903Y288190D01*
X728804Y288066D01*
X728701Y287944D01*
X728596Y287825D01*
X728487Y287709D01*
X728376Y287596D01*
X728262Y287485D01*
X728145Y287377D01*
X728026Y287273D01*
X727903Y287171D01*
X727779Y287072D01*
X727652Y286977D01*
X727522Y286884D01*
X727391Y286795D01*
X727257Y286710D01*
X727121Y286627D01*
X726983Y286549D01*
X726843Y286473D01*
X726701Y286401D01*
X726558Y286333D01*
X726412Y286268D01*
X726266Y286207D01*
X726117Y286150D01*
X725968Y286096D01*
X725817Y286046D01*
X725665Y286000D01*
X725511Y285958D01*
X725357Y285919D01*
X725202Y285885D01*
X725046Y285854D01*
X724889Y285828D01*
X724732Y285805D01*
X724574Y285786D01*
X724416Y285771D01*
X724257Y285760D01*
X724099Y285753D01*
X723940Y285750D01*
X723781Y285751D01*
X723622Y285756D01*
X723463Y285765D01*
X723305Y285778D01*
X723147Y285795D01*
X722989Y285816D01*
X722832Y285840D01*
X722676Y285869D01*
X722520Y285902D01*
X722366Y285938D01*
X722212Y285979D01*
X722059Y286023D01*
X721908Y286071D01*
X721757Y286122D01*
X721608Y286178D01*
X721461Y286237D01*
X721315Y286300D01*
X721170Y286367D01*
X721028Y286437D01*
X720887Y286510D01*
X720748Y286588D01*
X720611Y286668D01*
X720476Y286752D01*
X720343Y286840D01*
X720213Y286930D01*
X720084Y287024D01*
X719959Y287121D01*
X719835Y287221D01*
X719714Y287325D01*
X719596Y287431D01*
X719481Y287540D01*
X719368Y287652D01*
X719258Y287767D01*
X719151Y287885D01*
X719047Y288005D01*
X718946Y288128D01*
X718848Y288253D01*
X718753Y288380D01*
X718662Y288510D01*
X718574Y288643D01*
X718489Y288777D01*
X718407Y288914D01*
X718329Y289052D01*
X718255Y289192D01*
X718184Y289335D01*
X718116Y289479D01*
X718053Y289624D01*
X717992Y289771D01*
X717936Y289920D01*
X717883Y290070D01*
X717834Y290221D01*
X717789Y290373D01*
X717748Y290527D01*
X717710Y290681D01*
X717677Y290837D01*
X717647Y290993D01*
X717621Y291150D01*
X717600Y291307D01*
X717582Y291465D01*
X717568Y291624D01*
X717558Y291782D01*
X717552Y291941D01*
X717550Y292100D01*
D13*
X734695Y311785D02*
X734795Y311787D01*
X734894Y311793D01*
X734994Y311803D01*
X735092Y311816D01*
X735191Y311834D01*
X735288Y311855D01*
X735384Y311880D01*
X735480Y311909D01*
X735574Y311942D01*
X735667Y311978D01*
X735758Y312018D01*
X735848Y312062D01*
X735936Y312109D01*
X736022Y312159D01*
X736106Y312213D01*
X736188Y312270D01*
X736267Y312330D01*
X736345Y312394D01*
X736419Y312460D01*
X736491Y312529D01*
X736560Y312601D01*
X736626Y312675D01*
X736690Y312753D01*
X736750Y312832D01*
X736807Y312914D01*
X736861Y312998D01*
X736911Y313084D01*
X736958Y313172D01*
X737002Y313262D01*
X737042Y313353D01*
X737078Y313446D01*
X737111Y313540D01*
X737140Y313636D01*
X737165Y313732D01*
X737186Y313829D01*
X737204Y313928D01*
X737217Y314026D01*
X737227Y314126D01*
X737233Y314225D01*
X737235Y314325D01*
X734695Y311785D02*
X734554Y311787D01*
X734413Y311792D01*
X734272Y311802D01*
X734131Y311815D01*
X733991Y311831D01*
X733851Y311852D01*
X733712Y311876D01*
X733573Y311904D01*
X733436Y311935D01*
X733299Y311970D01*
X733163Y312008D01*
X733028Y312050D01*
X732895Y312096D01*
X732762Y312145D01*
X732631Y312198D01*
X732502Y312254D01*
X732373Y312313D01*
X732247Y312376D01*
X732122Y312442D01*
X731999Y312511D01*
X731878Y312584D01*
X731759Y312660D01*
X731641Y312739D01*
X731526Y312820D01*
X731414Y312905D01*
X731303Y312993D01*
X731195Y313084D01*
X731089Y313177D01*
X730986Y313274D01*
X730885Y313373D01*
X731203Y320675D02*
X731205Y320775D01*
X731211Y320874D01*
X731221Y320974D01*
X731234Y321072D01*
X731252Y321171D01*
X731273Y321268D01*
X731298Y321364D01*
X731327Y321460D01*
X731360Y321554D01*
X731396Y321647D01*
X731436Y321738D01*
X731480Y321828D01*
X731527Y321916D01*
X731577Y322002D01*
X731631Y322086D01*
X731688Y322168D01*
X731748Y322247D01*
X731812Y322325D01*
X731878Y322399D01*
X731947Y322471D01*
X732019Y322540D01*
X732093Y322606D01*
X732171Y322670D01*
X732250Y322730D01*
X732332Y322787D01*
X732416Y322841D01*
X732502Y322891D01*
X732590Y322938D01*
X732680Y322982D01*
X732771Y323022D01*
X732864Y323058D01*
X732958Y323091D01*
X733054Y323120D01*
X733150Y323145D01*
X733247Y323166D01*
X733346Y323184D01*
X733444Y323197D01*
X733544Y323207D01*
X733643Y323213D01*
X733743Y323215D01*
X733743Y323216D02*
X733876Y323214D01*
X734009Y323209D01*
X734142Y323199D01*
X734275Y323186D01*
X734407Y323169D01*
X734539Y323149D01*
X734670Y323125D01*
X734800Y323097D01*
X734930Y323066D01*
X735058Y323031D01*
X735186Y322992D01*
X735312Y322950D01*
X735437Y322904D01*
X735561Y322855D01*
X735684Y322803D01*
X735805Y322747D01*
X735924Y322687D01*
X736042Y322625D01*
X736157Y322559D01*
X736271Y322490D01*
X736383Y322417D01*
X736493Y322342D01*
X736601Y322263D01*
X732472Y318452D02*
X732388Y318504D01*
X732305Y318559D01*
X732225Y318618D01*
X732147Y318679D01*
X732072Y318743D01*
X731999Y318811D01*
X731928Y318881D01*
X731861Y318953D01*
X731796Y319028D01*
X731734Y319106D01*
X731675Y319186D01*
X731619Y319268D01*
X731567Y319352D01*
X731518Y319438D01*
X731472Y319526D01*
X731429Y319616D01*
X731390Y319707D01*
X731355Y319800D01*
X731323Y319894D01*
X731295Y319989D01*
X731270Y320085D01*
X731250Y320182D01*
X731232Y320280D01*
X731219Y320378D01*
X731210Y320477D01*
X731204Y320576D01*
X731202Y320675D01*
X735965Y316548D02*
X736049Y316496D01*
X736132Y316441D01*
X736212Y316382D01*
X736290Y316321D01*
X736365Y316257D01*
X736438Y316189D01*
X736509Y316119D01*
X736576Y316047D01*
X736641Y315972D01*
X736703Y315894D01*
X736762Y315814D01*
X736818Y315732D01*
X736870Y315648D01*
X736919Y315562D01*
X736965Y315474D01*
X737008Y315384D01*
X737047Y315293D01*
X737082Y315200D01*
X737114Y315106D01*
X737142Y315011D01*
X737167Y314915D01*
X737187Y314818D01*
X737205Y314720D01*
X737218Y314622D01*
X737227Y314523D01*
X737233Y314424D01*
X737235Y314325D01*
X735965Y316548D02*
X732473Y318453D01*
X746760Y318135D02*
X748665Y318135D01*
X748665Y311785D01*
X744855Y311785D01*
X744755Y311787D01*
X744656Y311793D01*
X744556Y311803D01*
X744458Y311816D01*
X744359Y311834D01*
X744262Y311855D01*
X744166Y311880D01*
X744070Y311909D01*
X743976Y311942D01*
X743883Y311978D01*
X743792Y312018D01*
X743702Y312062D01*
X743614Y312109D01*
X743528Y312159D01*
X743444Y312213D01*
X743362Y312270D01*
X743283Y312330D01*
X743205Y312394D01*
X743131Y312460D01*
X743059Y312529D01*
X742990Y312601D01*
X742924Y312675D01*
X742860Y312753D01*
X742800Y312832D01*
X742743Y312914D01*
X742689Y312998D01*
X742639Y313084D01*
X742592Y313172D01*
X742548Y313262D01*
X742508Y313353D01*
X742472Y313446D01*
X742439Y313540D01*
X742410Y313636D01*
X742385Y313732D01*
X742364Y313829D01*
X742346Y313928D01*
X742333Y314026D01*
X742323Y314126D01*
X742317Y314225D01*
X742315Y314325D01*
X742315Y320675D01*
X742317Y320775D01*
X742323Y320874D01*
X742333Y320974D01*
X742346Y321072D01*
X742364Y321171D01*
X742385Y321268D01*
X742410Y321364D01*
X742439Y321460D01*
X742472Y321554D01*
X742508Y321647D01*
X742548Y321738D01*
X742592Y321828D01*
X742639Y321916D01*
X742689Y322002D01*
X742743Y322086D01*
X742800Y322168D01*
X742860Y322247D01*
X742924Y322325D01*
X742990Y322399D01*
X743059Y322471D01*
X743131Y322540D01*
X743205Y322606D01*
X743283Y322670D01*
X743362Y322730D01*
X743444Y322787D01*
X743528Y322841D01*
X743614Y322891D01*
X743702Y322938D01*
X743792Y322982D01*
X743883Y323022D01*
X743976Y323058D01*
X744070Y323091D01*
X744166Y323120D01*
X744262Y323145D01*
X744359Y323166D01*
X744458Y323184D01*
X744556Y323197D01*
X744656Y323207D01*
X744755Y323213D01*
X744855Y323215D01*
X748665Y323215D01*
X754126Y311785D02*
X757301Y311785D01*
X757412Y311787D01*
X757522Y311793D01*
X757633Y311802D01*
X757743Y311816D01*
X757852Y311833D01*
X757961Y311854D01*
X758069Y311879D01*
X758176Y311908D01*
X758282Y311940D01*
X758387Y311976D01*
X758490Y312016D01*
X758592Y312059D01*
X758693Y312106D01*
X758792Y312157D01*
X758889Y312210D01*
X758983Y312267D01*
X759076Y312328D01*
X759167Y312391D01*
X759256Y312458D01*
X759342Y312528D01*
X759425Y312601D01*
X759507Y312676D01*
X759585Y312754D01*
X759660Y312836D01*
X759733Y312919D01*
X759803Y313005D01*
X759870Y313094D01*
X759933Y313185D01*
X759994Y313278D01*
X760051Y313372D01*
X760104Y313469D01*
X760155Y313568D01*
X760202Y313669D01*
X760245Y313771D01*
X760285Y313874D01*
X760321Y313979D01*
X760353Y314085D01*
X760382Y314192D01*
X760407Y314300D01*
X760428Y314409D01*
X760445Y314518D01*
X760459Y314628D01*
X760468Y314739D01*
X760474Y314849D01*
X760476Y314960D01*
X760474Y315071D01*
X760468Y315181D01*
X760459Y315292D01*
X760445Y315402D01*
X760428Y315511D01*
X760407Y315620D01*
X760382Y315728D01*
X760353Y315835D01*
X760321Y315941D01*
X760285Y316046D01*
X760245Y316149D01*
X760202Y316251D01*
X760155Y316352D01*
X760104Y316451D01*
X760051Y316547D01*
X759994Y316642D01*
X759933Y316735D01*
X759870Y316826D01*
X759803Y316915D01*
X759733Y317001D01*
X759660Y317084D01*
X759585Y317166D01*
X759507Y317244D01*
X759425Y317319D01*
X759342Y317392D01*
X759256Y317462D01*
X759167Y317529D01*
X759076Y317592D01*
X758983Y317653D01*
X758889Y317710D01*
X758792Y317763D01*
X758693Y317814D01*
X758592Y317861D01*
X758490Y317904D01*
X758387Y317944D01*
X758282Y317980D01*
X758176Y318012D01*
X758069Y318041D01*
X757961Y318066D01*
X757852Y318087D01*
X757743Y318104D01*
X757633Y318118D01*
X757522Y318127D01*
X757412Y318133D01*
X757301Y318135D01*
X757936Y323215D02*
X754126Y323215D01*
X757936Y323215D02*
X758036Y323213D01*
X758135Y323207D01*
X758235Y323197D01*
X758333Y323184D01*
X758432Y323166D01*
X758529Y323145D01*
X758625Y323120D01*
X758721Y323091D01*
X758815Y323058D01*
X758908Y323022D01*
X758999Y322982D01*
X759089Y322938D01*
X759177Y322891D01*
X759263Y322841D01*
X759347Y322787D01*
X759429Y322730D01*
X759508Y322670D01*
X759586Y322606D01*
X759660Y322540D01*
X759732Y322471D01*
X759801Y322399D01*
X759867Y322325D01*
X759931Y322247D01*
X759991Y322168D01*
X760048Y322086D01*
X760102Y322002D01*
X760152Y321916D01*
X760199Y321828D01*
X760243Y321738D01*
X760283Y321647D01*
X760319Y321554D01*
X760352Y321460D01*
X760381Y321364D01*
X760406Y321268D01*
X760427Y321171D01*
X760445Y321072D01*
X760458Y320974D01*
X760468Y320874D01*
X760474Y320775D01*
X760476Y320675D01*
X760474Y320575D01*
X760468Y320476D01*
X760458Y320376D01*
X760445Y320278D01*
X760427Y320179D01*
X760406Y320082D01*
X760381Y319986D01*
X760352Y319890D01*
X760319Y319796D01*
X760283Y319703D01*
X760243Y319612D01*
X760199Y319522D01*
X760152Y319434D01*
X760102Y319348D01*
X760048Y319264D01*
X759991Y319182D01*
X759931Y319103D01*
X759867Y319025D01*
X759801Y318951D01*
X759732Y318879D01*
X759660Y318810D01*
X759586Y318744D01*
X759508Y318680D01*
X759429Y318620D01*
X759347Y318563D01*
X759263Y318509D01*
X759177Y318459D01*
X759089Y318412D01*
X758999Y318368D01*
X758908Y318328D01*
X758815Y318292D01*
X758721Y318259D01*
X758625Y318230D01*
X758529Y318205D01*
X758432Y318184D01*
X758333Y318166D01*
X758235Y318153D01*
X758135Y318143D01*
X758036Y318137D01*
X757936Y318135D01*
X755396Y318135D01*
D14*
X855218Y253944D02*
X866902Y253944D01*
X855218Y250698D02*
X855218Y257189D01*
X857814Y261366D02*
X855218Y264612D01*
X866902Y264612D01*
X866902Y267857D02*
X866902Y261366D01*
X866902Y317444D02*
X855218Y317444D01*
X855218Y320689D02*
X855218Y314198D01*
X855218Y328436D02*
X855220Y328543D01*
X855226Y328649D01*
X855236Y328755D01*
X855249Y328861D01*
X855267Y328967D01*
X855288Y329071D01*
X855313Y329175D01*
X855342Y329278D01*
X855374Y329379D01*
X855411Y329479D01*
X855451Y329578D01*
X855494Y329676D01*
X855541Y329772D01*
X855592Y329866D01*
X855646Y329958D01*
X855703Y330048D01*
X855763Y330136D01*
X855827Y330221D01*
X855894Y330304D01*
X855964Y330385D01*
X856036Y330463D01*
X856112Y330539D01*
X856190Y330611D01*
X856271Y330681D01*
X856354Y330748D01*
X856439Y330812D01*
X856527Y330872D01*
X856617Y330929D01*
X856709Y330983D01*
X856803Y331034D01*
X856899Y331081D01*
X856997Y331124D01*
X857096Y331164D01*
X857196Y331201D01*
X857297Y331233D01*
X857400Y331262D01*
X857504Y331287D01*
X857608Y331308D01*
X857714Y331326D01*
X857820Y331339D01*
X857926Y331349D01*
X858032Y331355D01*
X858139Y331357D01*
X855218Y328436D02*
X855220Y328315D01*
X855226Y328194D01*
X855236Y328074D01*
X855249Y327953D01*
X855267Y327834D01*
X855288Y327714D01*
X855313Y327596D01*
X855342Y327479D01*
X855375Y327362D01*
X855411Y327247D01*
X855452Y327133D01*
X855495Y327020D01*
X855543Y326908D01*
X855594Y326799D01*
X855649Y326691D01*
X855707Y326584D01*
X855768Y326480D01*
X855833Y326378D01*
X855901Y326278D01*
X855972Y326180D01*
X856046Y326084D01*
X856123Y325991D01*
X856204Y325901D01*
X856287Y325813D01*
X856373Y325728D01*
X856462Y325645D01*
X856553Y325566D01*
X856647Y325489D01*
X856743Y325416D01*
X856841Y325346D01*
X856942Y325279D01*
X857045Y325215D01*
X857150Y325155D01*
X857257Y325097D01*
X857365Y325044D01*
X857475Y324994D01*
X857587Y324948D01*
X857700Y324905D01*
X857815Y324866D01*
X860411Y330383D02*
X860333Y330462D01*
X860253Y330538D01*
X860170Y330611D01*
X860084Y330681D01*
X859997Y330748D01*
X859906Y330812D01*
X859814Y330872D01*
X859720Y330930D01*
X859623Y330984D01*
X859525Y331034D01*
X859425Y331081D01*
X859324Y331125D01*
X859221Y331165D01*
X859116Y331201D01*
X859011Y331233D01*
X858904Y331262D01*
X858797Y331287D01*
X858688Y331309D01*
X858579Y331326D01*
X858470Y331340D01*
X858360Y331349D01*
X858249Y331355D01*
X858139Y331357D01*
X860411Y330383D02*
X866902Y324866D01*
X866902Y331357D01*
X866902Y373324D02*
X855218Y373324D01*
X855218Y376569D02*
X855218Y370078D01*
X866902Y380746D02*
X866902Y383992D01*
X866900Y384105D01*
X866894Y384218D01*
X866884Y384331D01*
X866870Y384444D01*
X866853Y384556D01*
X866831Y384667D01*
X866806Y384777D01*
X866776Y384887D01*
X866743Y384995D01*
X866706Y385102D01*
X866666Y385208D01*
X866621Y385312D01*
X866573Y385415D01*
X866522Y385516D01*
X866467Y385615D01*
X866409Y385712D01*
X866347Y385807D01*
X866282Y385900D01*
X866214Y385990D01*
X866143Y386078D01*
X866068Y386164D01*
X865991Y386247D01*
X865911Y386327D01*
X865828Y386404D01*
X865742Y386479D01*
X865654Y386550D01*
X865564Y386618D01*
X865471Y386683D01*
X865376Y386745D01*
X865279Y386803D01*
X865180Y386858D01*
X865079Y386909D01*
X864976Y386957D01*
X864872Y387002D01*
X864766Y387042D01*
X864659Y387079D01*
X864551Y387112D01*
X864441Y387142D01*
X864331Y387167D01*
X864220Y387189D01*
X864108Y387206D01*
X863995Y387220D01*
X863882Y387230D01*
X863769Y387236D01*
X863656Y387238D01*
X863543Y387236D01*
X863430Y387230D01*
X863317Y387220D01*
X863204Y387206D01*
X863092Y387189D01*
X862981Y387167D01*
X862871Y387142D01*
X862761Y387112D01*
X862653Y387079D01*
X862546Y387042D01*
X862440Y387002D01*
X862336Y386957D01*
X862233Y386909D01*
X862132Y386858D01*
X862033Y386803D01*
X861936Y386745D01*
X861841Y386683D01*
X861748Y386618D01*
X861658Y386550D01*
X861570Y386479D01*
X861484Y386404D01*
X861401Y386327D01*
X861321Y386247D01*
X861244Y386164D01*
X861169Y386078D01*
X861098Y385990D01*
X861030Y385900D01*
X860965Y385807D01*
X860903Y385712D01*
X860845Y385615D01*
X860790Y385516D01*
X860739Y385415D01*
X860691Y385312D01*
X860646Y385208D01*
X860606Y385102D01*
X860569Y384995D01*
X860536Y384887D01*
X860506Y384777D01*
X860481Y384667D01*
X860459Y384556D01*
X860442Y384444D01*
X860428Y384331D01*
X860418Y384218D01*
X860412Y384105D01*
X860410Y383992D01*
X855218Y384641D02*
X855218Y380746D01*
X855218Y384641D02*
X855220Y384742D01*
X855226Y384842D01*
X855236Y384942D01*
X855249Y385042D01*
X855267Y385141D01*
X855288Y385240D01*
X855313Y385337D01*
X855342Y385434D01*
X855375Y385529D01*
X855411Y385623D01*
X855451Y385715D01*
X855494Y385806D01*
X855541Y385895D01*
X855591Y385982D01*
X855645Y386068D01*
X855702Y386151D01*
X855762Y386231D01*
X855825Y386310D01*
X855892Y386386D01*
X855961Y386459D01*
X856033Y386529D01*
X856107Y386597D01*
X856184Y386662D01*
X856264Y386723D01*
X856346Y386782D01*
X856430Y386837D01*
X856516Y386889D01*
X856604Y386938D01*
X856694Y386983D01*
X856786Y387025D01*
X856879Y387063D01*
X856974Y387097D01*
X857069Y387128D01*
X857166Y387155D01*
X857264Y387178D01*
X857363Y387198D01*
X857463Y387213D01*
X857563Y387225D01*
X857663Y387233D01*
X857764Y387237D01*
X857864Y387237D01*
X857965Y387233D01*
X858065Y387225D01*
X858165Y387213D01*
X858265Y387198D01*
X858364Y387178D01*
X858462Y387155D01*
X858559Y387128D01*
X858654Y387097D01*
X858749Y387063D01*
X858842Y387025D01*
X858934Y386983D01*
X859024Y386938D01*
X859112Y386889D01*
X859198Y386837D01*
X859282Y386782D01*
X859364Y386723D01*
X859444Y386662D01*
X859521Y386597D01*
X859595Y386529D01*
X859667Y386459D01*
X859736Y386386D01*
X859803Y386310D01*
X859866Y386231D01*
X859926Y386151D01*
X859983Y386068D01*
X860037Y385982D01*
X860087Y385895D01*
X860134Y385806D01*
X860177Y385715D01*
X860217Y385623D01*
X860253Y385529D01*
X860286Y385434D01*
X860315Y385337D01*
X860340Y385240D01*
X860361Y385141D01*
X860379Y385042D01*
X860392Y384942D01*
X860402Y384842D01*
X860408Y384742D01*
X860410Y384641D01*
X860411Y384641D02*
X860411Y382044D01*
X414782Y350068D02*
X403098Y350068D01*
X403098Y346823D02*
X403098Y353314D01*
X403098Y360087D02*
X412186Y357491D01*
X412186Y363982D01*
X409589Y362035D02*
X414782Y362035D01*
D19*
X196000Y319900D02*
X196000Y469900D01*
X381000Y469900D01*
X381000Y319900D01*
X196000Y319900D01*
D17*
X291017Y376710D02*
X291017Y380746D01*
X291018Y376710D02*
X291020Y376633D01*
X291026Y376555D01*
X291035Y376479D01*
X291049Y376402D01*
X291066Y376327D01*
X291087Y376253D01*
X291112Y376179D01*
X291140Y376107D01*
X291172Y376037D01*
X291207Y375968D01*
X291246Y375901D01*
X291288Y375836D01*
X291333Y375773D01*
X291381Y375712D01*
X291432Y375654D01*
X291486Y375599D01*
X291543Y375546D01*
X291602Y375497D01*
X291664Y375450D01*
X291728Y375406D01*
X291794Y375366D01*
X291862Y375329D01*
X291932Y375295D01*
X292003Y375265D01*
X292076Y375239D01*
X292150Y375216D01*
X292225Y375197D01*
X292300Y375182D01*
X292377Y375170D01*
X292454Y375162D01*
X292531Y375158D01*
X292609Y375158D01*
X292686Y375162D01*
X292763Y375170D01*
X292840Y375182D01*
X292915Y375197D01*
X292990Y375216D01*
X293064Y375239D01*
X293137Y375265D01*
X293208Y375295D01*
X293278Y375329D01*
X293346Y375366D01*
X293412Y375406D01*
X293476Y375450D01*
X293538Y375497D01*
X293597Y375546D01*
X293654Y375599D01*
X293708Y375654D01*
X293759Y375712D01*
X293807Y375773D01*
X293852Y375836D01*
X293894Y375901D01*
X293933Y375968D01*
X293968Y376037D01*
X294000Y376107D01*
X294028Y376179D01*
X294053Y376253D01*
X294074Y376327D01*
X294091Y376402D01*
X294105Y376479D01*
X294114Y376555D01*
X294120Y376633D01*
X294122Y376710D01*
X294122Y380746D01*
X297873Y380746D02*
X297873Y375158D01*
X297873Y377952D02*
X297097Y378418D01*
X297046Y378451D01*
X296997Y378487D01*
X296951Y378526D01*
X296908Y378569D01*
X296867Y378613D01*
X296829Y378661D01*
X296795Y378711D01*
X296764Y378763D01*
X296736Y378817D01*
X296712Y378872D01*
X296691Y378930D01*
X296675Y378988D01*
X296662Y379047D01*
X296653Y379107D01*
X296648Y379167D01*
X296647Y379228D01*
X296650Y379289D01*
X296657Y379349D01*
X296668Y379409D01*
X296683Y379467D01*
X296701Y379525D01*
X296723Y379582D01*
X296749Y379636D01*
X296779Y379689D01*
X296812Y379740D01*
X296848Y379789D01*
X296887Y379835D01*
X296929Y379879D01*
X296974Y379920D01*
X297021Y379957D01*
X297071Y379992D01*
X297123Y380023D01*
X297177Y380051D01*
X297233Y380075D01*
X297290Y380095D01*
X297348Y380112D01*
X297407Y380125D01*
X297408Y380125D02*
X297505Y380141D01*
X297603Y380153D01*
X297701Y380160D01*
X297800Y380164D01*
X297898Y380165D01*
X297997Y380161D01*
X298095Y380153D01*
X298193Y380141D01*
X298290Y380125D01*
X298386Y380106D01*
X298482Y380082D01*
X298577Y380055D01*
X298670Y380024D01*
X298762Y379989D01*
X298853Y379951D01*
X298942Y379909D01*
X299030Y379864D01*
X299115Y379815D01*
X297873Y377952D02*
X298649Y377486D01*
X298700Y377453D01*
X298749Y377417D01*
X298795Y377378D01*
X298838Y377335D01*
X298879Y377291D01*
X298917Y377243D01*
X298951Y377193D01*
X298982Y377141D01*
X299010Y377087D01*
X299034Y377032D01*
X299055Y376974D01*
X299071Y376916D01*
X299084Y376857D01*
X299093Y376797D01*
X299098Y376737D01*
X299099Y376676D01*
X299096Y376615D01*
X299089Y376555D01*
X299078Y376495D01*
X299063Y376437D01*
X299045Y376379D01*
X299023Y376322D01*
X298997Y376268D01*
X298967Y376215D01*
X298934Y376164D01*
X298898Y376115D01*
X298859Y376069D01*
X298817Y376025D01*
X298772Y375984D01*
X298725Y375947D01*
X298675Y375912D01*
X298623Y375881D01*
X298569Y375853D01*
X298513Y375829D01*
X298456Y375809D01*
X298398Y375792D01*
X298339Y375779D01*
X298242Y375763D01*
X298144Y375751D01*
X298046Y375744D01*
X297947Y375740D01*
X297849Y375739D01*
X297750Y375743D01*
X297652Y375751D01*
X297554Y375763D01*
X297457Y375779D01*
X297361Y375798D01*
X297265Y375822D01*
X297170Y375849D01*
X297077Y375880D01*
X296985Y375915D01*
X296894Y375953D01*
X296805Y375995D01*
X296717Y376040D01*
X296632Y376089D01*
X303149Y380746D02*
X303222Y380744D01*
X303295Y380738D01*
X303368Y380729D01*
X303439Y380715D01*
X303511Y380698D01*
X303581Y380678D01*
X303650Y380653D01*
X303717Y380625D01*
X303783Y380594D01*
X303848Y380559D01*
X303910Y380521D01*
X303970Y380479D01*
X304028Y380435D01*
X304084Y380387D01*
X304137Y380337D01*
X304187Y380284D01*
X304235Y380228D01*
X304279Y380170D01*
X304321Y380110D01*
X304359Y380048D01*
X304394Y379983D01*
X304425Y379917D01*
X304453Y379850D01*
X304478Y379781D01*
X304498Y379711D01*
X304515Y379639D01*
X304529Y379568D01*
X304538Y379495D01*
X304544Y379422D01*
X304546Y379349D01*
X303149Y380746D02*
X303065Y380744D01*
X302982Y380738D01*
X302899Y380729D01*
X302817Y380715D01*
X302735Y380698D01*
X302654Y380676D01*
X302574Y380651D01*
X302496Y380623D01*
X302418Y380591D01*
X302343Y380555D01*
X302269Y380516D01*
X302197Y380473D01*
X302127Y380427D01*
X302060Y380378D01*
X301994Y380325D01*
X301932Y380270D01*
X301872Y380212D01*
X301814Y380151D01*
X301760Y380088D01*
X301708Y380022D01*
X301660Y379954D01*
X301615Y379883D01*
X301573Y379811D01*
X301535Y379736D01*
X301500Y379660D01*
X301469Y379583D01*
X301441Y379504D01*
X304080Y378263D02*
X304134Y378316D01*
X304185Y378373D01*
X304233Y378432D01*
X304278Y378493D01*
X304319Y378556D01*
X304358Y378622D01*
X304393Y378689D01*
X304425Y378758D01*
X304453Y378829D01*
X304477Y378900D01*
X304498Y378973D01*
X304515Y379047D01*
X304529Y379122D01*
X304538Y379197D01*
X304544Y379273D01*
X304546Y379349D01*
X304080Y378262D02*
X301442Y375158D01*
X304546Y375158D01*
D12*
X663702Y361950D02*
X733298Y361950D01*
X733298Y463550D02*
X701548Y463550D01*
X695452Y463550D01*
X671830Y463550D01*
X695452Y463550D02*
X695454Y463441D01*
X695460Y463333D01*
X695469Y463224D01*
X695483Y463116D01*
X695500Y463009D01*
X695522Y462902D01*
X695547Y462796D01*
X695575Y462691D01*
X695608Y462587D01*
X695644Y462485D01*
X695684Y462384D01*
X695727Y462284D01*
X695774Y462186D01*
X695825Y462089D01*
X695879Y461995D01*
X695936Y461902D01*
X695996Y461812D01*
X696060Y461723D01*
X696127Y461637D01*
X696196Y461554D01*
X696269Y461473D01*
X696345Y461395D01*
X696423Y461319D01*
X696504Y461246D01*
X696587Y461177D01*
X696673Y461110D01*
X696762Y461046D01*
X696852Y460986D01*
X696945Y460929D01*
X697039Y460875D01*
X697136Y460824D01*
X697234Y460777D01*
X697334Y460734D01*
X697435Y460694D01*
X697537Y460658D01*
X697641Y460625D01*
X697746Y460597D01*
X697852Y460572D01*
X697959Y460550D01*
X698066Y460533D01*
X698174Y460519D01*
X698283Y460510D01*
X698391Y460504D01*
X698500Y460502D01*
X698609Y460504D01*
X698717Y460510D01*
X698826Y460519D01*
X698934Y460533D01*
X699041Y460550D01*
X699148Y460572D01*
X699254Y460597D01*
X699359Y460625D01*
X699463Y460658D01*
X699565Y460694D01*
X699666Y460734D01*
X699766Y460777D01*
X699864Y460824D01*
X699961Y460875D01*
X700055Y460929D01*
X700148Y460986D01*
X700238Y461046D01*
X700327Y461110D01*
X700413Y461177D01*
X700496Y461246D01*
X700577Y461319D01*
X700655Y461395D01*
X700731Y461473D01*
X700804Y461554D01*
X700873Y461637D01*
X700940Y461723D01*
X701004Y461812D01*
X701064Y461902D01*
X701121Y461995D01*
X701175Y462089D01*
X701226Y462186D01*
X701273Y462284D01*
X701316Y462384D01*
X701356Y462485D01*
X701392Y462587D01*
X701425Y462691D01*
X701453Y462796D01*
X701478Y462902D01*
X701500Y463009D01*
X701517Y463116D01*
X701531Y463224D01*
X701540Y463333D01*
X701546Y463441D01*
X701548Y463550D01*
D19*
X641227Y362415D02*
X627645Y362415D01*
X641227Y362415D02*
X641370Y362417D01*
X641512Y362423D01*
X641655Y362433D01*
X641797Y362446D01*
X641938Y362464D01*
X642079Y362485D01*
X642220Y362510D01*
X642360Y362539D01*
X642498Y362572D01*
X642636Y362609D01*
X642773Y362649D01*
X642909Y362693D01*
X643043Y362741D01*
X643177Y362792D01*
X643308Y362847D01*
X643438Y362906D01*
X643567Y362968D01*
X643694Y363034D01*
X643818Y363103D01*
X643941Y363176D01*
X644062Y363251D01*
X644181Y363330D01*
X644298Y363413D01*
X644412Y363498D01*
X644524Y363587D01*
X644633Y363678D01*
X644740Y363773D01*
X644844Y363870D01*
X644946Y363970D01*
X645045Y364073D01*
X645141Y364179D01*
X645234Y364287D01*
X645324Y364398D01*
X645411Y364511D01*
X645495Y364626D01*
X645576Y364744D01*
X645653Y364864D01*
X645727Y364986D01*
X645798Y365110D01*
X645865Y365236D01*
X645929Y365363D01*
X645990Y365493D01*
X646046Y365623D01*
X646100Y365756D01*
X646149Y365890D01*
X646195Y366025D01*
X646238Y366161D01*
X646276Y366298D01*
X646311Y366437D01*
X646342Y366576D01*
X646369Y366716D01*
X646392Y366857D01*
X646412Y366998D01*
X646427Y367140D01*
X646439Y367283D01*
X646447Y367425D01*
X646451Y367568D01*
X646451Y367710D01*
X646447Y367853D01*
X646439Y367995D01*
X646427Y368138D01*
X646412Y368280D01*
X646392Y368421D01*
X646369Y368562D01*
X646342Y368702D01*
X646311Y368841D01*
X646276Y368980D01*
X646238Y369117D01*
X646195Y369253D01*
X646149Y369388D01*
X646100Y369522D01*
X646046Y369655D01*
X645990Y369785D01*
X645929Y369915D01*
X645865Y370042D01*
X645798Y370168D01*
X645727Y370292D01*
X645653Y370414D01*
X645576Y370534D01*
X645495Y370652D01*
X645411Y370767D01*
X645324Y370880D01*
X645234Y370991D01*
X645141Y371099D01*
X645045Y371205D01*
X644946Y371308D01*
X644844Y371408D01*
X644740Y371505D01*
X644633Y371600D01*
X644524Y371691D01*
X644412Y371780D01*
X644298Y371865D01*
X644181Y371948D01*
X644062Y372027D01*
X643941Y372102D01*
X643818Y372175D01*
X643694Y372244D01*
X643567Y372310D01*
X643438Y372372D01*
X643308Y372431D01*
X643177Y372486D01*
X643043Y372537D01*
X642909Y372585D01*
X642773Y372629D01*
X642636Y372669D01*
X642498Y372706D01*
X642360Y372739D01*
X642220Y372768D01*
X642079Y372793D01*
X641938Y372814D01*
X641797Y372832D01*
X641655Y372845D01*
X641512Y372855D01*
X641370Y372861D01*
X641227Y372863D01*
X627645Y372863D01*
X631824Y380852D02*
X627645Y386076D01*
X646451Y386076D01*
X646451Y380852D02*
X646451Y391300D01*
D13*
X573199Y63500D02*
X203200Y63500D01*
X573199Y63500D02*
X573199Y303500D01*
X203200Y303500D01*
X203200Y63500D01*
X144947Y61032D02*
X62947Y61032D01*
X144947Y61032D02*
X144947Y161032D01*
X62947Y161032D01*
X62947Y61032D01*
D20*
X102947Y54032D02*
X102949Y54095D01*
X102955Y54157D01*
X102965Y54219D01*
X102978Y54281D01*
X102996Y54341D01*
X103017Y54400D01*
X103042Y54458D01*
X103071Y54514D01*
X103103Y54568D01*
X103138Y54620D01*
X103176Y54669D01*
X103218Y54717D01*
X103262Y54761D01*
X103310Y54803D01*
X103359Y54841D01*
X103411Y54876D01*
X103465Y54908D01*
X103521Y54937D01*
X103579Y54962D01*
X103638Y54983D01*
X103698Y55001D01*
X103760Y55014D01*
X103822Y55024D01*
X103884Y55030D01*
X103947Y55032D01*
X104010Y55030D01*
X104072Y55024D01*
X104134Y55014D01*
X104196Y55001D01*
X104256Y54983D01*
X104315Y54962D01*
X104373Y54937D01*
X104429Y54908D01*
X104483Y54876D01*
X104535Y54841D01*
X104584Y54803D01*
X104632Y54761D01*
X104676Y54717D01*
X104718Y54669D01*
X104756Y54620D01*
X104791Y54568D01*
X104823Y54514D01*
X104852Y54458D01*
X104877Y54400D01*
X104898Y54341D01*
X104916Y54281D01*
X104929Y54219D01*
X104939Y54157D01*
X104945Y54095D01*
X104947Y54032D01*
X104945Y53969D01*
X104939Y53907D01*
X104929Y53845D01*
X104916Y53783D01*
X104898Y53723D01*
X104877Y53664D01*
X104852Y53606D01*
X104823Y53550D01*
X104791Y53496D01*
X104756Y53444D01*
X104718Y53395D01*
X104676Y53347D01*
X104632Y53303D01*
X104584Y53261D01*
X104535Y53223D01*
X104483Y53188D01*
X104429Y53156D01*
X104373Y53127D01*
X104315Y53102D01*
X104256Y53081D01*
X104196Y53063D01*
X104134Y53050D01*
X104072Y53040D01*
X104010Y53034D01*
X103947Y53032D01*
X103884Y53034D01*
X103822Y53040D01*
X103760Y53050D01*
X103698Y53063D01*
X103638Y53081D01*
X103579Y53102D01*
X103521Y53127D01*
X103465Y53156D01*
X103411Y53188D01*
X103359Y53223D01*
X103310Y53261D01*
X103262Y53303D01*
X103218Y53347D01*
X103176Y53395D01*
X103138Y53444D01*
X103103Y53496D01*
X103071Y53550D01*
X103042Y53606D01*
X103017Y53664D01*
X102996Y53723D01*
X102978Y53783D01*
X102965Y53845D01*
X102955Y53907D01*
X102949Y53969D01*
X102947Y54032D01*
D14*
X55937Y60336D02*
X44252Y60336D01*
X55937Y59038D02*
X55937Y61634D01*
X44252Y61634D02*
X44252Y59038D01*
X44252Y66616D02*
X55937Y66616D01*
X55937Y73107D02*
X44252Y66616D01*
X44252Y73107D02*
X55937Y73107D01*
X55937Y78978D02*
X44252Y78978D01*
X44252Y82223D01*
X44254Y82336D01*
X44260Y82449D01*
X44270Y82562D01*
X44284Y82675D01*
X44301Y82787D01*
X44323Y82898D01*
X44348Y83008D01*
X44378Y83118D01*
X44411Y83226D01*
X44448Y83333D01*
X44488Y83439D01*
X44533Y83543D01*
X44581Y83646D01*
X44632Y83747D01*
X44687Y83846D01*
X44745Y83943D01*
X44807Y84038D01*
X44872Y84131D01*
X44940Y84221D01*
X45011Y84309D01*
X45086Y84395D01*
X45163Y84478D01*
X45243Y84558D01*
X45326Y84635D01*
X45412Y84710D01*
X45500Y84781D01*
X45590Y84849D01*
X45683Y84914D01*
X45778Y84976D01*
X45875Y85034D01*
X45974Y85089D01*
X46075Y85140D01*
X46178Y85188D01*
X46282Y85233D01*
X46388Y85273D01*
X46495Y85310D01*
X46603Y85343D01*
X46713Y85373D01*
X46823Y85398D01*
X46934Y85420D01*
X47046Y85437D01*
X47159Y85451D01*
X47272Y85461D01*
X47385Y85467D01*
X47498Y85469D01*
X47611Y85467D01*
X47724Y85461D01*
X47837Y85451D01*
X47950Y85437D01*
X48062Y85420D01*
X48173Y85398D01*
X48283Y85373D01*
X48393Y85343D01*
X48501Y85310D01*
X48608Y85273D01*
X48714Y85233D01*
X48818Y85188D01*
X48921Y85140D01*
X49022Y85089D01*
X49121Y85034D01*
X49218Y84976D01*
X49313Y84914D01*
X49406Y84849D01*
X49496Y84781D01*
X49584Y84710D01*
X49670Y84635D01*
X49753Y84558D01*
X49833Y84478D01*
X49910Y84395D01*
X49985Y84309D01*
X50056Y84221D01*
X50124Y84131D01*
X50189Y84038D01*
X50251Y83943D01*
X50309Y83846D01*
X50364Y83747D01*
X50415Y83646D01*
X50463Y83543D01*
X50508Y83439D01*
X50548Y83333D01*
X50585Y83226D01*
X50618Y83118D01*
X50648Y83008D01*
X50673Y82898D01*
X50695Y82787D01*
X50712Y82675D01*
X50726Y82562D01*
X50736Y82449D01*
X50742Y82336D01*
X50744Y82223D01*
X50744Y78978D01*
X52691Y90239D02*
X44252Y90239D01*
X52691Y90238D02*
X52804Y90240D01*
X52917Y90246D01*
X53030Y90256D01*
X53143Y90270D01*
X53255Y90287D01*
X53366Y90309D01*
X53476Y90334D01*
X53586Y90364D01*
X53694Y90397D01*
X53801Y90434D01*
X53907Y90474D01*
X54011Y90519D01*
X54114Y90567D01*
X54215Y90618D01*
X54314Y90673D01*
X54411Y90731D01*
X54506Y90793D01*
X54599Y90858D01*
X54689Y90926D01*
X54777Y90997D01*
X54863Y91072D01*
X54946Y91149D01*
X55026Y91229D01*
X55103Y91312D01*
X55178Y91398D01*
X55249Y91486D01*
X55317Y91576D01*
X55382Y91669D01*
X55444Y91764D01*
X55502Y91861D01*
X55557Y91960D01*
X55608Y92061D01*
X55656Y92164D01*
X55701Y92268D01*
X55741Y92374D01*
X55778Y92481D01*
X55811Y92589D01*
X55841Y92699D01*
X55866Y92809D01*
X55888Y92920D01*
X55905Y93032D01*
X55919Y93145D01*
X55929Y93258D01*
X55935Y93371D01*
X55937Y93484D01*
X55935Y93597D01*
X55929Y93710D01*
X55919Y93823D01*
X55905Y93936D01*
X55888Y94048D01*
X55866Y94159D01*
X55841Y94269D01*
X55811Y94379D01*
X55778Y94487D01*
X55741Y94594D01*
X55701Y94700D01*
X55656Y94804D01*
X55608Y94907D01*
X55557Y95008D01*
X55502Y95107D01*
X55444Y95204D01*
X55382Y95299D01*
X55317Y95392D01*
X55249Y95482D01*
X55178Y95570D01*
X55103Y95656D01*
X55026Y95739D01*
X54946Y95819D01*
X54863Y95896D01*
X54777Y95971D01*
X54689Y96042D01*
X54599Y96110D01*
X54506Y96175D01*
X54411Y96237D01*
X54314Y96295D01*
X54215Y96350D01*
X54114Y96401D01*
X54011Y96449D01*
X53907Y96494D01*
X53801Y96534D01*
X53694Y96571D01*
X53586Y96604D01*
X53476Y96634D01*
X53366Y96659D01*
X53255Y96681D01*
X53143Y96698D01*
X53030Y96712D01*
X52917Y96722D01*
X52804Y96728D01*
X52691Y96730D01*
X44252Y96730D01*
X44252Y104534D02*
X55937Y104534D01*
X44252Y101288D02*
X44252Y107780D01*
D13*
X60600Y456400D02*
X142600Y456400D01*
X60600Y456400D02*
X60600Y356400D01*
X142600Y356400D01*
X142600Y456400D01*
D20*
X100600Y463400D02*
X100602Y463463D01*
X100608Y463525D01*
X100618Y463587D01*
X100631Y463649D01*
X100649Y463709D01*
X100670Y463768D01*
X100695Y463826D01*
X100724Y463882D01*
X100756Y463936D01*
X100791Y463988D01*
X100829Y464037D01*
X100871Y464085D01*
X100915Y464129D01*
X100963Y464171D01*
X101012Y464209D01*
X101064Y464244D01*
X101118Y464276D01*
X101174Y464305D01*
X101232Y464330D01*
X101291Y464351D01*
X101351Y464369D01*
X101413Y464382D01*
X101475Y464392D01*
X101537Y464398D01*
X101600Y464400D01*
X101663Y464398D01*
X101725Y464392D01*
X101787Y464382D01*
X101849Y464369D01*
X101909Y464351D01*
X101968Y464330D01*
X102026Y464305D01*
X102082Y464276D01*
X102136Y464244D01*
X102188Y464209D01*
X102237Y464171D01*
X102285Y464129D01*
X102329Y464085D01*
X102371Y464037D01*
X102409Y463988D01*
X102444Y463936D01*
X102476Y463882D01*
X102505Y463826D01*
X102530Y463768D01*
X102551Y463709D01*
X102569Y463649D01*
X102582Y463587D01*
X102592Y463525D01*
X102598Y463463D01*
X102600Y463400D01*
X102598Y463337D01*
X102592Y463275D01*
X102582Y463213D01*
X102569Y463151D01*
X102551Y463091D01*
X102530Y463032D01*
X102505Y462974D01*
X102476Y462918D01*
X102444Y462864D01*
X102409Y462812D01*
X102371Y462763D01*
X102329Y462715D01*
X102285Y462671D01*
X102237Y462629D01*
X102188Y462591D01*
X102136Y462556D01*
X102082Y462524D01*
X102026Y462495D01*
X101968Y462470D01*
X101909Y462449D01*
X101849Y462431D01*
X101787Y462418D01*
X101725Y462408D01*
X101663Y462402D01*
X101600Y462400D01*
X101537Y462402D01*
X101475Y462408D01*
X101413Y462418D01*
X101351Y462431D01*
X101291Y462449D01*
X101232Y462470D01*
X101174Y462495D01*
X101118Y462524D01*
X101064Y462556D01*
X101012Y462591D01*
X100963Y462629D01*
X100915Y462671D01*
X100871Y462715D01*
X100829Y462763D01*
X100791Y462812D01*
X100756Y462864D01*
X100724Y462918D01*
X100695Y462974D01*
X100670Y463032D01*
X100649Y463091D01*
X100631Y463151D01*
X100618Y463213D01*
X100608Y463275D01*
X100602Y463337D01*
X100600Y463400D01*
D14*
X54615Y341558D02*
X42930Y341558D01*
X54615Y341558D02*
X54615Y346751D01*
X54615Y352020D02*
X42930Y352020D01*
X54615Y350722D02*
X54615Y353319D01*
X42930Y353319D02*
X42930Y350722D01*
X42930Y358413D02*
X54615Y358413D01*
X49422Y362308D02*
X42930Y358413D01*
X49422Y362308D02*
X42930Y366203D01*
X54615Y366203D01*
X54615Y372595D02*
X42930Y372595D01*
X54615Y371297D02*
X54615Y373894D01*
X42930Y373894D02*
X42930Y371297D01*
X42930Y380978D02*
X54615Y380978D01*
X42930Y377732D02*
X42930Y384223D01*
X55913Y387906D02*
X55913Y393100D01*
X54615Y401059D02*
X54613Y401158D01*
X54607Y401258D01*
X54598Y401357D01*
X54585Y401455D01*
X54567Y401553D01*
X54547Y401651D01*
X54522Y401747D01*
X54494Y401843D01*
X54462Y401937D01*
X54427Y402030D01*
X54388Y402121D01*
X54345Y402211D01*
X54299Y402300D01*
X54250Y402386D01*
X54198Y402471D01*
X54142Y402553D01*
X54083Y402633D01*
X54022Y402711D01*
X53957Y402787D01*
X53889Y402860D01*
X53819Y402930D01*
X53746Y402998D01*
X53670Y403063D01*
X53592Y403124D01*
X53512Y403183D01*
X53430Y403239D01*
X53345Y403291D01*
X53259Y403340D01*
X53170Y403386D01*
X53080Y403429D01*
X52989Y403468D01*
X52896Y403503D01*
X52802Y403535D01*
X52706Y403563D01*
X52610Y403588D01*
X52512Y403608D01*
X52414Y403626D01*
X52316Y403639D01*
X52217Y403648D01*
X52117Y403654D01*
X52018Y403656D01*
X54615Y401059D02*
X54613Y400915D01*
X54607Y400770D01*
X54598Y400626D01*
X54585Y400483D01*
X54568Y400339D01*
X54547Y400196D01*
X54522Y400054D01*
X54494Y399913D01*
X54462Y399772D01*
X54426Y399632D01*
X54387Y399493D01*
X54344Y399355D01*
X54297Y399219D01*
X54247Y399083D01*
X54193Y398949D01*
X54136Y398817D01*
X54075Y398686D01*
X54011Y398557D01*
X53943Y398429D01*
X53873Y398303D01*
X53798Y398179D01*
X53721Y398058D01*
X53640Y397938D01*
X53557Y397820D01*
X53470Y397705D01*
X53380Y397592D01*
X53287Y397481D01*
X53192Y397373D01*
X53093Y397267D01*
X52992Y397164D01*
X45527Y397488D02*
X45428Y397490D01*
X45328Y397496D01*
X45229Y397505D01*
X45131Y397518D01*
X45033Y397536D01*
X44935Y397556D01*
X44839Y397581D01*
X44743Y397609D01*
X44649Y397641D01*
X44556Y397676D01*
X44465Y397715D01*
X44375Y397758D01*
X44286Y397803D01*
X44200Y397853D01*
X44115Y397905D01*
X44033Y397961D01*
X43953Y398020D01*
X43875Y398081D01*
X43799Y398146D01*
X43726Y398214D01*
X43656Y398284D01*
X43588Y398357D01*
X43523Y398433D01*
X43462Y398511D01*
X43403Y398591D01*
X43347Y398673D01*
X43295Y398758D01*
X43246Y398844D01*
X43200Y398933D01*
X43157Y399023D01*
X43118Y399114D01*
X43083Y399207D01*
X43051Y399301D01*
X43023Y399397D01*
X42998Y399493D01*
X42978Y399591D01*
X42960Y399689D01*
X42947Y399787D01*
X42938Y399886D01*
X42932Y399985D01*
X42930Y400085D01*
X42931Y400085D02*
X42933Y400221D01*
X42939Y400357D01*
X42948Y400493D01*
X42961Y400629D01*
X42979Y400764D01*
X42999Y400898D01*
X43024Y401032D01*
X43052Y401165D01*
X43085Y401298D01*
X43120Y401429D01*
X43160Y401560D01*
X43203Y401689D01*
X43249Y401817D01*
X43300Y401943D01*
X43353Y402069D01*
X43411Y402192D01*
X43471Y402314D01*
X43535Y402434D01*
X43603Y402553D01*
X43673Y402669D01*
X43747Y402784D01*
X43824Y402896D01*
X43905Y403006D01*
X47799Y398786D02*
X47746Y398700D01*
X47689Y398616D01*
X47630Y398534D01*
X47567Y398454D01*
X47501Y398377D01*
X47433Y398302D01*
X47361Y398230D01*
X47287Y398161D01*
X47210Y398095D01*
X47131Y398032D01*
X47049Y397972D01*
X46965Y397915D01*
X46879Y397861D01*
X46791Y397811D01*
X46701Y397764D01*
X46610Y397720D01*
X46516Y397681D01*
X46422Y397644D01*
X46326Y397612D01*
X46228Y397583D01*
X46130Y397558D01*
X46031Y397537D01*
X45931Y397519D01*
X45831Y397506D01*
X45730Y397496D01*
X45628Y397490D01*
X45527Y397488D01*
X49746Y402357D02*
X49799Y402443D01*
X49856Y402527D01*
X49915Y402609D01*
X49978Y402689D01*
X50044Y402766D01*
X50112Y402841D01*
X50184Y402913D01*
X50258Y402982D01*
X50335Y403048D01*
X50414Y403111D01*
X50496Y403171D01*
X50580Y403228D01*
X50666Y403282D01*
X50754Y403332D01*
X50844Y403379D01*
X50935Y403423D01*
X51029Y403462D01*
X51123Y403499D01*
X51219Y403531D01*
X51317Y403560D01*
X51415Y403585D01*
X51514Y403606D01*
X51614Y403624D01*
X51714Y403637D01*
X51815Y403647D01*
X51917Y403653D01*
X52018Y403655D01*
X49746Y402357D02*
X47799Y398787D01*
X42930Y407790D02*
X54615Y410386D01*
X46825Y412983D01*
X54615Y415580D01*
X42930Y418176D01*
X42930Y423652D02*
X54615Y423652D01*
X54615Y424950D02*
X54615Y422353D01*
X42930Y422353D02*
X42930Y424950D01*
X42930Y432034D02*
X54615Y432034D01*
X42930Y428788D02*
X42930Y435280D01*
X54615Y442020D02*
X54615Y444617D01*
X54615Y442020D02*
X54613Y441921D01*
X54607Y441821D01*
X54598Y441722D01*
X54585Y441624D01*
X54567Y441526D01*
X54547Y441428D01*
X54522Y441332D01*
X54494Y441236D01*
X54462Y441142D01*
X54427Y441049D01*
X54388Y440958D01*
X54345Y440868D01*
X54299Y440779D01*
X54250Y440693D01*
X54198Y440608D01*
X54142Y440526D01*
X54083Y440446D01*
X54022Y440368D01*
X53957Y440292D01*
X53889Y440219D01*
X53819Y440149D01*
X53746Y440081D01*
X53670Y440016D01*
X53592Y439955D01*
X53512Y439896D01*
X53430Y439840D01*
X53345Y439788D01*
X53259Y439739D01*
X53170Y439693D01*
X53080Y439650D01*
X52989Y439611D01*
X52896Y439576D01*
X52802Y439544D01*
X52706Y439516D01*
X52610Y439491D01*
X52512Y439471D01*
X52414Y439453D01*
X52316Y439440D01*
X52217Y439431D01*
X52117Y439425D01*
X52018Y439423D01*
X45527Y439423D01*
X45428Y439425D01*
X45328Y439431D01*
X45229Y439440D01*
X45131Y439453D01*
X45033Y439471D01*
X44935Y439491D01*
X44839Y439516D01*
X44743Y439544D01*
X44649Y439576D01*
X44556Y439611D01*
X44465Y439650D01*
X44375Y439693D01*
X44286Y439738D01*
X44200Y439788D01*
X44115Y439840D01*
X44033Y439896D01*
X43953Y439955D01*
X43875Y440016D01*
X43799Y440081D01*
X43726Y440149D01*
X43656Y440219D01*
X43588Y440292D01*
X43523Y440368D01*
X43462Y440446D01*
X43403Y440526D01*
X43347Y440608D01*
X43295Y440693D01*
X43246Y440779D01*
X43200Y440868D01*
X43157Y440958D01*
X43118Y441049D01*
X43083Y441142D01*
X43051Y441236D01*
X43023Y441332D01*
X42998Y441428D01*
X42978Y441526D01*
X42960Y441624D01*
X42947Y441722D01*
X42938Y441821D01*
X42932Y441920D01*
X42930Y442020D01*
X42930Y444617D01*
X42930Y449363D02*
X54615Y449363D01*
X48123Y449363D02*
X48123Y455855D01*
X42930Y455855D02*
X54615Y455855D01*
D13*
X60600Y304000D02*
X142600Y304000D01*
X60600Y304000D02*
X60600Y204000D01*
X142600Y204000D01*
X142600Y304000D01*
D20*
X100600Y311000D02*
X100602Y311063D01*
X100608Y311125D01*
X100618Y311187D01*
X100631Y311249D01*
X100649Y311309D01*
X100670Y311368D01*
X100695Y311426D01*
X100724Y311482D01*
X100756Y311536D01*
X100791Y311588D01*
X100829Y311637D01*
X100871Y311685D01*
X100915Y311729D01*
X100963Y311771D01*
X101012Y311809D01*
X101064Y311844D01*
X101118Y311876D01*
X101174Y311905D01*
X101232Y311930D01*
X101291Y311951D01*
X101351Y311969D01*
X101413Y311982D01*
X101475Y311992D01*
X101537Y311998D01*
X101600Y312000D01*
X101663Y311998D01*
X101725Y311992D01*
X101787Y311982D01*
X101849Y311969D01*
X101909Y311951D01*
X101968Y311930D01*
X102026Y311905D01*
X102082Y311876D01*
X102136Y311844D01*
X102188Y311809D01*
X102237Y311771D01*
X102285Y311729D01*
X102329Y311685D01*
X102371Y311637D01*
X102409Y311588D01*
X102444Y311536D01*
X102476Y311482D01*
X102505Y311426D01*
X102530Y311368D01*
X102551Y311309D01*
X102569Y311249D01*
X102582Y311187D01*
X102592Y311125D01*
X102598Y311063D01*
X102600Y311000D01*
X102598Y310937D01*
X102592Y310875D01*
X102582Y310813D01*
X102569Y310751D01*
X102551Y310691D01*
X102530Y310632D01*
X102505Y310574D01*
X102476Y310518D01*
X102444Y310464D01*
X102409Y310412D01*
X102371Y310363D01*
X102329Y310315D01*
X102285Y310271D01*
X102237Y310229D01*
X102188Y310191D01*
X102136Y310156D01*
X102082Y310124D01*
X102026Y310095D01*
X101968Y310070D01*
X101909Y310049D01*
X101849Y310031D01*
X101787Y310018D01*
X101725Y310008D01*
X101663Y310002D01*
X101600Y310000D01*
X101537Y310002D01*
X101475Y310008D01*
X101413Y310018D01*
X101351Y310031D01*
X101291Y310049D01*
X101232Y310070D01*
X101174Y310095D01*
X101118Y310124D01*
X101064Y310156D01*
X101012Y310191D01*
X100963Y310229D01*
X100915Y310271D01*
X100871Y310315D01*
X100829Y310363D01*
X100791Y310412D01*
X100756Y310464D01*
X100724Y310518D01*
X100695Y310574D01*
X100670Y310632D01*
X100649Y310691D01*
X100631Y310751D01*
X100618Y310813D01*
X100608Y310875D01*
X100602Y310937D01*
X100600Y311000D01*
D14*
X54615Y210672D02*
X42930Y210672D01*
X42930Y207426D02*
X42930Y213918D01*
X42930Y218476D02*
X51369Y218476D01*
X51369Y218475D02*
X51482Y218477D01*
X51595Y218483D01*
X51708Y218493D01*
X51821Y218507D01*
X51933Y218524D01*
X52044Y218546D01*
X52154Y218571D01*
X52264Y218601D01*
X52372Y218634D01*
X52479Y218671D01*
X52585Y218711D01*
X52689Y218756D01*
X52792Y218804D01*
X52893Y218855D01*
X52992Y218910D01*
X53089Y218968D01*
X53184Y219030D01*
X53277Y219095D01*
X53367Y219163D01*
X53455Y219234D01*
X53541Y219309D01*
X53624Y219386D01*
X53704Y219466D01*
X53781Y219549D01*
X53856Y219635D01*
X53927Y219723D01*
X53995Y219813D01*
X54060Y219906D01*
X54122Y220001D01*
X54180Y220098D01*
X54235Y220197D01*
X54286Y220298D01*
X54334Y220401D01*
X54379Y220505D01*
X54419Y220611D01*
X54456Y220718D01*
X54489Y220826D01*
X54519Y220936D01*
X54544Y221046D01*
X54566Y221157D01*
X54583Y221269D01*
X54597Y221382D01*
X54607Y221495D01*
X54613Y221608D01*
X54615Y221721D01*
X54613Y221834D01*
X54607Y221947D01*
X54597Y222060D01*
X54583Y222173D01*
X54566Y222285D01*
X54544Y222396D01*
X54519Y222506D01*
X54489Y222616D01*
X54456Y222724D01*
X54419Y222831D01*
X54379Y222937D01*
X54334Y223041D01*
X54286Y223144D01*
X54235Y223245D01*
X54180Y223344D01*
X54122Y223441D01*
X54060Y223536D01*
X53995Y223629D01*
X53927Y223719D01*
X53856Y223807D01*
X53781Y223893D01*
X53704Y223976D01*
X53624Y224056D01*
X53541Y224133D01*
X53455Y224208D01*
X53367Y224279D01*
X53277Y224347D01*
X53184Y224412D01*
X53089Y224474D01*
X52992Y224532D01*
X52893Y224587D01*
X52792Y224638D01*
X52689Y224686D01*
X52585Y224731D01*
X52479Y224771D01*
X52372Y224808D01*
X52264Y224841D01*
X52154Y224871D01*
X52044Y224896D01*
X51933Y224918D01*
X51821Y224935D01*
X51708Y224949D01*
X51595Y224959D01*
X51482Y224965D01*
X51369Y224967D01*
X42930Y224967D01*
X48123Y230837D02*
X48123Y234083D01*
X48125Y234196D01*
X48131Y234309D01*
X48141Y234422D01*
X48155Y234535D01*
X48172Y234647D01*
X48194Y234758D01*
X48219Y234868D01*
X48249Y234978D01*
X48282Y235086D01*
X48319Y235193D01*
X48359Y235299D01*
X48404Y235403D01*
X48452Y235506D01*
X48503Y235607D01*
X48558Y235706D01*
X48616Y235803D01*
X48678Y235898D01*
X48743Y235991D01*
X48811Y236081D01*
X48882Y236169D01*
X48957Y236255D01*
X49034Y236338D01*
X49114Y236418D01*
X49197Y236495D01*
X49283Y236570D01*
X49371Y236641D01*
X49461Y236709D01*
X49554Y236774D01*
X49649Y236836D01*
X49746Y236894D01*
X49845Y236949D01*
X49946Y237000D01*
X50049Y237048D01*
X50153Y237093D01*
X50259Y237133D01*
X50366Y237170D01*
X50474Y237203D01*
X50584Y237233D01*
X50694Y237258D01*
X50805Y237280D01*
X50917Y237297D01*
X51030Y237311D01*
X51143Y237321D01*
X51256Y237327D01*
X51369Y237329D01*
X51482Y237327D01*
X51595Y237321D01*
X51708Y237311D01*
X51821Y237297D01*
X51933Y237280D01*
X52044Y237258D01*
X52154Y237233D01*
X52264Y237203D01*
X52372Y237170D01*
X52479Y237133D01*
X52585Y237093D01*
X52689Y237048D01*
X52792Y237000D01*
X52893Y236949D01*
X52992Y236894D01*
X53089Y236836D01*
X53184Y236774D01*
X53277Y236709D01*
X53367Y236641D01*
X53455Y236570D01*
X53541Y236495D01*
X53624Y236418D01*
X53704Y236338D01*
X53781Y236255D01*
X53856Y236169D01*
X53927Y236081D01*
X53995Y235991D01*
X54060Y235898D01*
X54122Y235803D01*
X54180Y235706D01*
X54235Y235607D01*
X54286Y235506D01*
X54334Y235403D01*
X54379Y235299D01*
X54419Y235193D01*
X54456Y235086D01*
X54489Y234978D01*
X54519Y234868D01*
X54544Y234758D01*
X54566Y234647D01*
X54583Y234535D01*
X54597Y234422D01*
X54607Y234309D01*
X54613Y234196D01*
X54615Y234083D01*
X54615Y230837D01*
X42930Y230837D01*
X42930Y234083D01*
X42932Y234184D01*
X42938Y234284D01*
X42948Y234384D01*
X42961Y234484D01*
X42979Y234583D01*
X43000Y234682D01*
X43025Y234779D01*
X43054Y234876D01*
X43087Y234971D01*
X43123Y235065D01*
X43163Y235158D01*
X43206Y235249D01*
X43253Y235338D01*
X43304Y235425D01*
X43357Y235510D01*
X43414Y235593D01*
X43474Y235674D01*
X43538Y235752D01*
X43604Y235828D01*
X43673Y235901D01*
X43745Y235972D01*
X43819Y236040D01*
X43897Y236104D01*
X43976Y236166D01*
X44058Y236225D01*
X44142Y236280D01*
X44229Y236332D01*
X44317Y236381D01*
X44407Y236426D01*
X44498Y236468D01*
X44592Y236506D01*
X44686Y236540D01*
X44782Y236571D01*
X44879Y236598D01*
X44977Y236621D01*
X45076Y236641D01*
X45176Y236656D01*
X45276Y236668D01*
X45376Y236676D01*
X45477Y236680D01*
X45577Y236680D01*
X45678Y236676D01*
X45778Y236668D01*
X45878Y236656D01*
X45978Y236641D01*
X46077Y236621D01*
X46175Y236598D01*
X46272Y236571D01*
X46368Y236540D01*
X46462Y236506D01*
X46556Y236468D01*
X46647Y236426D01*
X46737Y236381D01*
X46826Y236332D01*
X46912Y236280D01*
X46996Y236225D01*
X47078Y236166D01*
X47157Y236104D01*
X47235Y236040D01*
X47309Y235972D01*
X47381Y235901D01*
X47450Y235828D01*
X47516Y235752D01*
X47580Y235674D01*
X47640Y235593D01*
X47697Y235510D01*
X47750Y235425D01*
X47801Y235338D01*
X47848Y235249D01*
X47891Y235158D01*
X47931Y235065D01*
X47967Y234971D01*
X48000Y234876D01*
X48029Y234779D01*
X48054Y234682D01*
X48075Y234583D01*
X48093Y234484D01*
X48106Y234384D01*
X48116Y234284D01*
X48122Y234184D01*
X48124Y234083D01*
X54615Y242121D02*
X54615Y247314D01*
X54615Y242121D02*
X42930Y242121D01*
X42930Y247314D01*
X48123Y246016D02*
X48123Y242121D01*
X54615Y255138D02*
X54613Y255237D01*
X54607Y255337D01*
X54598Y255436D01*
X54585Y255534D01*
X54567Y255632D01*
X54547Y255730D01*
X54522Y255826D01*
X54494Y255922D01*
X54462Y256016D01*
X54427Y256109D01*
X54388Y256200D01*
X54345Y256290D01*
X54299Y256379D01*
X54250Y256465D01*
X54198Y256550D01*
X54142Y256632D01*
X54083Y256712D01*
X54022Y256790D01*
X53957Y256866D01*
X53889Y256939D01*
X53819Y257009D01*
X53746Y257077D01*
X53670Y257142D01*
X53592Y257203D01*
X53512Y257262D01*
X53430Y257318D01*
X53345Y257370D01*
X53259Y257419D01*
X53170Y257465D01*
X53080Y257508D01*
X52989Y257547D01*
X52896Y257582D01*
X52802Y257614D01*
X52706Y257642D01*
X52610Y257667D01*
X52512Y257687D01*
X52414Y257705D01*
X52316Y257718D01*
X52217Y257727D01*
X52117Y257733D01*
X52018Y257735D01*
X54615Y255138D02*
X54613Y254994D01*
X54607Y254849D01*
X54598Y254705D01*
X54585Y254562D01*
X54568Y254418D01*
X54547Y254275D01*
X54522Y254133D01*
X54494Y253992D01*
X54462Y253851D01*
X54426Y253711D01*
X54387Y253572D01*
X54344Y253434D01*
X54297Y253298D01*
X54247Y253162D01*
X54193Y253028D01*
X54136Y252896D01*
X54075Y252765D01*
X54011Y252636D01*
X53943Y252508D01*
X53873Y252382D01*
X53798Y252258D01*
X53721Y252137D01*
X53640Y252017D01*
X53557Y251899D01*
X53470Y251784D01*
X53380Y251671D01*
X53287Y251560D01*
X53192Y251452D01*
X53093Y251346D01*
X52992Y251243D01*
X45527Y251567D02*
X45428Y251569D01*
X45328Y251575D01*
X45229Y251584D01*
X45131Y251597D01*
X45033Y251615D01*
X44935Y251635D01*
X44839Y251660D01*
X44743Y251688D01*
X44649Y251720D01*
X44556Y251755D01*
X44465Y251794D01*
X44375Y251837D01*
X44286Y251882D01*
X44200Y251932D01*
X44115Y251984D01*
X44033Y252040D01*
X43953Y252099D01*
X43875Y252160D01*
X43799Y252225D01*
X43726Y252293D01*
X43656Y252363D01*
X43588Y252436D01*
X43523Y252512D01*
X43462Y252590D01*
X43403Y252670D01*
X43347Y252752D01*
X43295Y252837D01*
X43246Y252923D01*
X43200Y253012D01*
X43157Y253102D01*
X43118Y253193D01*
X43083Y253286D01*
X43051Y253380D01*
X43023Y253476D01*
X42998Y253572D01*
X42978Y253670D01*
X42960Y253768D01*
X42947Y253866D01*
X42938Y253965D01*
X42932Y254064D01*
X42930Y254164D01*
X42931Y254164D02*
X42933Y254300D01*
X42939Y254436D01*
X42948Y254572D01*
X42961Y254708D01*
X42979Y254843D01*
X42999Y254977D01*
X43024Y255111D01*
X43052Y255244D01*
X43085Y255377D01*
X43120Y255508D01*
X43160Y255639D01*
X43203Y255768D01*
X43249Y255896D01*
X43300Y256022D01*
X43353Y256148D01*
X43411Y256271D01*
X43471Y256393D01*
X43535Y256513D01*
X43603Y256632D01*
X43673Y256748D01*
X43747Y256863D01*
X43824Y256975D01*
X43905Y257085D01*
X47799Y252866D02*
X47746Y252780D01*
X47689Y252696D01*
X47630Y252614D01*
X47567Y252534D01*
X47501Y252457D01*
X47433Y252382D01*
X47361Y252310D01*
X47287Y252241D01*
X47210Y252175D01*
X47131Y252112D01*
X47049Y252052D01*
X46965Y251995D01*
X46879Y251941D01*
X46791Y251891D01*
X46701Y251844D01*
X46610Y251800D01*
X46516Y251761D01*
X46422Y251724D01*
X46326Y251692D01*
X46228Y251663D01*
X46130Y251638D01*
X46031Y251617D01*
X45931Y251599D01*
X45831Y251586D01*
X45730Y251576D01*
X45628Y251570D01*
X45527Y251568D01*
X49746Y256436D02*
X49799Y256522D01*
X49856Y256606D01*
X49915Y256688D01*
X49978Y256768D01*
X50044Y256845D01*
X50112Y256920D01*
X50184Y256992D01*
X50258Y257061D01*
X50335Y257127D01*
X50414Y257190D01*
X50496Y257250D01*
X50580Y257307D01*
X50666Y257361D01*
X50754Y257411D01*
X50844Y257458D01*
X50935Y257502D01*
X51029Y257541D01*
X51123Y257578D01*
X51219Y257610D01*
X51317Y257639D01*
X51415Y257664D01*
X51514Y257685D01*
X51614Y257703D01*
X51714Y257716D01*
X51815Y257726D01*
X51917Y257732D01*
X52018Y257734D01*
X49746Y256436D02*
X47799Y252866D01*
X724408Y76708D02*
X736092Y76708D01*
X724408Y76708D02*
X724408Y79954D01*
X724410Y80067D01*
X724416Y80180D01*
X724426Y80293D01*
X724440Y80406D01*
X724457Y80518D01*
X724479Y80629D01*
X724504Y80739D01*
X724534Y80849D01*
X724567Y80957D01*
X724604Y81064D01*
X724644Y81170D01*
X724689Y81274D01*
X724737Y81377D01*
X724788Y81478D01*
X724843Y81577D01*
X724901Y81674D01*
X724963Y81769D01*
X725028Y81862D01*
X725096Y81952D01*
X725167Y82040D01*
X725242Y82126D01*
X725319Y82209D01*
X725399Y82289D01*
X725482Y82366D01*
X725568Y82441D01*
X725656Y82512D01*
X725746Y82580D01*
X725839Y82645D01*
X725934Y82707D01*
X726031Y82765D01*
X726130Y82820D01*
X726231Y82871D01*
X726334Y82919D01*
X726438Y82964D01*
X726544Y83004D01*
X726651Y83041D01*
X726759Y83074D01*
X726869Y83104D01*
X726979Y83129D01*
X727090Y83151D01*
X727202Y83168D01*
X727315Y83182D01*
X727428Y83192D01*
X727541Y83198D01*
X727654Y83200D01*
X727767Y83198D01*
X727880Y83192D01*
X727993Y83182D01*
X728106Y83168D01*
X728218Y83151D01*
X728329Y83129D01*
X728439Y83104D01*
X728549Y83074D01*
X728657Y83041D01*
X728764Y83004D01*
X728870Y82964D01*
X728974Y82919D01*
X729077Y82871D01*
X729178Y82820D01*
X729277Y82765D01*
X729374Y82707D01*
X729469Y82645D01*
X729562Y82580D01*
X729652Y82512D01*
X729740Y82441D01*
X729826Y82366D01*
X729909Y82289D01*
X729989Y82209D01*
X730066Y82126D01*
X730141Y82040D01*
X730212Y81952D01*
X730280Y81862D01*
X730345Y81769D01*
X730407Y81674D01*
X730465Y81577D01*
X730520Y81478D01*
X730571Y81377D01*
X730619Y81274D01*
X730664Y81170D01*
X730704Y81064D01*
X730741Y80957D01*
X730774Y80849D01*
X730804Y80739D01*
X730829Y80629D01*
X730851Y80518D01*
X730868Y80406D01*
X730882Y80293D01*
X730892Y80180D01*
X730898Y80067D01*
X730900Y79954D01*
X730899Y79954D02*
X730899Y76708D01*
X730899Y80603D02*
X736092Y83199D01*
X732846Y88064D02*
X732733Y88066D01*
X732620Y88072D01*
X732507Y88082D01*
X732394Y88096D01*
X732282Y88113D01*
X732171Y88135D01*
X732061Y88160D01*
X731951Y88190D01*
X731843Y88223D01*
X731736Y88260D01*
X731630Y88300D01*
X731526Y88345D01*
X731423Y88393D01*
X731322Y88444D01*
X731223Y88499D01*
X731126Y88557D01*
X731031Y88619D01*
X730938Y88684D01*
X730848Y88752D01*
X730760Y88823D01*
X730674Y88898D01*
X730591Y88975D01*
X730511Y89055D01*
X730434Y89138D01*
X730359Y89224D01*
X730288Y89312D01*
X730220Y89402D01*
X730155Y89495D01*
X730093Y89590D01*
X730035Y89687D01*
X729980Y89786D01*
X729929Y89887D01*
X729881Y89990D01*
X729836Y90094D01*
X729796Y90200D01*
X729759Y90307D01*
X729726Y90415D01*
X729696Y90525D01*
X729671Y90635D01*
X729649Y90746D01*
X729632Y90858D01*
X729618Y90971D01*
X729608Y91084D01*
X729602Y91197D01*
X729600Y91310D01*
X729602Y91423D01*
X729608Y91536D01*
X729618Y91649D01*
X729632Y91762D01*
X729649Y91874D01*
X729671Y91985D01*
X729696Y92095D01*
X729726Y92205D01*
X729759Y92313D01*
X729796Y92420D01*
X729836Y92526D01*
X729881Y92630D01*
X729929Y92733D01*
X729980Y92834D01*
X730035Y92933D01*
X730093Y93030D01*
X730155Y93125D01*
X730220Y93218D01*
X730288Y93308D01*
X730359Y93396D01*
X730434Y93482D01*
X730511Y93565D01*
X730591Y93645D01*
X730674Y93722D01*
X730760Y93797D01*
X730848Y93868D01*
X730938Y93936D01*
X731031Y94001D01*
X731126Y94063D01*
X731223Y94121D01*
X731322Y94176D01*
X731423Y94227D01*
X731526Y94275D01*
X731630Y94320D01*
X731736Y94360D01*
X731843Y94397D01*
X731951Y94430D01*
X732061Y94460D01*
X732171Y94485D01*
X732282Y94507D01*
X732394Y94524D01*
X732507Y94538D01*
X732620Y94548D01*
X732733Y94554D01*
X732846Y94556D01*
X732959Y94554D01*
X733072Y94548D01*
X733185Y94538D01*
X733298Y94524D01*
X733410Y94507D01*
X733521Y94485D01*
X733631Y94460D01*
X733741Y94430D01*
X733849Y94397D01*
X733956Y94360D01*
X734062Y94320D01*
X734166Y94275D01*
X734269Y94227D01*
X734370Y94176D01*
X734469Y94121D01*
X734566Y94063D01*
X734661Y94001D01*
X734754Y93936D01*
X734844Y93868D01*
X734932Y93797D01*
X735018Y93722D01*
X735101Y93645D01*
X735181Y93565D01*
X735258Y93482D01*
X735333Y93396D01*
X735404Y93308D01*
X735472Y93218D01*
X735537Y93125D01*
X735599Y93030D01*
X735657Y92933D01*
X735712Y92834D01*
X735763Y92733D01*
X735811Y92630D01*
X735856Y92526D01*
X735896Y92420D01*
X735933Y92313D01*
X735966Y92205D01*
X735996Y92095D01*
X736021Y91985D01*
X736043Y91874D01*
X736060Y91762D01*
X736074Y91649D01*
X736084Y91536D01*
X736090Y91423D01*
X736092Y91310D01*
X736090Y91197D01*
X736084Y91084D01*
X736074Y90971D01*
X736060Y90858D01*
X736043Y90746D01*
X736021Y90635D01*
X735996Y90525D01*
X735966Y90415D01*
X735933Y90307D01*
X735896Y90200D01*
X735856Y90094D01*
X735811Y89990D01*
X735763Y89887D01*
X735712Y89786D01*
X735657Y89687D01*
X735599Y89590D01*
X735537Y89495D01*
X735472Y89402D01*
X735404Y89312D01*
X735333Y89224D01*
X735258Y89138D01*
X735181Y89055D01*
X735101Y88975D01*
X735018Y88898D01*
X734932Y88823D01*
X734844Y88752D01*
X734754Y88684D01*
X734661Y88619D01*
X734566Y88557D01*
X734469Y88499D01*
X734370Y88444D01*
X734269Y88393D01*
X734166Y88345D01*
X734062Y88300D01*
X733956Y88260D01*
X733849Y88223D01*
X733741Y88190D01*
X733631Y88160D01*
X733521Y88135D01*
X733410Y88113D01*
X733298Y88096D01*
X733185Y88082D01*
X733072Y88072D01*
X732959Y88066D01*
X732846Y88064D01*
X727004Y88714D02*
X726903Y88716D01*
X726803Y88722D01*
X726703Y88732D01*
X726603Y88745D01*
X726504Y88763D01*
X726405Y88784D01*
X726308Y88809D01*
X726211Y88838D01*
X726116Y88871D01*
X726022Y88907D01*
X725930Y88947D01*
X725839Y88990D01*
X725750Y89037D01*
X725663Y89087D01*
X725577Y89141D01*
X725494Y89198D01*
X725414Y89258D01*
X725335Y89321D01*
X725259Y89388D01*
X725186Y89457D01*
X725116Y89529D01*
X725048Y89603D01*
X724983Y89680D01*
X724922Y89760D01*
X724863Y89842D01*
X724808Y89926D01*
X724756Y90012D01*
X724707Y90100D01*
X724662Y90190D01*
X724620Y90282D01*
X724582Y90375D01*
X724548Y90470D01*
X724517Y90565D01*
X724490Y90662D01*
X724467Y90760D01*
X724447Y90859D01*
X724432Y90959D01*
X724420Y91059D01*
X724412Y91159D01*
X724408Y91260D01*
X724408Y91360D01*
X724412Y91461D01*
X724420Y91561D01*
X724432Y91661D01*
X724447Y91761D01*
X724467Y91860D01*
X724490Y91958D01*
X724517Y92055D01*
X724548Y92150D01*
X724582Y92245D01*
X724620Y92338D01*
X724662Y92430D01*
X724707Y92520D01*
X724756Y92608D01*
X724808Y92694D01*
X724863Y92778D01*
X724922Y92860D01*
X724983Y92940D01*
X725048Y93017D01*
X725116Y93091D01*
X725186Y93163D01*
X725259Y93232D01*
X725335Y93299D01*
X725414Y93362D01*
X725494Y93422D01*
X725577Y93479D01*
X725663Y93533D01*
X725750Y93583D01*
X725839Y93630D01*
X725930Y93673D01*
X726022Y93713D01*
X726116Y93749D01*
X726211Y93782D01*
X726308Y93811D01*
X726405Y93836D01*
X726504Y93857D01*
X726603Y93875D01*
X726703Y93888D01*
X726803Y93898D01*
X726903Y93904D01*
X727004Y93906D01*
X727105Y93904D01*
X727205Y93898D01*
X727305Y93888D01*
X727405Y93875D01*
X727504Y93857D01*
X727603Y93836D01*
X727700Y93811D01*
X727797Y93782D01*
X727892Y93749D01*
X727986Y93713D01*
X728078Y93673D01*
X728169Y93630D01*
X728258Y93583D01*
X728345Y93533D01*
X728431Y93479D01*
X728514Y93422D01*
X728594Y93362D01*
X728673Y93299D01*
X728749Y93232D01*
X728822Y93163D01*
X728892Y93091D01*
X728960Y93017D01*
X729025Y92940D01*
X729086Y92860D01*
X729145Y92778D01*
X729200Y92694D01*
X729252Y92608D01*
X729301Y92520D01*
X729346Y92430D01*
X729388Y92338D01*
X729426Y92245D01*
X729460Y92150D01*
X729491Y92055D01*
X729518Y91958D01*
X729541Y91860D01*
X729561Y91761D01*
X729576Y91661D01*
X729588Y91561D01*
X729596Y91461D01*
X729600Y91360D01*
X729600Y91260D01*
X729596Y91159D01*
X729588Y91059D01*
X729576Y90959D01*
X729561Y90859D01*
X729541Y90760D01*
X729518Y90662D01*
X729491Y90565D01*
X729460Y90470D01*
X729426Y90375D01*
X729388Y90282D01*
X729346Y90190D01*
X729301Y90100D01*
X729252Y90012D01*
X729200Y89926D01*
X729145Y89842D01*
X729086Y89760D01*
X729025Y89680D01*
X728960Y89603D01*
X728892Y89529D01*
X728822Y89457D01*
X728749Y89388D01*
X728673Y89321D01*
X728594Y89258D01*
X728514Y89198D01*
X728431Y89141D01*
X728345Y89087D01*
X728258Y89037D01*
X728169Y88990D01*
X728078Y88947D01*
X727986Y88907D01*
X727892Y88871D01*
X727797Y88838D01*
X727700Y88809D01*
X727603Y88784D01*
X727504Y88763D01*
X727405Y88745D01*
X727305Y88732D01*
X727205Y88722D01*
X727105Y88716D01*
X727004Y88714D01*
M02*
