G04 EAGLE Gerber RS-274X export*
G75*
%MOMM*%
%FSLAX34Y34*%
%LPD*%
%INSolderpaste Top*%
%IPPOS*%
%AMOC8*
5,1,8,0,0,1.08239X$1,22.5*%
G01*
%ADD10R,2.000000X1.500000*%
%ADD11R,2.100000X1.500000*%
%ADD12R,1.500000X1.500000*%
%ADD13R,1.803000X1.600000*%
%ADD14R,1.000000X1.400000*%
%ADD15R,2.000000X1.600000*%


D10*
X698500Y73900D03*
X698500Y103900D03*
X685800Y162800D03*
X685800Y192800D03*
X977900Y154700D03*
X977900Y124700D03*
X774700Y451880D03*
X774700Y421880D03*
D11*
X421640Y413800D03*
X421640Y449800D03*
D12*
X1054100Y248640D03*
X1054100Y213640D03*
X1054100Y274600D03*
X1054100Y309600D03*
X800100Y71400D03*
X800100Y106400D03*
D13*
X1054100Y158500D03*
X1054100Y186940D03*
X457200Y417580D03*
X457200Y446020D03*
X482600Y341380D03*
X482600Y369820D03*
X1054100Y364740D03*
X1054100Y336300D03*
X800100Y268220D03*
X800100Y239780D03*
X800100Y331720D03*
X800100Y303280D03*
X736600Y163580D03*
X736600Y192020D03*
X800100Y395220D03*
X800100Y366780D03*
X927100Y153920D03*
X927100Y125480D03*
X508000Y446020D03*
X508000Y417580D03*
D14*
X838200Y265000D03*
X847700Y243000D03*
X828700Y243000D03*
X838200Y328500D03*
X847700Y306500D03*
X828700Y306500D03*
X838200Y392000D03*
X847700Y370000D03*
X828700Y370000D03*
X431800Y344600D03*
X422300Y366600D03*
X441300Y366600D03*
D15*
X749300Y74900D03*
X749300Y102900D03*
M02*
